TF2CSecondary.sfdir
StartChar: exclam
Encoding: 33 33 1
AltUni2: 0001c3.ffffffff.0
Width: 205
GlyphClass: 2
Flags: W
LayerCount: 2
Fore
SplineSet
58.5 116 m 128,-1,1
 76 119 76 119 90 107 c 128,-1,2
 104 95 104 95 106 75 c 0,3,4
 110 55 110 55 101 38.5 c 128,-1,5
 92 22 92 22 74.5 17.5 c 128,-1,6
 57 13 57 13 44 25 c 128,-1,7
 31 37 31 37 26 57 c 0,8,9
 24 79 24 79 32.5 96 c 128,-1,0
 41 113 41 113 58.5 116 c 128,-1,1
85 180 m 1,10,-1
 41 188 l 1,11,-1
 69 750 l 1,12,-1
 159 738 l 1,13,-1
 85 180 l 1,10,-1
EndSplineSet
EndChar
StartChar: quotedbl
Encoding: 34 34 2
Width: 229
GlyphClass: 2
Flags: W
LayerCount: 2
Fore
SplineSet
173 699 m 1,0,-1
 153 544 l 1,1,-1
 112 544 l 1,2,-1
 99 718 l 1,3,-1
 173 699 l 1,0,-1
4 695 m 1,4,-1
 81 699 l 1,5,-1
 81 508 l 1,6,-1
 40 508 l 1,7,-1
 4 695 l 1,4,-1
EndSplineSet
EndChar
StartChar: numbersign
Encoding: 35 35 3
Width: 409
GlyphClass: 2
Flags: W
LayerCount: 2
Fore
SplineSet
243 372 m 1,0,-1
 248 426 l 1,1,-1
 139 419 l 1,2,-1
 141 368 l 1,3,-1
 243 372 l 1,0,-1
360 434 m 1,4,-1
 293 430 l 1,5,-1
 284 369 l 1,6,-1
 344 373 l 1,7,-1
 339 330 l 1,8,-1
 275 330 l 1,9,-1
 255 221 l 1,10,-1
 222 222 l 1,11,-1
 237 328 l 1,12,-1
 142 327 l 1,13,-1
 145 216 l 1,14,-1
 113 213 l 1,15,-1
 105 326 l 1,16,-1
 17 318 l 1,17,-1
 22 367 l 1,18,-1
 103 368 l 1,19,-1
 101 418 l 1,20,-1
 0 411 l 1,21,-1
 0 459 l 1,22,-1
 101 461 l 1,23,-1
 95 564 l 1,24,-1
 138 560 l 1,25,-1
 138 461 l 1,26,-1
 255 463 l 1,27,-1
 266 536 l 1,28,-1
 309 532 l 1,29,-1
 296 464 l 1,30,-1
 367 464 l 1,31,-1
 360 434 l 1,4,-1
EndSplineSet
EndChar
StartChar: dollar
Encoding: 36 36 4
Width: 279
GlyphClass: 2
Flags: W
LayerCount: 2
Fore
SplineSet
187 280 m 0,0,1
 189 308 189 308 172.5 326 c 128,-1,2
 156 344 156 344 131 349 c 1,3,-1
 125 206 l 1,4,5
 156 217 156 217 165 229.5 c 128,-1,6
 174 242 174 242 179.5 252.5 c 128,-1,7
 185 263 185 263 187 280 c 0,0,1
55 442 m 0,8,9
 55 434 55 434 64.5 423.5 c 128,-1,10
 74 413 74 413 89 408 c 1,11,-1
 88 509 l 1,12,13
 75 498 75 498 65 482 c 128,-1,14
 55 466 55 466 55 442 c 0,8,9
132 394 m 1,15,16
 150 390 150 390 169 384.5 c 128,-1,17
 188 379 188 379 205 363.5 c 128,-1,18
 222 348 222 348 232 329.5 c 128,-1,19
 242 311 242 311 241 273 c 1,20,21
 230 226 230 226 196.5 194.5 c 128,-1,22
 163 163 163 163 124 154 c 1,23,-1
 118 82 l 5,24,-1
 88 79 l 5,25,-1
 91 144 l 1,26,27
 68 140 68 140 42 138 c 0,28,29
 31 137 31 137 22 137 c 1,30,-1
 23 203 l 1,31,32
 34 200 34 200 55 198 c 128,-1,33
 76 196 76 196 92 199 c 1,34,-1
 89 367 l 1,35,36
 74 373 74 373 58.5 379 c 128,-1,37
 43 385 43 385 30.5 394 c 128,-1,38
 18 403 18 403 11 413 c 128,-1,39
 4 423 4 423 4 435 c 0,40,41
 0 473 0 473 20.5 507 c 128,-1,42
 41 541 41 541 88 561 c 1,43,-1
 88 641 l 5,44,-1
 143 641 l 5,45,-1
 140 575 l 1,46,47
 146 576 146 576 156.5 578 c 128,-1,48
 167 580 167 580 176 581 c 2,49,-1
 199 581 l 1,50,-1
 195 530 l 1,51,52
 184 530 184 530 166 530 c 0,53,54
 146 527 146 527 140 526 c 1,55,-1
 132 394 l 1,15,16
EndSplineSet
EndChar
StartChar: percent
Encoding: 37 37 5
Width: 390
GlyphClass: 2
Flags: W
LayerCount: 2
Fore
SplineSet
313 573 m 1,0,-1
 111 124 l 1,1,-1
 59 142 l 1,2,-1
 284 586 l 1,3,-1
 313 573 l 1,0,-1
96 503 m 0,4,5
 82 505 82 505 70 499 c 128,-1,6
 58 493 58 493 52.5 483.5 c 128,-1,7
 47 474 47 474 51 465 c 128,-1,8
 55 456 55 456 74 453 c 0,9,10
 91 450 91 450 101.5 456.5 c 128,-1,11
 112 463 112 463 115 472.5 c 128,-1,12
 118 482 118 482 113 491.5 c 128,-1,13
 108 501 108 501 96 503 c 0,4,5
81 426 m 0,14,15
 44 425 44 425 29.5 442.5 c 128,-1,16
 15 460 15 460 21 481 c 128,-1,17
 27 502 27 502 49 520 c 128,-1,18
 71 538 71 538 105 537 c 0,19,20
 127 537 127 537 137.5 520 c 128,-1,21
 148 503 148 503 145.5 482.5 c 128,-1,22
 143 462 143 462 127.5 444.5 c 128,-1,23
 112 427 112 427 81 426 c 0,14,15
271 223 m 0,24,25
 294 224 294 224 306.5 239 c 128,-1,26
 319 254 319 254 322 272 c 128,-1,27
 325 290 325 290 316 303 c 128,-1,28
 307 316 307 316 287 314 c 0,29,30
 267 311 267 311 253 296.5 c 128,-1,31
 239 282 239 282 235 266 c 128,-1,32
 231 250 231 250 239 236.5 c 128,-1,33
 247 223 247 223 271 223 c 0,24,25
287 351 m 0,34,35
 319 351 319 351 333 325.5 c 128,-1,36
 347 300 347 300 344.5 269 c 128,-1,37
 342 238 342 238 322.5 212 c 128,-1,38
 303 186 303 186 267 186 c 0,39,40
 242 186 242 186 228.5 198.5 c 128,-1,41
 215 211 215 211 210.5 229.5 c 128,-1,42
 206 248 206 248 209 269.5 c 128,-1,43
 212 291 212 291 222.5 309.5 c 128,-1,44
 233 328 233 328 249 339.5 c 128,-1,45
 265 351 265 351 287 351 c 0,34,35
EndSplineSet
EndChar
StartChar: ampersand
Encoding: 38 38 6
Width: 481
GlyphClass: 2
Flags: W
LayerCount: 2
Fore
SplineSet
117 415 m 1,0,1
 121 420 121 420 123 425 c 0,2,3
 141 455 141 455 153.5 478 c 128,-1,4
 166 501 166 501 165 514 c 0,5,6
 165 532 165 532 156 544.5 c 128,-1,7
 147 557 147 557 135 563 c 128,-1,8
 123 569 123 569 107.5 569 c 128,-1,9
 92 569 92 569 78 564 c 1,10,11
 63 524 63 524 82 477 c 0,12,13
 95 447 95 447 117 415 c 1,0,1
356 190 m 1,14,15
 382 172 382 172 401 159 c 0,16,17
 430 140 430 140 431 139 c 1,18,-1
 373 67 l 1,19,20
 341 94 341 94 311 121 c 1,21,22
 307 116 307 116 301 111 c 0,23,24
 277 89 277 89 243.5 76 c 128,-1,25
 210 63 210 63 164 63 c 128,-1,26
 118 63 118 63 86 73 c 128,-1,27
 54 83 54 83 35 100.5 c 128,-1,28
 16 118 16 118 8 142 c 128,-1,29
 0 166 0 166 0 194 c 0,30,31
 0 212 0 212 12.5 239.5 c 128,-1,32
 25 267 25 267 43.5 298.5 c 128,-1,33
 62 330 62 330 84 362 c 0,34,35
 86 366 86 366 89 370 c 1,36,37
 82 380 82 380 76 391 c 0,38,39
 50 431 50 431 33.5 471 c 128,-1,40
 17 511 17 511 16 548 c 0,41,42
 16 582 16 582 25.5 599.5 c 128,-1,43
 35 617 35 617 45.5 625.5 c 128,-1,44
 56 634 56 634 66 635 c 128,-1,45
 76 636 76 636 77 636 c 0,46,47
 80 637 80 637 95 633.5 c 128,-1,48
 110 630 110 630 129 619.5 c 128,-1,49
 148 609 148 609 168.5 592 c 128,-1,50
 189 575 189 575 202 550 c 0,51,52
 211 530 211 530 205.5 505.5 c 128,-1,53
 200 481 200 481 186 453.5 c 128,-1,54
 172 426 172 426 153 395 c 0,55,56
 148 388 148 388 143 381 c 1,57,58
 182 334 182 334 231 291 c 0,59,60
 271 256 271 256 307 227 c 1,61,62
 322 270 322 270 324 333 c 1,63,-1
 250 333 l 1,64,-1
 247 379 l 1,65,-1
 385 374 l 1,66,67
 388 287 388 287 367 218 c 0,68,69
 362 203 362 203 356 190 c 1,14,15
116 332 m 1,70,71
 116 332 116 332 115 332 c 0,72,73
 98 299 98 299 84.5 264 c 128,-1,74
 71 229 71 229 69 194 c 1,75,76
 72 167 72 167 80.5 149.5 c 128,-1,77
 89 132 89 132 101.5 122 c 128,-1,78
 114 112 114 112 130 107.5 c 128,-1,79
 146 103 146 103 164.5 103 c 128,-1,80
 183 103 183 103 210 113.5 c 128,-1,81
 237 124 237 124 262 150 c 0,82,83
 266 155 266 155 270 160 c 1,84,85
 232 197 232 197 198 234 c 0,86,87
 165 270 165 270 133 310 c 0,88,89
 124 322 124 322 116 332 c 1,70,71
431 139 m 1,90,91
 431 139 431 139 431 139 c 1,92,-1
 431 139 l 1,90,91
EndSplineSet
EndChar
StartChar: quotesingle
Encoding: 39 39 7
AltUni2: 002032.ffffffff.0 0002c8.ffffffff.0
Width: 137
GlyphClass: 2
Flags: W
LayerCount: 2
Fore
SplineSet
71 554 m 1,0,-1
 26 554 l 1,1,-1
 26 770 l 1,2,-1
 112 767 l 1,3,-1
 71 554 l 1,0,-1
EndSplineSet
EndChar
StartChar: parenleft
Encoding: 40 40 8
Width: 277
GlyphClass: 2
Flags: W
LayerCount: 2
Fore
SplineSet
229 58 m 1,0,-1
 193 0 l 1,1,2
 166 20 166 20 138 50 c 0,3,4
 114 76 114 76 86 115 c 128,-1,5
 58 154 58 154 33 208 c 0,6,7
 15 247 15 247 18.5 298.5 c 128,-1,8
 22 350 22 350 38 406 c 128,-1,9
 54 462 54 462 78.5 516 c 128,-1,10
 103 570 103 570 128 613.5 c 128,-1,11
 153 657 153 657 171.5 685.5 c 128,-1,12
 190 714 190 714 195 717 c 1,13,-1
 222 697 l 1,14,15
 180 634 180 634 148 565 c 0,16,17
 135 535 135 535 122.5 502.5 c 128,-1,18
 110 470 110 470 101 435.5 c 128,-1,19
 92 401 92 401 88 366 c 128,-1,20
 84 331 84 331 87 297 c 0,21,22
 92 237 92 237 115 192 c 128,-1,23
 138 147 138 147 164 118 c 0,24,25
 193 83 193 83 229 58 c 1,0,-1
EndSplineSet
EndChar
StartChar: parenright
Encoding: 41 41 9
Width: 266
GlyphClass: 2
Flags: W
LayerCount: 2
Fore
SplineSet
0 664 m 1,0,-1
 37 722 l 1,1,2
 64 702 64 702 91 672 c 0,3,4
 115 646 115 646 142.5 607 c 128,-1,5
 170 568 170 568 197 514 c 0,6,7
 215 475 215 475 211.5 423.5 c 128,-1,8
 208 372 208 372 191.5 316 c 128,-1,9
 175 260 175 260 150.5 206 c 128,-1,10
 126 152 126 152 101.5 108.5 c 128,-1,11
 77 65 77 65 58 36.5 c 128,-1,12
 39 8 39 8 35 5 c 1,13,-1
 7 25 l 1,14,15
 49 88 49 88 81 157 c 0,16,17
 94 186 94 186 106.5 218.5 c 128,-1,18
 119 251 119 251 128 286 c 128,-1,19
 137 321 137 321 141 356 c 128,-1,20
 145 391 145 391 142 425 c 0,21,22
 136 484 136 484 113.5 529 c 128,-1,23
 91 574 91 574 66 604 c 0,24,25
 36 639 36 639 0 664 c 1,0,-1
EndSplineSet
EndChar
StartChar: asterisk
Encoding: 42 42 10
Width: 327
GlyphClass: 2
Flags: W
LayerCount: 2
Fore
SplineSet
273 530 m 1,0,-1
 227 498 l 1,1,-1
 155 598 l 1,2,-1
 106 498 l 1,3,-1
 90 507 l 1,4,-1
 118 602 l 1,5,-1
 12 563 l 1,6,-1
 3 596 l 1,7,-1
 124 636 l 1,8,-1
 52 727 l 1,9,-1
 73 741 l 1,10,-1
 143 667 l 1,11,-1
 171 769 l 1,12,-1
 214 750 l 1,13,-1
 171 654 l 1,14,-1
 253 680 l 1,15,-1
 263 666 l 1,16,-1
 176 626 l 1,17,-1
 273 530 l 1,0,-1
EndSplineSet
EndChar
StartChar: plus
Encoding: 43 43 11
Width: 303
GlyphClass: 2
Flags: W
LayerCount: 2
Fore
SplineSet
260 316 m 1,0,-1
 159 318 l 1,1,-1
 155 172 l 1,2,-1
 123 172 l 1,3,-1
 120 318 l 1,4,-1
 0 318 l 1,5,-1
 6 356 l 1,6,-1
 120 356 l 1,7,-1
 118 473 l 1,8,-1
 161 473 l 1,9,-1
 159 356 l 1,10,-1
 262 357 l 1,11,-1
 260 316 l 1,0,-1
EndSplineSet
EndChar
StartChar: comma
Encoding: 44 44 12
Width: 121
GlyphClass: 2
Flags: W
LayerCount: 2
Fore
SplineSet
50 -98 m 1,0,-1
 2 -98 l 1,1,-1
 2 128 l 1,2,-1
 92 123 l 1,3,-1
 50 -98 l 1,0,-1
EndSplineSet
EndChar
StartChar: hyphen
Encoding: 45 45 13
AltUni2: 0000ad.ffffffff.0 002212.ffffffff.0 002010.ffffffff.0 002011.ffffffff.0
Width: 292
GlyphClass: 2
Flags: W
LayerCount: 2
Fore
SplineSet
0 383 m 1,0,-1
 238 402 l 1,1,-1
 233 337 l 1,2,-1
 4 345 l 1,3,-1
 0 383 l 1,0,-1
EndSplineSet
EndChar
StartChar: period
Encoding: 46 46 14
AltUni2: 002024.ffffffff.0
Width: 153
GlyphClass: 2
Flags: W
LayerCount: 2
Fore
SplineSet
100 112 m 1,0,1
 119 97 119 97 123.5 73 c 128,-1,2
 128 49 128 49 116 27 c 0,3,4
 103 8 103 8 78 3.5 c 128,-1,5
 53 -1 53 -1 31 12 c 0,6,7
 12 26 12 26 7.5 50 c 128,-1,8
 3 74 3 74 16 96 c 0,9,10
 29 115 29 115 53 119.5 c 128,-1,11
 77 124 77 124 100 112 c 1,0,1
EndSplineSet
EndChar
StartChar: slash
Encoding: 47 47 15
Width: 358
GlyphClass: 2
Flags: W
LayerCount: 2
Fore
SplineSet
232 684 m 1,0,-1
 307 672 l 1,1,-1
 41 62 l 1,2,-1
 0 77 l 1,3,-1
 232 684 l 1,0,-1
EndSplineSet
EndChar
StartChar: zero
Encoding: 48 48 16
Width: 538
GlyphClass: 2
Flags: W
LayerCount: 2
Fore
SplineSet
423 319 m 0,0,1
 425 382 425 382 411.5 437.5 c 128,-1,2
 398 493 398 493 372.5 533.5 c 128,-1,3
 347 574 347 574 311.5 597.5 c 128,-1,4
 276 621 276 621 236 622 c 0,5,6
 196 622 196 622 164 599 c 0,7,8
 151 590 151 590 138 574.5 c 128,-1,9
 125 559 125 559 114.5 536 c 128,-1,10
 104 513 104 513 98 482 c 128,-1,11
 92 451 92 451 92 409 c 0,12,13
 91 324 91 324 115 265 c 128,-1,14
 139 206 139 206 173 168.5 c 128,-1,15
 207 131 207 131 241.5 114 c 128,-1,16
 276 97 276 97 297 97 c 0,17,18
 316 97 316 97 337 108.5 c 128,-1,19
 358 120 358 120 376.5 146 c 128,-1,20
 395 172 395 172 408 214.5 c 128,-1,21
 421 257 421 257 423 319 c 0,0,1
497 361 m 0,22,23
 502 290 502 290 491 240 c 128,-1,24
 480 190 480 190 460 157 c 128,-1,25
 440 124 440 124 414.5 105 c 128,-1,26
 389 86 389 86 363.5 77 c 128,-1,27
 338 68 338 68 316.5 65 c 128,-1,28
 295 62 295 62 285 62 c 0,29,30
 279 62 279 62 258 64.5 c 128,-1,31
 237 67 237 67 208 76.5 c 128,-1,32
 179 86 179 86 147 105.5 c 128,-1,33
 115 125 115 125 85.5 159.5 c 128,-1,34
 56 194 56 194 33.5 245.5 c 128,-1,35
 11 297 11 297 4 371 c 1,36,37
 3 429 3 429 12.5 472 c 128,-1,38
 22 515 22 515 38 547 c 128,-1,39
 54 579 54 579 74.5 599.5 c 128,-1,40
 95 620 95 620 117 633 c 0,41,42
 167 663 167 663 232 663 c 0,43,44
 235 663 235 663 254.5 661.5 c 128,-1,45
 274 660 274 660 302 652.5 c 128,-1,46
 330 645 330 645 361.5 627.5 c 128,-1,47
 393 610 393 610 421.5 577 c 128,-1,48
 450 544 450 544 471 491 c 128,-1,49
 492 438 492 438 497 361 c 0,22,23
EndSplineSet
EndChar
StartChar: one
Encoding: 49 49 17
Width: 182
GlyphClass: 2
Flags: W
LayerCount: 2
Fore
SplineSet
34 66 m 1,0,-1
 52 662 l 1,1,-1
 108 664 l 1,2,-1
 127 66 l 1,3,-1
 34 66 l 1,0,-1
EndSplineSet
EndChar
StartChar: two
Encoding: 50 50 18
Width: 518
GlyphClass: 2
Flags: W
LayerCount: 2
Fore
SplineSet
0 607 m 1,0,1
 22 620 22 620 59.5 633.5 c 128,-1,2
 97 647 97 647 142.5 655 c 128,-1,3
 188 663 188 663 237 663 c 128,-1,4
 286 663 286 663 328.5 650 c 128,-1,5
 371 637 371 637 401.5 609 c 128,-1,6
 432 581 432 581 443 532 c 0,7,8
 450 495 450 495 444.5 458.5 c 128,-1,9
 439 422 439 422 424 385.5 c 128,-1,10
 409 349 409 349 387 315.5 c 128,-1,11
 365 282 365 282 340 252 c 0,12,13
 284 181 284 181 206 116 c 1,14,-1
 465 124 l 1,15,-1
 467 65 l 1,16,17
 357 64 357 64 271 63 c 0,18,19
 234 63 234 63 199.5 63 c 128,-1,20
 165 63 165 63 137.5 63 c 128,-1,21
 110 63 110 63 92 63 c 2,22,-1
 76 65 l 1,23,24
 110 93 110 93 144 128.5 c 128,-1,25
 178 164 178 164 207.5 200.5 c 128,-1,26
 237 237 237 237 295 315 c 0,27,28
 309 334 309 334 322.5 360.5 c 128,-1,29
 336 387 336 387 343.5 415.5 c 128,-1,30
 351 444 351 444 351 473.5 c 128,-1,31
 351 503 351 503 340 527 c 128,-1,32
 329 551 329 551 304.5 567.5 c 128,-1,33
 280 584 280 584 239 588 c 0,34,35
 194 594 194 594 160.5 587.5 c 128,-1,36
 127 581 127 581 103.5 569 c 128,-1,37
 80 557 80 557 65 544.5 c 128,-1,38
 50 532 50 532 42 527 c 0,39,40
 41 527 41 527 0 607 c 1,0,1
EndSplineSet
EndChar
StartChar: three
Encoding: 51 51 19
Width: 476
GlyphClass: 2
Flags: W
LayerCount: 2
Fore
SplineSet
0 639 m 1,0,1
 44 654 44 654 92.5 660.5 c 128,-1,2
 141 667 141 667 188.5 666 c 128,-1,3
 236 665 236 665 279.5 656 c 128,-1,4
 323 647 323 647 355.5 631 c 128,-1,5
 388 615 388 615 407.5 593.5 c 128,-1,6
 427 572 427 572 427 545 c 0,7,8
 429 510 429 510 418.5 484 c 128,-1,9
 408 458 408 458 390.5 438.5 c 128,-1,10
 373 419 373 419 352 405.5 c 128,-1,11
 331 392 331 392 313 384 c 128,-1,12
 295 376 295 376 283 372.5 c 128,-1,13
 271 369 271 369 271 368 c 1,14,15
 271 369 271 369 290 361.5 c 128,-1,16
 309 354 309 354 332 337.5 c 128,-1,17
 355 321 355 321 375.5 293.5 c 128,-1,18
 396 266 396 266 400 226 c 0,19,20
 400 191 400 191 385 166 c 128,-1,21
 370 141 370 141 344 124.5 c 128,-1,22
 318 108 318 108 285.5 98 c 128,-1,23
 253 88 253 88 219 83 c 0,24,25
 139 72 139 72 36 79 c 1,26,-1
 36 129 l 1,27,28
 110 121 110 121 166 128 c 0,29,30
 191 131 191 131 214 137.5 c 128,-1,31
 237 144 237 144 254.5 156 c 128,-1,32
 272 168 272 168 283.5 186 c 128,-1,33
 295 204 295 204 295 230 c 0,34,35
 295 252 295 252 286.5 268 c 128,-1,36
 278 284 278 284 264.5 295 c 128,-1,37
 251 306 251 306 233.5 312.5 c 128,-1,38
 216 319 216 319 199 323 c 0,39,40
 157 331 157 331 103 327 c 1,41,42
 101 384 101 384 103 385 c 0,43,44
 104 386 104 386 120.5 386 c 128,-1,45
 137 386 137 386 161.5 388.5 c 128,-1,46
 186 391 186 391 214.5 399 c 128,-1,47
 243 407 243 407 267 421.5 c 128,-1,48
 291 436 291 436 306.5 461 c 128,-1,49
 322 486 322 486 322 524 c 0,50,51
 321 562 321 562 300.5 582 c 128,-1,52
 280 602 280 602 248.5 609 c 128,-1,53
 217 616 217 616 180 612.5 c 128,-1,54
 143 609 143 609 110 600.5 c 128,-1,55
 77 592 77 592 20 558 c 1,56,57
 19 564 19 564 0 639 c 1,0,1
EndSplineSet
EndChar
StartChar: four
Encoding: 52 52 20
Width: 528
GlyphClass: 2
Flags: W
LayerCount: 2
Fore
SplineSet
109 301 m 1,0,-1
 280 309 l 1,1,-1
 278 543 l 1,2,-1
 109 301 l 1,0,-1
368 243 m 1,3,-1
 375 59 l 1,4,-1
 289 51 l 1,5,-1
 284 243 l 1,6,-1
 0 241 l 1,7,-1
 308 662 l 1,8,-1
 348 665 l 1,9,-1
 365 312 l 1,10,-1
 476 319 l 1,11,-1
 477 243 l 1,12,-1
 369 245 l 1,13,-1
 368 243 l 1,3,-1
EndSplineSet
EndChar
StartChar: five
Encoding: 53 53 21
Width: 425
GlyphClass: 2
Flags: W
LayerCount: 2
Fore
SplineSet
361 665 m 1,0,-1
 361 583 l 1,1,-1
 78 585 l 1,2,-1
 79 408 l 1,3,4
 95 409 95 409 122.5 409.5 c 128,-1,5
 150 410 150 410 181 407 c 128,-1,6
 212 404 212 404 245 397.5 c 128,-1,7
 278 391 278 391 305 376.5 c 128,-1,8
 332 362 332 362 350.5 339.5 c 128,-1,9
 369 317 369 317 372 283 c 0,10,11
 375 256 375 256 364 232.5 c 128,-1,12
 353 209 353 209 333.5 189 c 128,-1,13
 314 169 314 169 288.5 151.5 c 128,-1,14
 263 134 263 134 236 120 c 0,15,16
 173 86 173 86 88 61 c 1,17,-1
 62 121 l 1,18,19
 121 137 121 137 169 161 c 0,20,21
 188 170 188 170 207.5 182.5 c 128,-1,22
 227 195 227 195 242 209 c 128,-1,23
 257 223 257 223 265.5 240 c 128,-1,24
 274 257 274 257 273 275.5 c 128,-1,25
 272 294 272 294 260 306.5 c 128,-1,26
 248 319 248 319 229 327.5 c 128,-1,27
 210 336 210 336 185.5 340 c 128,-1,28
 161 344 161 344 135 346 c 0,29,30
 76 350 76 350 0 341 c 1,31,-1
 2 635 l 1,32,-1
 361 665 l 1,0,-1
EndSplineSet
EndChar
StartChar: six
Encoding: 54 54 22
Width: 394
GlyphClass: 2
Flags: W
LayerCount: 2
Fore
SplineSet
159 103 m 0,0,1
 194 100 194 100 218 114 c 128,-1,2
 242 128 242 128 255 151 c 128,-1,3
 268 174 268 174 271.5 202 c 128,-1,4
 275 230 275 230 268.5 255.5 c 128,-1,5
 262 281 262 281 246 299 c 128,-1,6
 230 317 230 317 206 322 c 0,7,8
 168 327 168 327 144.5 316.5 c 128,-1,9
 121 306 121 306 108 288.5 c 128,-1,10
 95 271 95 271 90 250.5 c 128,-1,11
 85 230 85 230 84 216 c 0,12,13
 83 205 83 205 87.5 186 c 128,-1,14
 92 167 92 167 102 149 c 128,-1,15
 112 131 112 131 126.5 117.5 c 128,-1,16
 141 104 141 104 159 103 c 0,0,1
203 370 m 0,17,18
 216 370 216 370 240 364 c 128,-1,19
 264 358 264 358 287 342.5 c 128,-1,20
 310 327 310 327 327 296.5 c 128,-1,21
 344 266 344 266 344 216 c 0,22,23
 344 164 344 164 321 133 c 128,-1,24
 298 102 298 102 267.5 86.5 c 128,-1,25
 237 71 237 71 206.5 66.5 c 128,-1,26
 176 62 176 62 161 63 c 0,27,28
 149 63 149 63 122 70 c 128,-1,29
 95 77 95 77 68.5 97 c 128,-1,30
 42 117 42 117 22 155 c 128,-1,31
 2 193 2 193 3 256 c 2,32,-1
 3 258 l 2,33,34
 2 276 2 276 4.5 305 c 128,-1,35
 7 334 7 334 17 369 c 128,-1,36
 27 404 27 404 44.5 443.5 c 128,-1,37
 62 483 62 483 91.5 522.5 c 128,-1,38
 121 562 121 562 163.5 599.5 c 128,-1,39
 206 637 206 637 264 668 c 1,40,41
 299 598 299 598 298 597 c 0,42,43
 245 568 245 568 208 536 c 128,-1,44
 171 504 171 504 146.5 471 c 128,-1,45
 122 438 122 438 107 406 c 128,-1,46
 92 374 92 374 84 346 c 1,47,48
 104 354 104 354 120 359.5 c 128,-1,49
 136 365 136 365 162.5 368 c 128,-1,50
 189 371 189 371 203 370 c 0,17,18
EndSplineSet
EndChar
StartChar: seven
Encoding: 55 55 23
Width: 487
GlyphClass: 2
Flags: W
LayerCount: 2
Fore
SplineSet
2 654 m 1,0,-1
 435 671 l 1,1,-1
 389 63 l 1,2,-1
 309 63 l 1,3,-1
 372 600 l 1,4,-1
 17 567 l 1,5,-1
 2 654 l 1,0,-1
EndSplineSet
EndChar
StartChar: eight
Encoding: 56 56 24
Width: 500
GlyphClass: 2
Flags: W
LayerCount: 2
Fore
SplineSet
233 114 m 0,0,1
 278 114 278 114 309 132.5 c 128,-1,2
 340 151 340 151 356 178 c 128,-1,3
 372 205 372 205 374 236.5 c 128,-1,4
 376 268 376 268 363.5 295.5 c 128,-1,5
 351 323 351 323 324 340 c 128,-1,6
 297 357 297 357 255 356 c 0,7,8
 214 355 214 355 183.5 336.5 c 128,-1,9
 153 318 153 318 135 291 c 128,-1,10
 117 264 117 264 112.5 233.5 c 128,-1,11
 108 203 108 203 119 176.5 c 128,-1,12
 130 150 130 150 158 132 c 128,-1,13
 186 114 186 114 233 114 c 0,0,1
225 611 m 0,14,15
 193 612 193 612 172 595.5 c 128,-1,16
 151 579 151 579 140 554 c 128,-1,17
 129 529 129 529 129 500 c 128,-1,18
 129 471 129 471 139.5 447.5 c 128,-1,19
 150 424 150 424 170.5 408.5 c 128,-1,20
 191 393 191 393 223 396 c 0,21,22
 254 398 254 398 273.5 415 c 128,-1,23
 293 432 293 432 302 455.5 c 128,-1,24
 311 479 311 479 310.5 507 c 128,-1,25
 310 535 310 535 300 558 c 128,-1,26
 290 581 290 581 271 596 c 128,-1,27
 252 611 252 611 225 611 c 0,14,15
335 399 m 1,28,29
 391 395 391 395 422 368.5 c 128,-1,30
 453 342 453 342 459.5 305.5 c 128,-1,31
 466 269 466 269 451.5 227 c 128,-1,32
 437 185 437 185 404 150 c 128,-1,33
 371 115 371 115 320.5 90.5 c 128,-1,34
 270 66 270 66 207 65 c 0,35,36
 160 64 160 64 120.5 79 c 128,-1,37
 81 94 81 94 54.5 119.5 c 128,-1,38
 28 145 28 145 16.5 178 c 128,-1,39
 5 211 5 211 14.5 245 c 128,-1,40
 24 279 24 279 55.5 311 c 128,-1,41
 87 343 87 343 147 367 c 1,42,43
 108 378 108 378 84.5 403 c 128,-1,44
 61 428 61 428 52.5 459 c 128,-1,45
 44 490 44 490 50 523.5 c 128,-1,46
 56 557 56 557 77 585 c 128,-1,47
 98 613 98 613 133 632 c 128,-1,48
 168 651 168 651 218 654 c 0,49,50
 258 657 258 657 289.5 645 c 128,-1,51
 321 633 321 633 342.5 612 c 128,-1,52
 364 591 364 591 375 563 c 128,-1,53
 386 535 386 535 385.5 505.5 c 128,-1,54
 385 476 385 476 373 447.5 c 128,-1,55
 361 419 361 419 335 399 c 1,28,29
EndSplineSet
EndChar
StartChar: nine
Encoding: 57 57 25
Width: 404
GlyphClass: 2
Flags: W
LayerCount: 2
Fore
SplineSet
218 397 m 0,0,1
 246 402 246 402 259.5 422.5 c 128,-1,2
 273 443 273 443 274.5 470.5 c 128,-1,3
 276 498 276 498 267 526.5 c 128,-1,4
 258 555 258 555 239 577 c 128,-1,5
 220 599 220 599 193 610.5 c 128,-1,6
 166 622 166 622 131 613 c 0,7,8
 104 607 104 607 90 586 c 128,-1,9
 76 565 76 565 73 539 c 128,-1,10
 70 513 70 513 78 484.5 c 128,-1,11
 86 456 86 456 104.5 434 c 128,-1,12
 123 412 123 412 151.5 400.5 c 128,-1,13
 180 389 180 389 218 397 c 0,0,1
357 451 m 0,14,15
 357 408 357 408 346.5 368.5 c 128,-1,16
 336 329 336 329 318.5 293 c 128,-1,17
 301 257 301 257 278 226 c 128,-1,18
 255 195 255 195 231 168 c 0,19,20
 175 106 175 106 103 55 c 1,21,-1
 55 121 l 1,22,23
 113 161 113 161 160 202 c 0,24,25
 179 219 179 219 198 239 c 128,-1,26
 217 259 217 259 232 280 c 128,-1,27
 247 301 247 301 256 322 c 128,-1,28
 265 343 265 343 266 364 c 1,29,30
 207 339 207 339 160.5 345 c 128,-1,31
 114 351 114 351 81 372.5 c 128,-1,32
 48 394 48 394 30 423.5 c 128,-1,33
 12 453 12 453 9 474 c 0,34,35
 4 514 4 514 10 551 c 128,-1,36
 16 588 16 588 35 616 c 128,-1,37
 54 644 54 644 87 661 c 128,-1,38
 120 678 120 678 169 678 c 0,39,40
 204 676 204 676 224.5 669.5 c 128,-1,41
 245 663 245 663 268 649 c 128,-1,42
 291 635 291 635 310.5 610 c 128,-1,43
 330 585 330 585 343 546 c 128,-1,44
 356 507 356 507 357 451 c 0,14,15
EndSplineSet
EndChar
StartChar: colon
Encoding: 58 58 26
Width: 176
GlyphClass: 2
Flags: W
LayerCount: 2
Fore
SplineSet
44 475 m 0,0,1
 27 489 27 489 23.5 510 c 128,-1,2
 20 531 20 531 31 552 c 0,3,4
 43 568 43 568 62.5 572.5 c 128,-1,5
 82 577 82 577 99 566 c 0,6,7
 117 552 117 552 120 531 c 128,-1,8
 123 510 123 510 112 489 c 0,9,10
 101 470 101 470 80 467.5 c 128,-1,11
 59 465 59 465 44 475 c 0,0,1
94 223 m 0,12,13
 111 209 111 209 115.5 184.5 c 128,-1,14
 120 160 120 160 109 138 c 0,15,16
 96 119 96 119 73 115 c 128,-1,17
 50 111 50 111 31 126 c 0,18,19
 11 139 11 139 7 164 c 128,-1,20
 3 189 3 189 14 211 c 0,21,22
 28 230 28 230 51 234 c 128,-1,23
 74 238 74 238 94 223 c 0,12,13
EndSplineSet
EndChar
StartChar: semicolon
Encoding: 59 59 27
AltUni2: 00037e.ffffffff.0
Width: 164
GlyphClass: 2
Flags: W
LayerCount: 2
Fore
SplineSet
63 -27 m 1,0,-1
 26 -27 l 1,1,-1
 26 152 l 1,2,-1
 97 148 l 1,3,-1
 63 -27 l 1,0,-1
27 477 m 0,4,5
 11 487 11 487 7 508 c 128,-1,6
 3 529 3 529 16 548 c 0,7,8
 26 567 26 567 48 569.5 c 128,-1,9
 70 572 70 572 87 560 c 128,-1,10
 104 548 104 548 109 527.5 c 128,-1,11
 114 507 114 507 102 489 c 0,12,13
 90 470 90 470 68.5 466.5 c 128,-1,14
 47 463 47 463 27 477 c 0,4,5
EndSplineSet
EndChar
StartChar: less
Encoding: 60 60 28
Width: 334
GlyphClass: 2
Flags: W
LayerCount: 2
Fore
SplineSet
253 526 m 1,0,-1
 282 463 l 1,1,-1
 59 368 l 1,2,-1
 233 231 l 1,3,-1
 215 191 l 1,4,-1
 -1 372 l 1,5,-1
 253 526 l 1,0,-1
EndSplineSet
EndChar
StartChar: equal
Encoding: 61 61 29
Width: 429
GlyphClass: 2
Flags: W
LayerCount: 2
Fore
SplineSet
373 407 m 1,0,-1
 377 361 l 1,1,-1
 12 376 l 1,2,-1
 16 457 l 1,3,-1
 373 407 l 1,0,-1
5 264 m 1,4,-1
 1 310 l 1,5,-1
 366 327 l 1,6,-1
 366 249 l 1,7,-1
 5 264 l 1,4,-1
EndSplineSet
EndChar
StartChar: greater
Encoding: 62 62 30
Width: 342
GlyphClass: 2
Flags: W
LayerCount: 2
Fore
SplineSet
294 373 m 1,0,-1
 69 185 l 1,1,-1
 49 227 l 1,2,-1
 231 369 l 1,3,-1
 -1 468 l 1,4,-1
 29 534 l 1,5,-1
 294 373 l 1,0,-1
EndSplineSet
EndChar
StartChar: question
Encoding: 63 63 31
Width: 471
GlyphClass: 2
Flags: W
LayerCount: 2
Fore
SplineSet
159 108 m 0,0,1
 171 100 171 100 171 79.5 c 128,-1,2
 171 59 171 59 159 43 c 0,3,4
 145 25 145 25 127 17.5 c 128,-1,5
 109 10 109 10 95 24 c 0,6,7
 84 32 84 32 84 51.5 c 128,-1,8
 84 71 84 71 96 88 c 0,9,10
 110 107 110 107 128.5 113.5 c 128,-1,11
 147 120 147 120 159 108 c 0,0,1
414 577 m 0,12,13
 423 541 423 541 416.5 512 c 128,-1,14
 410 483 410 483 392 459.5 c 128,-1,15
 374 436 374 436 348.5 418 c 128,-1,16
 323 400 323 400 294 387 c 0,17,18
 227 355 227 355 135 338 c 1,19,-1
 151 174 l 1,20,-1
 100 172 l 1,21,-1
 100 379 l 1,22,23
 181 390 181 390 239 415 c 0,24,25
 264 425 264 425 285 439.5 c 128,-1,26
 306 454 306 454 320 472 c 128,-1,27
 334 490 334 490 337 514 c 128,-1,28
 340 538 340 538 328 566 c 0,29,30
 317 593 317 593 298 608.5 c 128,-1,31
 279 624 279 624 255.5 630 c 128,-1,32
 232 636 232 636 206.5 635 c 128,-1,33
 181 634 181 634 157 630 c 0,34,35
 99 619 99 619 33 587 c 1,36,-1
 1 672 l 1,37,38
 23 684 23 684 57.5 695 c 128,-1,39
 92 706 92 706 133.5 711.5 c 128,-1,40
 175 717 175 717 218.5 714.5 c 128,-1,41
 262 712 262 712 301 697 c 128,-1,42
 340 682 340 682 370 653.5 c 128,-1,43
 400 625 400 625 414 577 c 0,12,13
EndSplineSet
EndChar
StartChar: at
Encoding: 64 64 32
Width: 614
GlyphClass: 2
Flags: W
LayerCount: 2
Fore
SplineSet
289 307 m 0,0,1
 307 303 307 303 322 316.5 c 128,-1,2
 337 330 337 330 345.5 351.5 c 128,-1,3
 354 373 354 373 357 399 c 128,-1,4
 360 425 360 425 356 447.5 c 128,-1,5
 352 470 352 470 341.5 485 c 128,-1,6
 331 500 331 500 311 500 c 0,7,8
 293 501 293 501 278.5 488.5 c 128,-1,9
 264 476 264 476 255 456 c 128,-1,10
 246 436 246 436 241.5 412 c 128,-1,11
 237 388 237 388 240.5 366 c 128,-1,12
 244 344 244 344 255.5 328 c 128,-1,13
 267 312 267 312 289 307 c 0,0,1
353 654 m 1,14,15
 409 641 409 641 441 625 c 128,-1,16
 473 609 473 609 500 582 c 128,-1,17
 527 555 527 555 544.5 514.5 c 128,-1,18
 562 474 562 474 562 415 c 1,19,20
 558 366 558 366 542.5 339 c 128,-1,21
 527 312 527 312 507.5 298.5 c 128,-1,22
 488 285 488 285 473 282 c 128,-1,23
 458 279 458 279 454 279 c 1,24,25
 458 278 458 278 451.5 276.5 c 128,-1,26
 445 275 445 275 433.5 278.5 c 128,-1,27
 422 282 422 282 406.5 289.5 c 128,-1,28
 391 297 391 297 379 313 c 1,29,30
 376 303 376 303 366 294 c 128,-1,31
 356 285 356 285 347 276 c 128,-1,32
 338 267 338 267 322 262 c 128,-1,33
 306 257 306 257 282 257 c 0,34,35
 263 257 263 257 241.5 269 c 128,-1,36
 220 281 220 281 203.5 301.5 c 128,-1,37
 187 322 187 322 180 351 c 128,-1,38
 173 380 173 380 182 415 c 0,39,40
 185 433 185 433 196 455 c 128,-1,41
 207 477 207 477 225 496.5 c 128,-1,42
 243 516 243 516 268 529 c 128,-1,43
 293 542 293 542 327 541 c 0,44,45
 359 539 359 539 374 522 c 128,-1,46
 389 505 389 505 396 481 c 128,-1,47
 403 457 403 457 405.5 429 c 128,-1,48
 408 401 408 401 412 378.5 c 128,-1,49
 416 356 416 356 424 340.5 c 128,-1,50
 432 325 432 325 454 327 c 0,51,52
 478 327 478 327 493.5 348 c 128,-1,53
 509 369 509 369 513 399.5 c 128,-1,54
 517 430 517 430 509.5 466.5 c 128,-1,55
 502 503 502 503 478.5 534.5 c 128,-1,56
 455 566 455 566 414 588 c 128,-1,57
 373 610 373 610 311 612 c 0,58,59
 257 614 257 614 218.5 599 c 128,-1,60
 180 584 180 584 155 560 c 128,-1,61
 130 536 130 536 115 506.5 c 128,-1,62
 100 477 100 477 93 450 c 128,-1,63
 86 423 86 423 83.5 402 c 128,-1,64
 81 381 81 381 81 376 c 0,65,66
 80 354 80 354 86.5 324 c 128,-1,67
 93 294 93 294 108 263.5 c 128,-1,68
 123 233 123 233 148 207 c 128,-1,69
 173 181 173 181 210.5 167.5 c 128,-1,70
 248 154 248 154 298.5 155 c 128,-1,71
 349 156 349 156 416 182 c 1,72,-1
 438 126 l 1,73,74
 425 118 425 118 388 108.5 c 128,-1,75
 351 99 351 99 302.5 98 c 128,-1,76
 254 97 254 97 202 107.5 c 128,-1,77
 150 118 150 118 105 147.5 c 128,-1,78
 60 177 60 177 31.5 231.5 c 128,-1,79
 3 286 3 286 2 372 c 0,80,81
 3 438 3 438 22.5 486 c 128,-1,82
 42 534 42 534 71.5 566 c 128,-1,83
 101 598 101 598 137 617.5 c 128,-1,84
 173 637 173 637 200.5 644.5 c 128,-1,85
 228 652 228 652 261.5 656 c 128,-1,86
 295 660 295 660 353 654 c 1,14,15
EndSplineSet
EndChar
StartChar: A
Encoding: 65 65 33
AltUni2: 000410.ffffffff.0 000391.ffffffff.0
Width: 645
GlyphClass: 2
Flags: W
AnchorPoint: "bottomatt" 314 -10 basechar 0
AnchorPoint: "bottomattside" 561 19 basechar 0
AnchorPoint: "bottom" 297 -10 basechar 0
AnchorPoint: "top" 259 733 basechar 0
LayerCount: 2
Fore
SplineSet
5 19 m 1,0,-1
 238 712 l 1,1,-1
 289 714 l 1,2,-1
 605 36 l 1,3,-1
 525 4 l 1,4,-1
 396 296 l 1,5,-1
 163 295 l 1,6,-1
 66 0 l 1,7,-1
 5 19 l 1,0,-1
377 340 m 1,8,-1
 256 614 l 1,9,-1
 172 337 l 1,10,-1
 377 340 l 1,8,-1
EndSplineSet
EndChar
StartChar: B
Encoding: 66 66 34
AltUni2: 000412.ffffffff.0 000392.ffffffff.0
Width: 522
GlyphClass: 2
Flags: W
AnchorPoint: "bottomatt" 259 41 basechar 0
AnchorPoint: "bottomattside" 276 38 basechar 0
AnchorPoint: "bottom" 236 -10 basechar 0
AnchorPoint: "top" 164 748 basechar 0
LayerCount: 2
Fore
SplineSet
68 97 m 1,0,1
 90 95 90 95 127.5 94.5 c 128,-1,2
 165 94 165 94 204 98.5 c 128,-1,3
 243 103 243 103 279.5 114.5 c 128,-1,4
 316 126 316 126 344 146.5 c 128,-1,5
 372 167 372 167 386 199 c 128,-1,6
 400 231 400 231 395 278 c 0,7,8
 389 315 389 315 363 336.5 c 128,-1,9
 337 358 337 358 299 369.5 c 128,-1,10
 261 381 261 381 218.5 384 c 128,-1,11
 176 387 176 387 139 386 c 128,-1,12
 102 385 102 385 82 383 c 2,13,-1
 61 380 l 1,14,-1
 68 97 l 1,0,1
322 563 m 0,15,16
 325 602 325 602 306.5 623.5 c 128,-1,17
 288 645 288 645 258 656 c 128,-1,18
 228 667 228 667 193.5 669 c 128,-1,19
 159 671 159 671 128 668.5 c 128,-1,20
 97 666 97 666 79 662 c 128,-1,21
 61 658 61 658 60 657 c 2,22,-1
 63 441 l 1,23,24
 128 435 128 435 184 446 c 0,25,26
 209 450 209 450 232.5 459 c 128,-1,27
 256 468 256 468 275 482 c 128,-1,28
 294 496 294 496 307 515.5 c 128,-1,29
 320 535 320 535 322 563 c 0,15,16
470 237 m 0,30,31
 471 189 471 189 452 154 c 128,-1,32
 433 119 433 119 400.5 94.5 c 128,-1,33
 368 70 368 70 325.5 53.5 c 128,-1,34
 283 37 283 37 239 28 c 0,35,36
 135 5 135 5 0 8 c 1,37,-1
 0 701 l 1,38,39
 5 704 5 704 37.5 709 c 128,-1,40
 70 714 70 714 114 716.5 c 128,-1,41
 158 719 158 719 208.5 714.5 c 128,-1,42
 259 710 259 710 302 692 c 128,-1,43
 345 674 345 674 373.5 643 c 128,-1,44
 402 612 402 612 403 563 c 0,45,46
 403 514 403 514 385 485.5 c 128,-1,47
 367 457 367 457 345 442 c 0,48,49
 319 425 319 425 288 421 c 1,50,51
 337 413 337 413 377 390 c 0,52,53
 393 381 393 381 409.5 367 c 128,-1,54
 426 353 426 353 439.5 334 c 128,-1,55
 453 315 453 315 461 291.5 c 128,-1,56
 469 268 469 268 470 237 c 0,30,31
EndSplineSet
EndChar
StartChar: C
Encoding: 67 67 35
AltUni2: 000421.ffffffff.0
Width: 633
GlyphClass: 2
Flags: W
AnchorPoint: "bottomatt" 370 32 basechar 0
AnchorPoint: "bottomattside" 545 12 basechar 0
AnchorPoint: "bottom" 353 -20 basechar 0
AnchorPoint: "top" 319 743 basechar 0
LayerCount: 2
Fore
SplineSet
595 697 m 1,0,-1
 595 607 l 1,1,2
 472 635 472 635 370 626 c 0,3,4
 326 622 326 622 282 609.5 c 128,-1,5
 238 597 238 597 200 572 c 128,-1,6
 162 547 162 547 132.5 507 c 128,-1,7
 103 467 103 467 90 408 c 0,8,9
 83 374 83 374 81.5 333 c 128,-1,10
 80 292 80 292 91.5 251 c 128,-1,11
 103 210 103 210 131.5 173 c 128,-1,12
 160 136 160 136 212 109.5 c 128,-1,13
 264 83 264 83 343 71 c 128,-1,14
 422 59 422 59 535 70 c 1,15,-1
 541 41 l 2,16,17
 543 30 543 30 544.5 20.5 c 128,-1,18
 546 11 546 11 545 10 c 0,19,20
 491 4 491 4 424 5.5 c 128,-1,21
 357 7 357 7 290.5 22.5 c 128,-1,22
 224 38 224 38 164 69.5 c 128,-1,23
 104 101 104 101 65.5 156.5 c 128,-1,24
 27 212 27 212 15.5 294 c 128,-1,25
 4 376 4 376 33 490 c 1,26,27
 52 549 52 549 87 589.5 c 128,-1,28
 122 630 122 630 165 655.5 c 128,-1,29
 208 681 208 681 256.5 694 c 128,-1,30
 305 707 305 707 353 712 c 0,31,32
 465 723 465 723 595 697 c 1,0,-1
EndSplineSet
EndChar
StartChar: D
Encoding: 68 68 36
Width: 746
GlyphClass: 2
Flags: W
AnchorPoint: "bottomatt" 351 13 basechar 0
AnchorPoint: "bottomattside" 425 22 basechar 0
AnchorPoint: "bottom" 343 -31 basechar 0
AnchorPoint: "top" 348 697 basechar 0
LayerCount: 2
Fore
SplineSet
88 54 m 1,0,1
 221 44 221 44 347 67 c 0,2,3
 400 76 400 76 447.5 94 c 128,-1,4
 495 112 495 112 532.5 140.5 c 128,-1,5
 570 169 570 169 587 211 c 128,-1,6
 604 253 604 253 610 311 c 1,7,8
 607 373 607 373 589.5 418.5 c 128,-1,9
 572 464 572 464 538.5 494.5 c 128,-1,10
 505 525 505 525 460 544 c 128,-1,11
 415 563 415 563 360 573 c 0,12,13
 233 597 233 597 96 586 c 1,14,-1
 88 54 l 1,0,1
720 318 m 1,15,16
 716 241 716 241 683 187 c 128,-1,17
 650 133 650 133 598.5 96 c 128,-1,18
 547 59 547 59 483 37.5 c 128,-1,19
 419 16 419 16 352 6 c 0,20,21
 196 -20 196 -20 0 1 c 1,22,-1
 0 675 l 1,23,24
 201 691 201 691 358 662 c 0,25,26
 426 650 426 650 490.5 625 c 128,-1,27
 555 600 555 600 605.5 559.5 c 128,-1,28
 656 519 656 519 687.5 460 c 128,-1,29
 719 401 719 401 720 318 c 1,15,16
EndSplineSet
EndChar
StartChar: E
Encoding: 69 69 37
AltUni2: 000415.ffffffff.0 000395.ffffffff.0
Width: 447
GlyphClass: 2
Flags: W
AnchorPoint: "bottomatt" 236 7 basechar 0
AnchorPoint: "bottomattside" 409 4 basechar 0
AnchorPoint: "bottom" 200 -31 basechar 0
AnchorPoint: "top" 236 736 basechar 0
LayerCount: 2
Fore
SplineSet
0 707 m 5,0,-1
 421 716 l 5,1,-1
 421 627 l 1,2,-1
 59 630 l 1,3,-1
 62 385 l 1,4,-1
 359 402 l 1,5,-1
 360 326 l 1,6,-1
 67 321 l 1,7,-1
 70 53 l 1,8,-1
 403 69 l 1,9,-1
 406 0 l 1,10,-1
 0 0 l 1,11,-1
 0 707 l 5,0,-1
EndSplineSet
EndChar
StartChar: F
Encoding: 70 70 38
Width: 410
GlyphClass: 2
Flags: W
AnchorPoint: "bottomatt" 72 10 basechar 0
AnchorPoint: "bottomattside" 36 6 basechar 0
AnchorPoint: "bottom" 189 -5 basechar 0
AnchorPoint: "top" 215 737 basechar 0
LayerCount: 2
Fore
SplineSet
0 9 m 5,0,-1
 9 716 l 5,1,-1
 370 714 l 5,2,-1
 370 650 l 5,3,-1
 61 662 l 5,4,-1
 68 436 l 5,5,-1
 307 445 l 5,6,-1
 305 359 l 5,7,-1
 74 368 l 5,8,-1
 86 -1 l 5,9,-1
 1 2 l 5,10,-1
 0 9 l 5,0,-1
EndSplineSet
EndChar
StartChar: G
Encoding: 71 71 39
Width: 656
GlyphClass: 2
Flags: W
AnchorPoint: "bottomatt" 423 10 basechar 0
AnchorPoint: "bottomattside" 605 28 basechar 0
AnchorPoint: "bottom" 384 -31 basechar 0
AnchorPoint: "top" 399 758 basechar 0
LayerCount: 2
Fore
SplineSet
608 643 m 1,0,1
 464 661 464 661 352 639 c 0,2,3
 304 630 304 630 259 610.5 c 128,-1,4
 214 591 214 591 178.5 557.5 c 128,-1,5
 143 524 143 524 122 475 c 128,-1,6
 101 426 101 426 103 356 c 0,7,8
 103 282 103 282 122 232 c 128,-1,9
 141 182 141 182 173 150 c 128,-1,10
 205 118 205 118 245 102 c 128,-1,11
 285 86 285 86 327 80 c 0,12,13
 425 67 425 67 551 98 c 1,14,-1
 548 201 l 1,15,-1
 333 187 l 1,16,-1
 335 258 l 1,17,-1
 605 257 l 1,18,-1
 605 28 l 1,19,20
 428 -10 428 -10 294 10 c 0,21,22
 237 19 237 19 183 42 c 128,-1,23
 129 65 129 65 89 107.5 c 128,-1,24
 49 150 49 150 27.5 216.5 c 128,-1,25
 6 283 6 283 14 379 c 0,26,27
 24 460 24 460 55 516.5 c 128,-1,28
 86 573 86 573 130 610.5 c 128,-1,29
 174 648 174 648 227 669.5 c 128,-1,30
 280 691 280 691 333 700 c 0,31,32
 458 723 458 723 611 696 c 1,33,-1
 608 643 l 1,0,1
EndSplineSet
EndChar
StartChar: H
Encoding: 72 72 40
AltUni2: 00041d.ffffffff.0 000397.ffffffff.0
Width: 696
GlyphClass: 2
Flags: W
AnchorPoint: "bottomatt" 338 17 basechar 0
AnchorPoint: "bottomattside" 577 16 basechar 0
AnchorPoint: "bottom" 307 -31 basechar 0
AnchorPoint: "top" 317 717 basechar 0
LayerCount: 2
Fore
SplineSet
0 717 m 1,0,-1
 78 713 l 1,1,-1
 85 282 l 1,2,-1
 539 291 l 1,3,-1
 535 711 l 1,4,-1
 595 711 l 1,5,-1
 614 13 l 1,6,-1
 542 12 l 1,7,-1
 539 218 l 1,8,-1
 87 216 l 1,9,-1
 90 0 l 1,10,-1
 0 0 l 1,11,-1
 0 717 l 1,0,-1
EndSplineSet
EndChar
StartChar: I
Encoding: 73 73 41
AltUni2: 000406.ffffffff.0 000399.ffffffff.0
Width: 245
GlyphClass: 2
Flags: W
AnchorPoint: "bottomatt" 113 7 basechar 0
AnchorPoint: "bottomattside" 89 5 basechar 0
AnchorPoint: "bottom" 82 -31 basechar 0
AnchorPoint: "top" 114 753 basechar 0
LayerCount: 2
Fore
SplineSet
76 717 m 1,0,-1
 159 716 l 1,1,-1
 121 0 l 1,2,-1
 54 1 l 1,3,-1
 76 717 l 1,0,-1
EndSplineSet
EndChar
StartChar: J
Encoding: 74 74 42
Width: 522
GlyphClass: 2
Flags: W
AnchorPoint: "bottomatt" 256 10 basechar 0
AnchorPoint: "top" 392 736 basechar 0
AnchorPoint: "bottomattside" 354 44 basechar 0
AnchorPoint: "bottom" 215 -31 basechar 0
LayerCount: 2
Fore
SplineSet
346 714 m 1,0,-1
 441 715 l 1,1,2
 442 688 442 688 444 655 c 0,3,4
 448 553 448 553 449 510 c 0,5,6
 452 414 452 414 450.5 322 c 128,-1,7
 449 230 449 230 425 158.5 c 128,-1,8
 401 87 401 87 354 43.5 c 128,-1,9
 307 0 307 0 226 0 c 0,10,11
 187 0 187 0 151.5 7 c 128,-1,12
 116 14 116 14 86 25.5 c 128,-1,13
 56 37 56 37 34 49.5 c 128,-1,14
 12 62 12 62 0 74 c 0,15,16
 0 76 0 76 32 121 c 1,17,18
 58 98 58 98 91 81 c 0,19,20
 120 67 120 67 160 56 c 128,-1,21
 200 45 200 45 251 50 c 0,22,23
 290 53 290 53 316.5 81 c 128,-1,24
 343 109 343 109 359.5 156.5 c 128,-1,25
 376 204 376 204 378.5 269 c 128,-1,26
 381 334 381 334 376 412 c 2,27,-1
 346 714 l 1,0,-1
EndSplineSet
EndChar
StartChar: K
Encoding: 75 75 43
AltUni2: 00041a.ffffffff.0 00039a.ffffffff.0
Width: 541
GlyphClass: 2
Flags: W
AnchorPoint: "bottomatt" 263 17 basechar 0
AnchorPoint: "bottomattside" 463 49 basechar 0
AnchorPoint: "bottom" 251 -5 basechar 0
AnchorPoint: "top" 236 717 basechar 0
LayerCount: 2
Fore
SplineSet
0 714 m 1,0,-1
 69 716 l 1,1,-1
 69 421 l 1,2,-1
 393 708 l 1,3,-1
 451 643 l 1,4,-1
 113 381 l 1,5,-1
 500 104 l 1,6,-1
 450 27 l 1,7,-1
 75 341 l 1,8,-1
 81 4 l 1,9,-1
 18 1 l 1,10,-1
 0 714 l 1,0,-1
EndSplineSet
EndChar
StartChar: L
Encoding: 76 76 44
Width: 565
GlyphClass: 2
Flags: W
AnchorPoint: "bottomatt" 294 10 basechar 0
AnchorPoint: "bottomattside" 505 7 basechar 0
AnchorPoint: "bottom" 256 -31 basechar 0
AnchorPoint: "top" 59 739 basechar 0
LayerCount: 2
Fore
SplineSet
20 715 m 1,0,-1
 95 711 l 1,1,-1
 92 69 l 1,2,-1
 507 99 l 1,3,-1
 505 3 l 1,4,-1
 22 0 l 1,5,-1
 20 715 l 1,0,-1
EndSplineSet
EndChar
StartChar: M
Encoding: 77 77 45
AltUni2: 00041c.ffffffff.0 00039c.ffffffff.0
Width: 781
GlyphClass: 2
Flags: W
AnchorPoint: "bottomatt" 389 34 basechar 0
AnchorPoint: "bottomattside" 664 12 basechar 0
AnchorPoint: "bottom" 353 -46 basechar 0
AnchorPoint: "top" 358 717 basechar 0
LayerCount: 2
Fore
SplineSet
20 0 m 1,0,-1
 20 717 l 1,1,-1
 67 717 l 1,2,-1
 365 115 l 1,3,-1
 624 713 l 1,4,-1
 698 713 l 1,5,-1
 722 8 l 1,6,-1
 629 8 l 1,7,-1
 626 578 l 1,8,-1
 376 -3 l 1,9,-1
 339 5 l 1,10,-1
 74 556 l 1,11,-1
 92 -1 l 1,12,-1
 20 0 l 1,0,-1
EndSplineSet
EndChar
StartChar: N
Encoding: 78 78 46
AltUni2: 00039d.ffffffff.0
Width: 766
GlyphClass: 2
Flags: W
AnchorPoint: "bottomatt" 399 20 basechar 0
AnchorPoint: "bottomattside" 685 13 basechar 0
AnchorPoint: "bottom" 358 5 basechar 0
AnchorPoint: "top" 374 712 basechar 0
LayerCount: 2
Fore
SplineSet
20 0 m 1,0,-1
 20 717 l 1,1,-1
 67 717 l 1,2,-1
 644 118 l 1,3,-1
 638 711 l 1,4,-1
 712 708 l 1,5,-1
 709 10 l 1,6,-1
 650 9 l 1,7,-1
 81 586 l 1,8,-1
 89 0 l 1,9,-1
 20 0 l 1,0,-1
EndSplineSet
EndChar
StartChar: O
Encoding: 79 79 47
AltUni2: 00041e.ffffffff.0 00039f.ffffffff.0
Width: 870
GlyphClass: 2
Flags: W
AnchorPoint: "topattright" 631 673 basechar 0
AnchorPoint: "bottomatt" 443 7 basechar 0
AnchorPoint: "bottomattside" 549 10 basechar 0
AnchorPoint: "bottom" 420 -31 basechar 0
AnchorPoint: "top" 425 748 basechar 0
LayerCount: 2
Fore
SplineSet
406 40 m 4,0,1
 463 39 463 39 524 57 c 132,-1,2
 585 75 585 75 629 113.5 c 132,-1,3
 673 152 673 152 706 221.5 c 132,-1,4
 739 291 739 291 736 393 c 4,5,6
 731 452 731 452 710.5 499.5 c 132,-1,7
 690 547 690 547 668 575 c 132,-1,8
 646 603 646 603 614 624 c 132,-1,9
 582 645 582 645 551 657.5 c 132,-1,10
 520 670 520 670 454 677 c 5,11,12
 386 680 386 680 321 661.5 c 132,-1,13
 256 643 256 643 204.5 593 c 132,-1,14
 153 543 153 543 126.5 468.5 c 132,-1,15
 100 394 100 394 102 316 c 4,16,17
 104 244 104 244 133 192 c 132,-1,18
 162 140 162 140 200.5 107.5 c 132,-1,19
 239 75 239 75 294.5 58.5 c 132,-1,20
 350 42 350 42 406 40 c 4,0,1
425 724 m 4,21,22
 458 724 458 724 498.5 718.5 c 132,-1,23
 539 713 539 713 582.5 698 c 132,-1,24
 626 683 626 683 665.5 658 c 132,-1,25
 705 633 705 633 740.5 593 c 132,-1,26
 776 553 776 553 799 495 c 132,-1,27
 822 437 822 437 823 360 c 4,28,29
 820 255 820 255 780 185.5 c 132,-1,30
 740 116 740 116 680.5 72.5 c 132,-1,31
 621 29 621 29 548.5 10 c 132,-1,32
 476 -9 476 -9 410 -9 c 4,33,34
 374 -9 374 -9 329 -4 c 132,-1,35
 284 1 284 1 237.5 17.5 c 132,-1,36
 191 34 191 34 150 62.5 c 132,-1,37
 109 91 109 91 75 131.5 c 132,-1,38
 41 172 41 172 22.5 223.5 c 132,-1,39
 4 275 4 275 8 357 c 4,40,41
 13 433 13 433 37.5 490 c 132,-1,42
 62 547 62 547 99 588 c 132,-1,43
 136 629 136 629 177.5 655 c 132,-1,44
 219 681 219 681 263.5 697.5 c 132,-1,45
 308 714 308 714 349.5 719.5 c 132,-1,46
 391 725 391 725 425 724 c 4,21,22
EndSplineSet
EndChar
StartChar: P
Encoding: 80 80 48
AltUni2: 000420.ffffffff.0 0003a1.ffffffff.0
Width: 540
GlyphClass: 2
Flags: W
AnchorPoint: "bottomatt" 89 13 basechar 0
AnchorPoint: "bottomattside" 62 4 basechar 0
AnchorPoint: "bottom" 210 -5 basechar 0
AnchorPoint: "top" 256 742 basechar 0
LayerCount: 2
Fore
SplineSet
95 358 m 1,0,1
 191 355 191 355 267 371 c 0,2,3
 299 377 299 377 322 387.5 c 128,-1,4
 345 398 345 398 363.5 415 c 128,-1,5
 382 432 382 432 396.5 456 c 128,-1,6
 411 480 411 480 411 513 c 0,7,8
 411 548 411 548 397 572 c 128,-1,9
 383 596 383 596 363.5 612 c 128,-1,10
 344 628 344 628 321 636.5 c 128,-1,11
 298 645 298 645 264 649 c 0,12,13
 185 658 185 658 87 646 c 1,14,-1
 95 358 l 1,0,1
498 539 m 0,15,16
 502 479 502 479 476.5 437 c 128,-1,17
 451 395 451 395 413 367.5 c 128,-1,18
 375 340 375 340 328.5 324.5 c 128,-1,19
 282 309 282 309 237.5 301 c 128,-1,20
 193 293 193 293 154.5 291.5 c 128,-1,21
 116 290 116 290 95 290 c 1,22,-1
 94 0 l 1,23,-1
 61 0 l 0,24,-1
 28 0 l 1,25,-1
 8 711 l 1,26,27
 39 712 39 712 86.5 714.5 c 128,-1,28
 134 717 134 717 188 715.5 c 128,-1,29
 242 714 242 714 295.5 706 c 128,-1,30
 349 698 349 698 392.5 678.5 c 128,-1,31
 436 659 436 659 465 624.5 c 128,-1,32
 494 590 494 590 498 539 c 0,15,16
EndSplineSet
EndChar
StartChar: Q
Encoding: 81 81 49
Width: 768
GlyphClass: 2
Flags: W
AnchorPoint: "bottomatt" 396 51 basechar 0
AnchorPoint: "bottomattside" 402 45 basechar 0
AnchorPoint: "bottom" 348 0 basechar 0
AnchorPoint: "top" 348 742 basechar 0
LayerCount: 2
Fore
SplineSet
393 90 m 0,0,1
 467 94 467 94 514 122.5 c 128,-1,2
 561 151 561 151 588 190 c 128,-1,3
 615 229 615 229 627 275 c 128,-1,4
 639 321 639 321 640 359 c 0,5,6
 641 397 641 397 635 431 c 128,-1,7
 629 465 629 465 613.5 500.5 c 128,-1,8
 598 536 598 536 573 569 c 128,-1,9
 548 602 548 602 511 627.5 c 128,-1,10
 474 653 474 653 424.5 667 c 128,-1,11
 375 681 375 681 310 677 c 0,12,13
 235 672 235 672 191 638.5 c 128,-1,14
 147 605 147 605 125.5 560 c 128,-1,15
 104 515 104 515 99.5 466.5 c 128,-1,16
 95 418 95 418 99 372 c 0,17,18
 101 341 101 341 109.5 308 c 128,-1,19
 118 275 118 275 133 243 c 128,-1,20
 148 211 148 211 171 182 c 128,-1,21
 194 153 194 153 226 131.5 c 128,-1,22
 258 110 258 110 299.5 98 c 128,-1,23
 341 86 341 86 393 90 c 0,0,1
725 45 m 1,24,-1
 680 -42 l 1,25,26
 570 -12 570 -12 507.5 4 c 128,-1,27
 445 20 445 20 414.5 28.5 c 128,-1,28
 384 37 384 37 376.5 39 c 128,-1,29
 369 41 369 41 368 41 c 0,30,31
 365 41 365 41 337 43 c 128,-1,32
 309 45 309 45 268.5 55 c 128,-1,33
 228 65 228 65 182 85 c 128,-1,34
 136 105 136 105 95.5 143 c 128,-1,35
 55 181 55 181 27.5 239 c 128,-1,36
 0 297 0 297 -2 393 c 1,37,38
 1 471 1 471 21.5 525.5 c 128,-1,39
 42 580 42 580 76 616.5 c 128,-1,40
 110 653 110 653 150.5 675.5 c 128,-1,41
 191 698 191 698 228 708.5 c 128,-1,42
 265 719 265 719 293 722 c 128,-1,43
 321 725 321 725 329 726 c 0,44,45
 342 726 342 726 374.5 725.5 c 128,-1,46
 407 725 407 725 448 717.5 c 128,-1,47
 489 710 489 710 534.5 690.5 c 128,-1,48
 580 671 580 671 618.5 634.5 c 128,-1,49
 657 598 657 598 688 540 c 128,-1,50
 719 482 719 482 723 396 c 0,51,52
 725 319 725 319 705.5 270 c 128,-1,53
 686 221 686 221 655.5 183.5 c 128,-1,54
 625 146 625 146 587.5 120.5 c 128,-1,55
 550 95 550 95 516 79 c 1,56,-1
 725 45 l 1,24,-1
EndSplineSet
EndChar
StartChar: R
Encoding: 82 82 50
Width: 563
GlyphClass: 2
Flags: W
AnchorPoint: "bottomatt" 351 38 basechar 0
AnchorPoint: "bottomattside" 348 20 basechar 0
AnchorPoint: "bottom" 200 -20 basechar 0
AnchorPoint: "top" 282 753 basechar 0
LayerCount: 2
Fore
SplineSet
91 375 m 1,0,1
 184 368 184 368 256 381 c 0,2,3
 287 387 287 387 316 397.5 c 128,-1,4
 345 408 345 408 368 425.5 c 128,-1,5
 391 443 391 443 405 468.5 c 128,-1,6
 419 494 419 494 419 529 c 0,7,8
 419 561 419 561 404.5 583.5 c 128,-1,9
 390 606 390 606 367 621.5 c 128,-1,10
 344 637 344 637 315 646 c 128,-1,11
 286 655 286 655 255 660 c 0,12,13
 183 671 183 671 91 666 c 1,14,-1
 91 375 l 1,0,1
20 711 m 1,15,16
 22 711 22 711 45 712.5 c 128,-1,17
 68 714 68 714 103 715 c 128,-1,18
 138 716 138 716 182 714.5 c 128,-1,19
 226 713 226 713 271.5 706.5 c 128,-1,20
 317 700 317 700 360.5 688 c 128,-1,21
 404 676 404 676 437.5 655 c 128,-1,22
 471 634 471 634 491 603.5 c 128,-1,23
 511 573 511 573 510 530 c 0,24,25
 509 490 509 490 493 459.5 c 128,-1,26
 477 429 477 429 452 406 c 128,-1,27
 427 383 427 383 396 367 c 128,-1,28
 365 351 365 351 332 341 c 0,29,30
 255 316 255 316 159 312 c 1,31,-1
 392 50 l 1,32,-1
 324 2 l 1,33,-1
 93 305 l 1,34,-1
 99 4 l 1,35,-1
 32 6 l 1,36,-1
 20 711 l 1,15,16
EndSplineSet
EndChar
StartChar: S
Encoding: 83 83 51
Width: 441
GlyphClass: 2
Flags: W
AnchorPoint: "bottomatt" 249 20 basechar 0
AnchorPoint: "bottomattside" 299 26 basechar 0
AnchorPoint: "bottom" 211 -30 basechar 0
AnchorPoint: "top" 225 758 basechar 0
LayerCount: 2
Fore
SplineSet
74 142 m 1,0,1
 80 135 80 135 94.5 123.5 c 128,-1,2
 109 112 109 112 127 100 c 128,-1,3
 145 88 145 88 167 78.5 c 128,-1,4
 189 69 189 69 211 65 c 128,-1,5
 233 61 233 61 253 66 c 128,-1,6
 273 71 273 71 289 88 c 0,7,8
 307 110 307 110 301.5 134.5 c 128,-1,9
 296 159 296 159 276 187.5 c 128,-1,10
 256 216 256 216 225 248 c 128,-1,11
 194 280 194 280 160 314.5 c 128,-1,12
 126 349 126 349 93.5 387 c 128,-1,13
 61 425 61 425 39.5 465.5 c 128,-1,14
 18 506 18 506 10.5 548.5 c 128,-1,15
 3 591 3 591 18 636 c 0,16,17
 29 670 29 670 62 688 c 128,-1,18
 95 706 95 706 136.5 712 c 128,-1,19
 178 718 178 718 223.5 716 c 128,-1,20
 269 714 269 714 307 708.5 c 128,-1,21
 345 703 345 703 369 697 c 128,-1,22
 393 691 393 691 393 690 c 2,23,-1
 390 618 l 2,24,25
 390 617 390 617 372.5 624.5 c 128,-1,26
 355 632 355 632 328 640 c 128,-1,27
 301 648 301 648 267.5 654 c 128,-1,28
 234 660 234 660 202 658 c 128,-1,29
 170 656 170 656 143.5 643.5 c 128,-1,30
 117 631 117 631 102 600 c 0,31,32
 85 562 85 562 94.5 523 c 128,-1,33
 104 484 104 484 129.5 445 c 128,-1,34
 155 406 155 406 191 366.5 c 128,-1,35
 227 327 227 327 263 289.5 c 128,-1,36
 299 252 299 252 329 216.5 c 128,-1,37
 359 181 359 181 373 149 c 128,-1,38
 387 117 387 117 379.5 89 c 128,-1,39
 372 61 372 61 332 39 c 0,40,41
 299 21 299 21 264.5 17 c 128,-1,42
 230 13 230 13 197 19 c 128,-1,43
 164 25 164 25 134.5 36.5 c 128,-1,44
 105 48 105 48 82.5 60.5 c 128,-1,45
 60 73 60 73 47.5 81.5 c 128,-1,46
 35 90 35 90 35 91 c 2,47,-1
 74 142 l 1,0,1
EndSplineSet
EndChar
StartChar: T
Encoding: 84 84 52
AltUni2: 000422.ffffffff.0 0003a4.ffffffff.0
Width: 644
GlyphClass: 2
Flags: W
AnchorPoint: "bottomatt" 345 7 basechar 0
AnchorPoint: "bottomattside" 307 4 basechar 0
AnchorPoint: "bottom" 326 -34 basechar 0
AnchorPoint: "top" 297 753 basechar 0
LayerCount: 2
Fore
SplineSet
0 715 m 1,0,-1
 612 708 l 1,1,-1
 606 647 l 1,2,-1
 319 653 l 1,3,-1
 374 7 l 1,4,-1
 272 0 l 1,5,-1
 256 657 l 1,6,-1
 3 663 l 1,7,-1
 0 715 l 1,0,-1
EndSplineSet
EndChar
StartChar: U
Encoding: 85 85 53
Width: 746
GlyphClass: 2
Flags: W
AnchorPoint: "topattright" 679 660 basechar 0
AnchorPoint: "bottomatt" 382 13 basechar 0
AnchorPoint: "bottomattside" 481 25 basechar 0
AnchorPoint: "bottom" 348 -36 basechar 0
AnchorPoint: "top" 333 712 basechar 0
LayerCount: 2
Fore
SplineSet
22 716 m 1,0,-1
 93 717 l 1,1,2
 86 533 86 533 99 386 c 0,3,4
 106 324 106 324 121 264.5 c 128,-1,5
 136 205 136 205 160.5 158 c 128,-1,6
 185 111 185 111 221 82.5 c 128,-1,7
 257 54 257 54 308 53 c 0,8,9
 404 52 404 52 463 81 c 128,-1,10
 522 110 522 110 551.5 184 c 128,-1,11
 581 258 581 258 585 386.5 c 128,-1,12
 589 515 589 515 575 714 c 1,13,-1
 679 716 l 5,14,15
 682 424 682 424 675.5 344 c 128,-1,16
 669 264 669 264 649.5 200.5 c 128,-1,17
 630 137 630 137 589.5 92.5 c 128,-1,18
 549 48 549 48 482 24 c 128,-1,19
 415 0 415 0 312 1 c 0,20,21
 232 0 232 0 180.5 35 c 128,-1,22
 129 70 129 70 97 127 c 128,-1,23
 65 184 65 184 50 259 c 128,-1,24
 35 334 35 334 29.5 414 c 128,-1,25
 24 494 24 494 22 716 c 1,0,-1
EndSplineSet
EndChar
StartChar: V
Encoding: 86 86 54
Width: 727
GlyphClass: 2
Flags: W
AnchorPoint: "bottomatt" 355 31 basechar 0
AnchorPoint: "bottomattside" 342 4 basechar 0
AnchorPoint: "bottom" 323 -46 basechar 0
AnchorPoint: "top" 328 722 basechar 0
LayerCount: 2
Fore
SplineSet
11 691 m 1,0,-1
 73 717 l 1,1,-1
 322 120 l 1,2,-1
 599 718 l 1,3,-1
 678 680 l 1,4,-1
 342 -3 l 1,5,-1
 307 0 l 1,6,-1
 11 691 l 1,0,-1
EndSplineSet
EndChar
StartChar: W
Encoding: 87 87 55
Width: 961
GlyphClass: 2
Flags: W
AnchorPoint: "bottomatt" 577 38 basechar 0
AnchorPoint: "bottomattside" 732 58 basechar 0
AnchorPoint: "bottom" 538 -15 basechar 0
AnchorPoint: "top" 538 712 basechar 0
LayerCount: 2
Fore
SplineSet
731 49 m 1,0,-1
 698 50 l 1,1,-1
 547 417 l 1,2,-1
 365 6 l 1,3,-1
 323 0 l 1,4,-1
 31 683 l 1,5,-1
 111 717 l 1,6,-1
 348 118 l 1,7,-1
 536 539 l 1,8,-1
 561 545 l 1,9,-1
 698 201 l 1,10,-1
 838 687 l 1,11,-1
 920 666 l 1,12,-1
 731 49 l 1,0,-1
EndSplineSet
EndChar
StartChar: X
Encoding: 88 88 56
AltUni2: 000425.ffffffff.0 0003a7.ffffffff.0
Width: 737
GlyphClass: 2
Flags: W
AnchorPoint: "bottomatt" 376 34 basechar 0
AnchorPoint: "bottomattside" 639 22 basechar 0
AnchorPoint: "bottom" 333 20 basechar 0
AnchorPoint: "top" 312 701 basechar 0
LayerCount: 2
Fore
SplineSet
615 3 m 1,0,-1
 333 349 l 1,1,-1
 113 11 l 1,2,-1
 35 60 l 1,3,-1
 286 403 l 1,4,-1
 50 677 l 1,5,-1
 102 716 l 1,6,-1
 323 458 l 1,7,-1
 483 691 l 1,8,-1
 549 641 l 1,9,-1
 367 399 l 1,10,-1
 671 43 l 1,11,-1
 615 3 l 1,0,-1
EndSplineSet
EndChar
StartChar: Y
Encoding: 89 89 57
AltUni2: 0003a5.ffffffff.0
Width: 634
GlyphClass: 2
Flags: W
AnchorPoint: "bottomatt" 341 17 basechar 0
AnchorPoint: "bottomattside" 308 4 basechar 0
AnchorPoint: "bottom" 323 -31 basechar 0
AnchorPoint: "top" 297 722 basechar 0
LayerCount: 2
Fore
SplineSet
28 670 m 1,0,-1
 76 705 l 1,1,-1
 286 450 l 1,2,-1
 500 718 l 1,3,-1
 566 665 l 1,4,-1
 335 395 l 1,5,-1
 362 3 l 1,6,-1
 273 0 l 1,7,-1
 261 397 l 1,8,-1
 28 670 l 1,0,-1
EndSplineSet
EndChar
StartChar: Z
Encoding: 90 90 58
Width: 653
GlyphClass: 2
Flags: W
AnchorPoint: "bottomatt" 372 17 basechar 0
AnchorPoint: "bottomattside" 604 14 basechar 0
AnchorPoint: "bottom" 364 -26 basechar 0
AnchorPoint: "top" 328 773 basechar 0
LayerCount: 2
Fore
SplineSet
609 711 m 1,0,-1
 610 675 l 1,1,-1
 210 61 l 5,2,-1
 600 80 l 5,3,-1
 605 10 l 5,4,-1
 108 0 l 5,5,-1
 102 46 l 5,6,-1
 512 658 l 1,7,-1
 51 654 l 1,8,-1
 46 717 l 1,9,-1
 609 711 l 1,0,-1
EndSplineSet
EndChar
StartChar: bracketleft
Encoding: 91 91 59
Width: 204
GlyphClass: 2
Flags: W
LayerCount: 2
Fore
SplineSet
131 717 m 1,0,-1
 131 643 l 1,1,-1
 63 643 l 1,2,-1
 74 38 l 1,3,-1
 143 46 l 1,4,-1
 151 9 l 1,5,-1
 36 0 l 1,6,-1
 2 705 l 1,7,-1
 131 717 l 1,0,-1
EndSplineSet
EndChar
StartChar: backslash
Encoding: 92 92 60
Width: 377
GlyphClass: 2
Flags: W
LayerCount: 2
Fore
SplineSet
326 76 m 1,0,-1
 284 61 l 1,1,-1
 12 684 l 1,2,-1
 89 695 l 1,3,-1
 326 76 l 1,0,-1
EndSplineSet
EndChar
StartChar: bracketright
Encoding: 93 93 61
Width: 221
GlyphClass: 2
Flags: W
LayerCount: 2
Fore
SplineSet
33 61 m 1,0,-1
 101 63 l 1,1,-1
 82 678 l 1,2,-1
 9 671 l 1,3,-1
 1 708 l 1,4,-1
 119 719 l 1,5,-1
 167 16 l 1,6,-1
 36 2 l 1,7,-1
 33 61 l 1,0,-1
EndSplineSet
EndChar
StartChar: asciicircum
Encoding: 94 94 62
Width: 292
GlyphClass: 2
Flags: W
LayerCount: 2
Fore
SplineSet
136 771 m 1,0,-1
 242 597 l 1,1,-1
 211 590 l 1,2,-1
 134 728 l 1,3,-1
 44 583 l 1,4,-1
 0 608 l 1,5,-1
 136 771 l 1,0,-1
EndSplineSet
EndChar
StartChar: underscore
Encoding: 95 95 63
Width: 455
GlyphClass: 2
Flags: W
LayerCount: 2
Fore
SplineSet
0 -66 m 1,0,-1
 456 -66 l 1,1,-1
 456 -106 l 1,2,-1
 0 -106 l 1,3,-1
 0 -66 l 1,0,-1
EndSplineSet
EndChar
StartChar: grave
Encoding: 96 96 64
Width: 134
GlyphClass: 2
Flags: W
LayerCount: 2
Fore
SplineSet
0 722 m 1,0,-1
 39 768 l 1,1,-1
 134 655 l 1,2,-1
 120 634 l 1,3,-1
 0 722 l 1,0,-1
EndSplineSet
EndChar
StartChar: a
Encoding: 97 97 65
AltUni2: 000251.ffffffff.0 000430.ffffffff.0
Width: 652
GlyphClass: 2
Flags: W
AnchorPoint: "bottomatt" 331 17 basechar 0
AnchorPoint: "bottomattside" 526 9 basechar 0
AnchorPoint: "bottom" 312 -31 basechar 0
AnchorPoint: "top" 297 527 basechar 0
LayerCount: 2
Fore
SplineSet
286 54 m 0,0,1
 341 52 341 52 381 69 c 128,-1,2
 421 86 421 86 446 113.5 c 128,-1,3
 471 141 471 141 479.5 175.5 c 128,-1,4
 488 210 488 210 489 243 c 0,5,6
 490 278 490 278 483.5 311.5 c 128,-1,7
 477 345 477 345 454.5 371.5 c 128,-1,8
 432 398 432 398 396.5 415 c 128,-1,9
 361 432 361 432 314 433 c 0,10,11
 285 434 285 434 252 424.5 c 128,-1,12
 219 415 219 415 190.5 393.5 c 128,-1,13
 162 372 162 372 142 338.5 c 128,-1,14
 122 305 122 305 120 257 c 0,15,16
 119 235 119 235 121.5 212 c 128,-1,17
 124 189 124 189 132 167 c 128,-1,18
 140 145 140 145 152.5 125 c 128,-1,19
 165 105 165 105 184 90 c 128,-1,20
 203 75 203 75 228 65 c 128,-1,21
 253 55 253 55 286 54 c 0,0,1
585 466 m 1,22,-1
 579 4 l 1,23,-1
 492 5 l 1,24,-1
 495 78 l 1,25,26
 457 43 457 43 407 25.5 c 128,-1,27
 357 8 357 8 301 7 c 0,28,29
 242 6 242 6 191.5 25 c 128,-1,30
 141 44 141 44 105.5 78.5 c 128,-1,31
 70 113 70 113 52 160 c 128,-1,32
 34 207 34 207 39 262 c 0,33,34
 44 316 44 316 69 357.5 c 128,-1,35
 94 399 94 399 132.5 427 c 128,-1,36
 171 455 171 455 220.5 469 c 128,-1,37
 270 483 270 483 326 483 c 0,38,39
 376 483 376 483 422.5 465 c 128,-1,40
 469 447 469 447 498 415 c 1,41,-1
 500 466 l 1,42,-1
 585 466 l 1,22,-1
EndSplineSet
EndChar
StartChar: b
Encoding: 98 98 66
Width: 589
GlyphClass: 2
Flags: W
AnchorPoint: "bottomatt" 314 10 basechar 0
AnchorPoint: "bottomattside" 346 6 basechar 0
AnchorPoint: "bottom" 292 -31 basechar 0
AnchorPoint: "top" 276 701 basechar 0
LayerCount: 2
Fore
SplineSet
83 241 m 0,0,1
 84 208 84 208 96.5 172.5 c 128,-1,2
 109 137 109 137 135 109 c 128,-1,3
 161 81 161 81 201 63.5 c 128,-1,4
 241 46 241 46 298 48 c 0,5,6
 348 50 348 50 381.5 70 c 128,-1,7
 415 90 415 90 435 120.5 c 128,-1,8
 455 151 455 151 462.5 186.5 c 128,-1,9
 470 222 470 222 469 256 c 0,10,11
 466 304 466 304 446 339 c 128,-1,12
 426 374 426 374 396.5 395.5 c 128,-1,13
 367 417 367 417 332.5 426.5 c 128,-1,14
 298 436 298 436 268 436 c 0,15,16
 220 435 220 435 184 417.5 c 128,-1,17
 148 400 148 400 125 372.5 c 128,-1,18
 102 345 102 345 91.5 311 c 128,-1,19
 81 277 81 277 83 241 c 0,0,1
74 710 m 1,20,-1
 75 418 l 1,21,22
 111 451 111 451 158.5 469 c 128,-1,23
 206 487 206 487 257 487 c 0,24,25
 314 487 314 487 364 474 c 128,-1,26
 414 461 414 461 452 433.5 c 128,-1,27
 490 406 490 406 514.5 364.5 c 128,-1,28
 539 323 539 323 545 267 c 0,29,30
 550 211 550 211 532.5 161.5 c 128,-1,31
 515 112 515 112 479.5 76 c 128,-1,32
 444 40 444 40 393.5 19.5 c 128,-1,33
 343 -1 343 -1 282 0 c 0,34,35
 226 1 226 1 175 19 c 128,-1,36
 124 37 124 37 85 72 c 1,37,-1
 87 -2 l 1,38,-1
 6 -3 l 1,39,-1
 0 710 l 1,40,-1
 74 710 l 1,20,-1
EndSplineSet
EndChar
StartChar: c
Encoding: 99 99 67
AltUni2: 000441.ffffffff.0
Width: 482
GlyphClass: 2
Flags: W
AnchorPoint: "bottomatt" 262 24 basechar 0
AnchorPoint: "bottomattside" 412 11 basechar 0
AnchorPoint: "bottom" 276 -31 basechar 0
AnchorPoint: "top" 244 548 basechar 0
LayerCount: 2
Fore
SplineSet
463 478 m 1,0,-1
 462 394 l 1,1,2
 373 432 373 432 278 427 c 0,3,4
 248 424 248 424 219 416 c 128,-1,5
 190 408 190 408 165 392 c 128,-1,6
 140 376 140 376 116.5 349 c 128,-1,7
 93 322 93 322 84 283 c 0,8,9
 77 247 77 247 80 226.5 c 128,-1,10
 83 206 83 206 90.5 179 c 128,-1,11
 98 152 98 152 125.5 122 c 128,-1,12
 153 92 153 92 190.5 71.5 c 128,-1,13
 228 51 228 51 279 50.5 c 128,-1,14
 330 50 330 50 409 76 c 1,15,16
 412 14 412 14 412 11 c 0,17,18
 372 -4 372 -4 321 -7 c 128,-1,19
 270 -10 270 -10 222.5 0 c 128,-1,20
 175 10 175 10 131 34 c 128,-1,21
 87 58 87 58 57 101 c 128,-1,22
 27 144 27 144 15 203.5 c 128,-1,23
 3 263 3 263 31 346 c 1,24,25
 50 389 50 389 75 418 c 128,-1,26
 100 447 100 447 131.5 465.5 c 128,-1,27
 163 484 163 484 197.5 493 c 128,-1,28
 232 502 232 502 267 506 c 0,29,30
 375 513 375 513 463 478 c 1,0,-1
EndSplineSet
EndChar
StartChar: d
Encoding: 100 100 68
Width: 631
GlyphClass: 2
Flags: W
AnchorPoint: "bottomatt" 321 10 basechar 0
AnchorPoint: "bottomattside" 525 2 basechar 0
AnchorPoint: "bottom" 297 -31 basechar 0
AnchorPoint: "top" 307 717 basechar 0
LayerCount: 2
Fore
SplineSet
280 48 m 0,0,1
 337 46 337 46 377 63.5 c 128,-1,2
 417 81 417 81 443 109 c 128,-1,3
 469 137 469 137 481.5 172.5 c 128,-1,4
 494 208 494 208 495 241 c 0,5,6
 497 277 497 277 486 311 c 128,-1,7
 475 345 475 345 452 372.5 c 128,-1,8
 429 400 429 400 393 417.5 c 128,-1,9
 357 435 357 435 309 436 c 0,10,11
 289 436 289 436 267 432 c 128,-1,12
 245 428 245 428 223.5 419 c 128,-1,13
 202 410 202 410 182 395.5 c 128,-1,14
 162 381 162 381 146.5 361 c 128,-1,15
 131 341 131 341 121 314.5 c 128,-1,16
 111 288 111 288 110 256 c 0,17,18
 108 222 108 222 115.5 186.5 c 128,-1,19
 123 151 123 151 143 120.5 c 128,-1,20
 163 90 163 90 196.5 70 c 128,-1,21
 230 50 230 50 280 48 c 0,0,1
606 710 m 1,22,-1
 600 -3 l 1,23,-1
 490 -2 l 1,24,-1
 493 72 l 1,25,26
 454 37 454 37 403 19 c 128,-1,27
 352 1 352 1 296 0 c 0,28,29
 235 -1 235 -1 183 18.5 c 128,-1,30
 131 38 131 38 94.5 73 c 128,-1,31
 58 108 58 108 40 156 c 128,-1,32
 22 204 22 204 27 260 c 128,-1,33
 32 316 32 316 57.5 358.5 c 128,-1,34
 83 401 83 401 122.5 430 c 128,-1,35
 162 459 162 459 212.5 473 c 128,-1,36
 263 487 263 487 321 487 c 0,37,38
 372 487 372 487 419.5 469 c 128,-1,39
 467 451 467 451 503 418 c 1,40,-1
 504 710 l 1,41,-1
 606 710 l 1,22,-1
EndSplineSet
EndChar
StartChar: e
Encoding: 101 101 69
AltUni2: 000435.ffffffff.0
Width: 612
GlyphClass: 2
Flags: W
AnchorPoint: "bottomatt" 325 3 basechar 0
AnchorPoint: "bottomattside" 477 23 basechar 0
AnchorPoint: "bottom" 312 -36 basechar 0
AnchorPoint: "top" 287 507 basechar 0
LayerCount: 2
Fore
SplineSet
483 275 m 5,0,1
 475 313 475 313 463.5 342 c 132,-1,2
 452 371 452 371 427 391.5 c 132,-1,3
 402 412 402 412 374 424.5 c 128,-1,4
 346 437 346 437 315 441 c 0,5,6
 277 447 277 447 240.5 438 c 128,-1,7
 204 429 204 429 174.5 408 c 128,-1,8
 145 387 145 387 127.5 356 c 132,-1,9
 110 325 110 325 109 288 c 5,10,-1
 483 275 l 5,0,1
571 226 m 5,11,12
 577 225 577 225 560.5 225 c 132,-1,13
 544 225 544 225 512.5 225 c 132,-1,14
 481 225 481 225 439 225 c 132,-1,15
 397 225 397 225 352 225 c 132,-1,16
 307 225 307 225 263.5 225 c 132,-1,17
 220 225 220 225 185.5 225 c 132,-1,18
 151 225 151 225 128.5 225 c 132,-1,19
 106 225 106 225 104 224 c 4,20,21
 109 193 109 193 123.5 168 c 132,-1,22
 138 143 138 143 158 124.5 c 132,-1,23
 178 106 178 106 202 93.5 c 132,-1,24
 226 81 226 81 249 76 c 4,25,26
 263 73 263 73 283 71.5 c 132,-1,27
 303 70 303 70 330 71.5 c 132,-1,28
 357 73 357 73 390.5 80 c 132,-1,29
 424 87 424 87 464 102 c 5,30,-1
 479 20 l 5,31,32
 449 6 449 6 411.5 -1 c 132,-1,33
 374 -8 374 -8 335.5 -8.5 c 132,-1,34
 297 -9 297 -9 262.5 -4 c 132,-1,35
 228 1 228 1 206 12 c 4,36,37
 178 24 178 24 151.5 40 c 132,-1,38
 125 56 125 56 102.5 79 c 132,-1,39
 80 102 80 102 63 133 c 132,-1,40
 46 164 46 164 39 204 c 4,41,42
 31 253 31 253 38 294 c 132,-1,43
 45 335 45 335 63.5 368.5 c 132,-1,44
 82 402 82 402 109.5 428 c 128,-1,45
 137 454 137 454 170.5 470.5 c 128,-1,46
 204 487 204 487 240 495 c 128,-1,47
 276 503 276 503 311 503 c 0,48,49
 374 501 374 501 424 480 c 128,-1,50
 474 459 474 459 507.5 422.5 c 128,-1,51
 541 386 541 386 557 336 c 132,-1,52
 573 286 573 286 571 226 c 5,11,12
EndSplineSet
EndChar
StartChar: f
Encoding: 102 102 70
AltUni2: 0001ad.ffffffff.0
Width: 365
GlyphClass: 2
Flags: W
AnchorPoint: "bottomatt" 123 17 basechar 0
AnchorPoint: "bottomattside" 90 6 basechar 0
AnchorPoint: "bottom" 92 -31 basechar 0
AnchorPoint: "top" 220 758 basechar 0
LayerCount: 2
Fore
SplineSet
136 6 m 1,0,-1
 55 2 l 1,1,2
 52 144 52 144 50 250 c 0,3,4
 48 341 48 341 50 410 c 1,5,-1
 -44 411 l 1,6,-1
 -44 476 l 1,7,-1
 52 473 l 1,8,9
 55 521 55 521 61 556 c 0,10,11
 69 606 69 606 85 638 c 128,-1,12
 101 670 101 670 126.5 686.5 c 128,-1,13
 152 703 152 703 187 713 c 0,14,15
 201 716 201 716 219 717.5 c 128,-1,16
 237 719 237 719 256 715.5 c 128,-1,17
 275 712 275 712 297 702.5 c 128,-1,18
 319 693 319 693 342 676 c 1,19,-1
 308 616 l 1,20,21
 296 625 296 625 284 632.5 c 128,-1,22
 272 640 272 640 261 644 c 128,-1,23
 250 648 250 648 237 649.5 c 128,-1,24
 224 651 224 651 211 652 c 0,25,26
 183 651 183 651 165.5 637.5 c 128,-1,27
 148 624 148 624 137.5 602.5 c 128,-1,28
 127 581 127 581 123 553.5 c 128,-1,29
 119 526 119 526 118 499 c 0,30,31
 117 485 117 485 117 471 c 1,32,-1
 241 468 l 1,33,-1
 241 414 l 1,34,-1
 118 415 l 1,35,-1
 118 418 l 1,36,37
 118 412 118 412 118 406 c 2,38,-1
 136 6 l 1,0,-1
EndSplineSet
EndChar
StartChar: g
Encoding: 103 103 71
AltUni2: 000261.ffffffff.0
Width: 612
GlyphClass: 2
Flags: W
AnchorPoint: "bottomatt" 369 -228 basechar 0
AnchorPoint: "bottomattside" 400 -232 basechar 0
AnchorPoint: "bottom" 333 -276 basechar 0
AnchorPoint: "top" 261 527 basechar 0
LayerCount: 2
Fore
SplineSet
313 509 m 0,0,1
 342 506 342 506 365 499.5 c 128,-1,2
 388 493 388 493 406.5 484.5 c 128,-1,3
 425 476 425 476 438.5 469 c 128,-1,4
 452 462 452 462 460 457 c 1,5,-1
 459 487 l 1,6,-1
 564 487 l 1,7,8
 561 345 561 345 558 237 c 128,-1,9
 555 129 555 129 548 49 c 128,-1,10
 541 -31 541 -31 529.5 -85 c 128,-1,11
 518 -139 518 -139 492 -173 c 128,-1,12
 466 -207 466 -207 428.5 -223 c 128,-1,13
 391 -239 391 -239 347 -242 c 0,14,15
 309 -244 309 -244 270 -228.5 c 128,-1,16
 231 -213 231 -213 201 -176 c 1,17,-1
 247 -128 l 1,18,19
 259 -143 259 -143 270 -153 c 128,-1,20
 281 -163 281 -163 291 -170 c 128,-1,21
 301 -177 301 -177 312.5 -180.5 c 128,-1,22
 324 -184 324 -184 338 -186 c 0,23,24
 364 -189 364 -189 382.5 -178.5 c 128,-1,25
 401 -168 401 -168 414 -147.5 c 128,-1,26
 427 -127 427 -127 434.5 -100.5 c 128,-1,27
 442 -74 442 -74 446.5 -45.5 c 128,-1,28
 451 -17 451 -17 452.5 10 c 128,-1,29
 454 37 454 37 455 58 c 1,30,31
 439 44 439 44 418 34.5 c 128,-1,32
 397 25 397 25 374.5 19 c 128,-1,33
 352 13 352 13 327 11 c 128,-1,34
 302 9 302 9 275 8 c 0,35,36
 234 8 234 8 197 17.5 c 128,-1,37
 160 27 160 27 128.5 44.5 c 128,-1,38
 97 62 97 62 72 87 c 128,-1,39
 47 112 47 112 31.5 142.5 c 128,-1,40
 16 173 16 173 9 208.5 c 128,-1,41
 2 244 2 244 7 282 c 0,42,43
 14 339 14 339 41.5 383.5 c 128,-1,44
 69 428 69 428 110.5 458 c 128,-1,45
 152 488 152 488 204 501.5 c 128,-1,46
 256 515 256 515 313 509 c 0,0,1
261 67 m 0,47,48
 308 61 308 61 347 74.5 c 128,-1,49
 386 88 386 88 411.5 114 c 128,-1,50
 437 140 437 140 449.5 175 c 128,-1,51
 462 210 462 210 463 246 c 0,52,53
 464 286 464 286 457.5 321.5 c 128,-1,54
 451 357 451 357 430 384.5 c 128,-1,55
 409 412 409 412 374.5 429 c 128,-1,56
 340 446 340 446 292 447 c 0,57,58
 259 449 259 449 224 442 c 128,-1,59
 189 435 189 435 159.5 415.5 c 128,-1,60
 130 396 130 396 109.5 362 c 128,-1,61
 89 328 89 328 86 276 c 0,62,63
 83 241 83 241 91.5 206.5 c 128,-1,64
 100 172 100 172 121.5 143 c 128,-1,65
 143 114 143 114 177.5 93.5 c 128,-1,66
 212 73 212 73 261 67 c 0,47,48
EndSplineSet
EndChar
StartChar: h
Encoding: 104 104 72
Width: 535
GlyphClass: 2
Flags: W
AnchorPoint: "bottomatt" 266 20 basechar 0
AnchorPoint: "bottomattside" 425 12 basechar 0
AnchorPoint: "bottom" 246 -31 basechar 0
AnchorPoint: "top" 30 736 basechar 0
LayerCount: 2
Fore
SplineSet
390 8 m 1,0,1
 389 34 389 34 390.5 67 c 128,-1,2
 392 100 392 100 393 136.5 c 128,-1,3
 394 173 394 173 393 210.5 c 128,-1,4
 392 248 392 248 387 282 c 128,-1,5
 382 316 382 316 371.5 346 c 128,-1,6
 361 376 361 376 343 397.5 c 128,-1,7
 325 419 325 419 297 430 c 128,-1,8
 269 441 269 441 230 437 c 0,9,10
 196 434 196 434 170 423 c 128,-1,11
 144 412 144 412 126 388.5 c 128,-1,12
 108 365 108 365 98 328 c 128,-1,13
 88 291 88 291 88 237 c 2,14,-1
 92 72 l 1,15,-1
 96 1 l 1,16,-1
 16 0 l 1,17,-1
 -6 718 l 1,18,-1
 68 719 l 1,19,-1
 80 420 l 1,20,21
 90 432 90 432 104 443 c 128,-1,22
 118 454 118 454 134 462 c 128,-1,23
 150 470 150 470 165.5 475.5 c 128,-1,24
 181 481 181 481 197 483 c 0,25,26
 263 494 263 494 308.5 487.5 c 128,-1,27
 354 481 354 481 385 456.5 c 128,-1,28
 416 432 416 432 434 391 c 128,-1,29
 452 350 452 350 461 293.5 c 128,-1,30
 470 237 470 237 472.5 165.5 c 128,-1,31
 475 94 475 94 476 8 c 1,32,-1
 390 8 l 1,0,1
EndSplineSet
EndChar
StartChar: j
Encoding: 106 106 74
Width: 370
GlyphClass: 2
Flags: W
AnchorPoint: "bottomatt" 146 -232 basechar 0
AnchorPoint: "bottomattside" 93 -229 basechar 0
AnchorPoint: "bottom" 118 -282 basechar 0
LayerCount: 2
Fore
SplineSet
231 585 m 0,0,1
 231 594 231 594 235 602 c 0,2,3
 239 610 239 610 245 615 c 0,4,5
 251 621 251 621 259 625 c 0,6,7
 267 629 267 629 275 629 c 256,8,9
 283 629 283 629 292 625 c 0,10,11
 300 621 300 621 306 615 c 0,12,13
 312 609 312 609 316 602 c 0,14,15
 320 594 320 594 319 585 c 0,16,17
 319 567 319 567 306 553 c 0,18,19
 293 540 293 540 275 541 c 256,20,21
 258 541 258 541 245 553 c 0,22,23
 231 567 231 567 231 585 c 0,0,1
EndSplineSet
Refer: 377 567 N 1 0 0 1 0 0 2
Substitution2: "dotless-1" uni0237
EndChar
StartChar: k
Encoding: 107 107 75
Width: 513
GlyphClass: 2
Flags: W
AnchorPoint: "bottomatt" 232 13 basechar 0
AnchorPoint: "bottomattside" 410 35 basechar 0
AnchorPoint: "bottom" 236 -5 basechar 0
AnchorPoint: "top" 225 722 basechar 0
LayerCount: 2
Fore
SplineSet
0 714 m 1,0,-1
 68 716 l 1,1,-1
 68 329 l 1,2,-1
 361 522 l 1,3,-1
 407 461 l 1,4,-1
 117 290 l 1,5,-1
 450 85 l 1,6,-1
 394 15 l 1,7,-1
 78 249 l 1,8,-1
 89 4 l 1,9,-1
 18 1 l 1,10,-1
 0 714 l 1,0,-1
EndSplineSet
EndChar
StartChar: l
Encoding: 108 108 76
Width: 171
GlyphClass: 2
Flags: W
AnchorPoint: "bottomatt" 110 13 basechar 0
AnchorPoint: "bottomattside" 72 4 basechar 0
AnchorPoint: "bottom" 82 -26 basechar 0
AnchorPoint: "top" 77 758 basechar 0
LayerCount: 2
Fore
SplineSet
29 728 m 1,0,-1
 131 729 l 1,1,-1
 132 0 l 1,2,-1
 37 0 l 1,3,-1
 29 728 l 1,0,-1
EndSplineSet
EndChar
StartChar: m
Encoding: 109 109 77
Width: 900
GlyphClass: 2
Flags: W
AnchorPoint: "bottomatt" 458 28 basechar 0
AnchorPoint: "bottomattside" 742 9 basechar 0
AnchorPoint: "bottom" 425 -31 basechar 0
AnchorPoint: "top" 430 522 basechar 0
LayerCount: 2
Fore
SplineSet
571 481 m 0,0,1
 649 493 649 493 696.5 469 c 128,-1,2
 744 445 744 445 770 386 c 128,-1,3
 796 327 796 327 802 231.5 c 128,-1,4
 808 136 808 136 802 5 c 1,5,-1
 708 5 l 1,6,7
 708 39 708 39 710.5 84.5 c 128,-1,8
 713 130 713 130 713.5 178.5 c 128,-1,9
 714 227 714 227 710 274.5 c 128,-1,10
 706 322 706 322 692.5 357 c 128,-1,11
 679 392 679 392 653.5 412 c 128,-1,12
 628 432 628 432 586 427 c 0,13,14
 550 422 550 422 527 399.5 c 128,-1,15
 504 377 504 377 491 343.5 c 128,-1,16
 478 310 478 310 472.5 270.5 c 128,-1,17
 467 231 467 231 466 193 c 0,18,19
 469 154 469 154 470 110.5 c 128,-1,20
 471 67 471 67 472 18 c 1,21,-1
 390 18 l 1,22,23
 390 51 390 51 391.5 97 c 128,-1,24
 393 143 393 143 391.5 192 c 128,-1,25
 390 241 390 241 382.5 288.5 c 128,-1,26
 375 336 375 336 357 373 c 128,-1,27
 339 410 339 410 307 431 c 128,-1,28
 275 452 275 452 226 447 c 0,29,30
 92 437 92 437 90 237 c 1,31,-1
 94 72 l 1,32,-1
 98 1 l 1,33,-1
 14 0 l 1,34,-1
 1 471 l 1,35,-1
 80 472 l 1,36,-1
 82 420 l 1,37,38
 99 447 99 447 127.5 465.5 c 128,-1,39
 156 484 156 484 194 493 c 0,40,41
 291 516 291 516 346.5 488.5 c 128,-1,42
 402 461 402 461 430 389 c 1,43,44
 437 398 437 398 450.5 412.5 c 128,-1,45
 464 427 464 427 482.5 441.5 c 128,-1,46
 501 456 501 456 523 467 c 128,-1,47
 545 478 545 478 571 481 c 0,0,1
EndSplineSet
EndChar
StartChar: n
Encoding: 110 110 78
Width: 617
GlyphClass: 2
Flags: W
AnchorPoint: "bottomatt" 310 24 basechar 0
AnchorPoint: "bottomattside" 479 23 basechar 0
AnchorPoint: "bottom" 297 -5 basechar 0
AnchorPoint: "top" 282 527 basechar 0
LayerCount: 2
Fore
SplineSet
444 18 m 1,0,1
 444 43 444 43 445 75.5 c 128,-1,2
 446 108 446 108 447.5 143.5 c 128,-1,3
 449 179 449 179 448 216.5 c 128,-1,4
 447 254 447 254 441.5 289 c 128,-1,5
 436 324 436 324 426 354 c 128,-1,6
 416 384 416 384 400 406 c 128,-1,7
 384 428 384 428 359 439.5 c 128,-1,8
 334 451 334 451 295 447 c 0,9,10
 261 444 261 444 231 429.5 c 128,-1,11
 201 415 201 415 177.5 388.5 c 128,-1,12
 154 362 154 362 139.5 324 c 128,-1,13
 125 286 125 286 124 237 c 2,14,-1
 128 72 l 1,15,-1
 132 1 l 1,16,-1
 52 0 l 1,17,-1
 39 471 l 1,18,-1
 114 472 l 1,19,-1
 116 420 l 1,20,21
 149 449 149 449 185 466 c 128,-1,22
 221 483 221 483 262 493 c 0,23,24
 327 508 327 508 375 503.5 c 128,-1,25
 423 499 423 499 459.5 473 c 128,-1,26
 496 447 496 447 518.5 405.5 c 128,-1,27
 541 364 541 364 547.5 306.5 c 128,-1,28
 554 249 554 249 557 176.5 c 128,-1,29
 560 104 560 104 560 18 c 1,30,-1
 444 18 l 1,0,1
EndSplineSet
EndChar
StartChar: o
Encoding: 111 111 79
AltUni2: 00043e.ffffffff.0 0003bf.ffffffff.0
Width: 622
GlyphClass: 2
Flags: W
AnchorPoint: "topattright" 495 408 basechar 0
AnchorPoint: "bottomatt" 317 -3 basechar 0
AnchorPoint: "bottomattside" 390 4 basechar 0
AnchorPoint: "bottom" 292 -36 basechar 0
AnchorPoint: "top" 276 512 basechar 0
LayerCount: 2
Fore
SplineSet
289 35 m 0,0,1
 317 34 317 34 342 42 c 128,-1,2
 367 50 367 50 391.5 65 c 128,-1,3
 416 80 416 80 434 100.5 c 128,-1,4
 452 121 452 121 463 144 c 128,-1,5
 474 167 474 167 478 191 c 128,-1,6
 482 215 482 215 483 239 c 0,7,8
 485 275 485 275 475 309 c 128,-1,9
 465 343 465 343 442 370 c 128,-1,10
 419 397 419 397 382.5 415 c 128,-1,11
 346 433 346 433 309 434 c 0,12,13
 284 436 284 436 248.5 425.5 c 128,-1,14
 213 415 213 415 182.5 392 c 128,-1,15
 152 369 152 369 131 332.5 c 128,-1,16
 110 296 110 296 109 246 c 0,17,18
 107 212 107 212 116.5 175.5 c 128,-1,19
 126 139 126 139 148 108.5 c 128,-1,20
 170 78 170 78 205 57.5 c 128,-1,21
 240 37 240 37 289 35 c 0,0,1
571 247 m 0,22,23
 568 185 568 185 544 136 c 128,-1,24
 520 87 520 87 480 54.5 c 128,-1,25
 440 22 440 22 391 4 c 128,-1,26
 342 -14 342 -14 299 -14 c 0,27,28
 248 -15 248 -15 193.5 5 c 128,-1,29
 139 25 139 25 99.5 59.5 c 128,-1,30
 60 94 60 94 39.5 143.5 c 128,-1,31
 19 193 19 193 25 249 c 128,-1,32
 31 305 31 305 56 349.5 c 128,-1,33
 81 394 81 394 121 424.5 c 128,-1,34
 161 455 161 455 213 472.5 c 128,-1,35
 265 490 265 490 314 489 c 0,36,37
 354 489 354 489 404 471 c 128,-1,38
 454 453 454 453 491.5 420.5 c 128,-1,39
 529 388 529 388 551.5 344 c 128,-1,40
 574 300 574 300 571 247 c 0,22,23
EndSplineSet
EndChar
StartChar: p
Encoding: 112 112 80
AltUni2: 000440.ffffffff.0
Width: 599
GlyphClass: 2
Flags: W
AnchorPoint: "bottomatt" 92 -208 basechar 0
AnchorPoint: "bottomattside" 69 -210 basechar 0
AnchorPoint: "bottom" 205 -230 basechar 0
AnchorPoint: "top" 282 517 basechar 0
LayerCount: 2
Fore
SplineSet
104 252 m 0,0,1
 104 214 104 214 115.5 177.5 c 128,-1,2
 127 141 127 141 151.5 113.5 c 128,-1,3
 176 86 176 86 216 70.5 c 128,-1,4
 256 55 256 55 311 61 c 0,5,6
 344 64 344 64 368.5 75 c 128,-1,7
 393 86 393 86 411.5 101.5 c 128,-1,8
 430 117 430 117 443 136.5 c 128,-1,9
 456 156 456 156 464 177.5 c 128,-1,10
 472 199 472 199 474.5 221.5 c 128,-1,11
 477 244 477 244 476 265 c 0,12,13
 474 313 474 313 454.5 347.5 c 128,-1,14
 435 382 435 382 406.5 403.5 c 128,-1,15
 378 425 378 425 345 434.5 c 128,-1,16
 312 444 312 444 284 444 c 0,17,18
 238 443 238 443 203.5 426 c 128,-1,19
 169 409 169 409 146.5 382 c 128,-1,20
 124 355 124 355 113 321 c 128,-1,21
 102 287 102 287 104 252 c 0,0,1
96 477 m 1,22,-1
 98 426 l 1,23,24
 132 459 132 459 176 474.5 c 128,-1,25
 220 490 220 490 270 493 c 0,26,27
 323 496 323 496 370.5 484 c 128,-1,28
 418 472 418 472 455 445.5 c 128,-1,29
 492 419 492 419 516.5 377 c 128,-1,30
 541 335 541 335 548 278 c 0,31,32
 553 222 553 222 536 172.5 c 128,-1,33
 519 123 519 123 488 83 c 128,-1,34
 457 43 457 43 406 18 c 128,-1,35
 355 -7 355 -7 297 -5 c 0,36,37
 270 -4 270 -4 244 0.5 c 128,-1,38
 218 5 218 5 193 15 c 128,-1,39
 168 25 168 25 145 38 c 128,-1,40
 122 51 122 51 101 66 c 1,41,-1
 102 -213 l 1,42,-1
 34 -214 l 1,43,-1
 29 477 l 1,44,-1
 96 477 l 1,22,-1
EndSplineSet
EndChar
StartChar: q
Encoding: 113 113 81
Width: 593
GlyphClass: 2
Flags: W
AnchorPoint: "bottomatt" 529 -225 basechar 0
AnchorPoint: "bottomattside" 498 -232 basechar 0
AnchorPoint: "bottom" 338 -261 basechar 0
AnchorPoint: "top" 276 502 basechar 0
LayerCount: 2
Fore
SplineSet
256 56 m 0,0,1
 293 56 293 56 322.5 64 c 128,-1,2
 352 72 352 72 375 86 c 128,-1,3
 398 100 398 100 414.5 119 c 128,-1,4
 431 138 431 138 441.5 159.5 c 128,-1,5
 452 181 452 181 457 204 c 128,-1,6
 462 227 462 227 463 249 c 0,7,8
 464 284 464 284 452.5 317.5 c 128,-1,9
 441 351 441 351 417.5 377 c 128,-1,10
 394 403 394 403 359 419.5 c 128,-1,11
 324 436 324 436 278 436 c 0,12,13
 259 436 259 436 237 431.5 c 128,-1,14
 215 427 215 427 194 417.5 c 128,-1,15
 173 408 173 408 153.5 393.5 c 128,-1,16
 134 379 134 379 119 359 c 128,-1,17
 104 339 104 339 95.5 313.5 c 128,-1,18
 87 288 87 288 86 256 c 0,19,20
 85 223 85 223 93 188.5 c 128,-1,21
 101 154 101 154 121 124.5 c 128,-1,22
 141 95 141 95 174 76 c 128,-1,23
 207 57 207 57 256 56 c 0,0,1
534 471 m 1,24,-1
 541 -236 l 1,25,-1
 463 -237 l 1,26,-1
 464 85 l 1,27,28
 427 49 427 49 378 30.5 c 128,-1,29
 329 12 329 12 272 10 c 0,30,31
 213 7 213 7 162.5 25 c 128,-1,32
 112 43 112 43 75.5 76.5 c 128,-1,33
 39 110 39 110 20 157 c 128,-1,34
 1 204 1 204 5 259 c 0,35,36
 9 313 9 313 33 355 c 128,-1,37
 57 397 57 397 95 426 c 128,-1,38
 133 455 133 455 182 470 c 128,-1,39
 231 485 231 485 287 486 c 0,40,41
 337 487 337 487 384 470.5 c 128,-1,42
 431 454 431 454 467 422 c 1,43,-1
 467 472 l 1,44,-1
 534 471 l 1,24,-1
EndSplineSet
EndChar
StartChar: r
Encoding: 114 114 82
Width: 410
GlyphClass: 2
Flags: W
AnchorPoint: "bottomatt" 95 10 basechar 0
AnchorPoint: "bottomattside" 63 4 basechar 0
AnchorPoint: "bottom" 72 -31 basechar 0
AnchorPoint: "top" 220 512 basechar 0
LayerCount: 2
Fore
SplineSet
105 4 m 5,0,-1
 29 0 l 5,1,-1
 26 470 l 5,2,-1
 97 472 l 1,3,-1
 98 391 l 1,4,5
 106 402 106 402 119.5 415 c 128,-1,6
 133 428 133 428 150.5 440.5 c 128,-1,7
 168 453 168 453 190 462.5 c 128,-1,8
 212 472 212 472 238 476 c 128,-1,9
 264 480 264 480 294.5 475.5 c 128,-1,10
 325 471 325 471 359 456 c 1,11,-1
 339 384 l 1,12,13
 311 399 311 399 282.5 406 c 128,-1,14
 254 413 254 413 226 410 c 128,-1,15
 198 407 198 407 174 394 c 128,-1,16
 150 381 150 381 132 356 c 128,-1,17
 114 331 114 331 104.5 294 c 128,-1,18
 95 257 95 257 97 207 c 6,19,-1
 105 4 l 5,0,-1
EndSplineSet
EndChar
StartChar: s
Encoding: 115 115 83
Width: 445
GlyphClass: 2
Flags: W
AnchorPoint: "bottomatt" 226 -6 basechar 0
AnchorPoint: "bottomattside" 263 0 basechar 0
AnchorPoint: "bottom" 211 -30 basechar 0
AnchorPoint: "top" 210 538 basechar 0
LayerCount: 2
Fore
SplineSet
76 129 m 1,0,1
 120 78 120 78 177 57.5 c 128,-1,2
 234 37 234 37 252 70.5 c 128,-1,3
 270 104 270 104 224 141.5 c 128,-1,4
 178 179 178 179 125.5 217 c 128,-1,5
 73 255 73 255 48.5 285.5 c 128,-1,6
 24 316 24 316 18.5 353 c 128,-1,7
 13 390 13 390 34 434 c 1,8,9
 59 475 59 475 111.5 499 c 128,-1,10
 164 523 164 523 237.5 512 c 128,-1,11
 311 501 311 501 357 471 c 128,-1,12
 403 441 403 441 403 440 c 2,13,-1
 357 359 l 1,14,15
 300 419 300 419 249.5 435.5 c 128,-1,16
 199 452 199 452 155.5 440 c 128,-1,17
 112 428 112 428 93 390 c 1,18,19
 78 345 78 345 109 309.5 c 128,-1,20
 140 274 140 274 200 230 c 128,-1,21
 260 186 260 186 292.5 150 c 128,-1,22
 325 114 325 114 320.5 70.5 c 128,-1,23
 316 27 316 27 263 0 c 1,24,25
 220 -14 220 -14 180.5 -8 c 128,-1,26
 141 -2 141 -2 113.5 12.5 c 128,-1,27
 86 27 86 27 32 68 c 1,28,-1
 76 129 l 1,0,1
EndSplineSet
EndChar
StartChar: t
Encoding: 116 116 84
Width: 358
GlyphClass: 2
Flags: W
AnchorPoint: "bottomatt" 169 5 basechar 0
AnchorPoint: "bottomattside" 136 6 basechar 0
AnchorPoint: "bottom" 147 -28 basechar 0
AnchorPoint: "top" 133 681 basechar 0
LayerCount: 2
Fore
SplineSet
173 417 m 1,0,-1
 182 5 l 1,1,-1
 101 2 l 1,2,-1
 99 412 l 1,3,-1
 1 413 l 1,4,-1
 2 478 l 1,5,-1
 104 474 l 1,6,-1
 103 639 l 1,7,-1
 165 639 l 1,8,-1
 169 472 l 1,9,-1
 296 469 l 1,10,-1
 296 416 l 1,11,-1
 173 417 l 1,0,-1
EndSplineSet
EndChar
StartChar: u
Encoding: 117 117 85
Width: 568
GlyphClass: 2
Flags: W
AnchorPoint: "topattright" 508 412 basechar 0
AnchorPoint: "bottomatt" 276 7 basechar 0
AnchorPoint: "bottomattside" 465 15 basechar 0
AnchorPoint: "bottom" 256 -31 basechar 0
AnchorPoint: "top" 266 502 basechar 0
LayerCount: 2
Fore
SplineSet
104 484 m 1,0,1
 103 460 103 460 100.5 428.5 c 128,-1,2
 98 397 98 397 95.5 361.5 c 128,-1,3
 93 326 93 326 93 288 c 128,-1,4
 93 250 93 250 97 214.5 c 128,-1,5
 101 179 101 179 111 147.5 c 128,-1,6
 121 116 121 116 139 92.5 c 128,-1,7
 157 69 157 69 184 55.5 c 128,-1,8
 211 42 211 42 251 43 c 0,9,10
 289 43 289 43 320.5 57 c 128,-1,11
 352 71 352 71 375.5 96.5 c 128,-1,12
 399 122 399 122 413 159.5 c 128,-1,13
 427 197 427 197 429 246 c 2,14,-1
 432 478 l 1,15,-1
 512 476 l 1,16,-1
 505 8 l 1,17,-1
 430 10 l 1,18,-1
 430 63 l 1,19,20
 396 34 396 34 359.5 16 c 128,-1,21
 323 -2 323 -2 281 -4 c 0,22,23
 216 -7 216 -7 170.5 4 c 128,-1,24
 125 15 125 15 95.5 41 c 128,-1,25
 66 67 66 67 50 107.5 c 128,-1,26
 34 148 34 148 26 203.5 c 128,-1,27
 18 259 18 259 18 329.5 c 128,-1,28
 18 400 18 400 19 487 c 1,29,-1
 104 484 l 1,0,1
EndSplineSet
EndChar
StartChar: v
Encoding: 118 118 86
AltUni2: 0003bd.ffffffff.0
Width: 575
GlyphClass: 2
Flags: W
AnchorPoint: "bottomatt" 297 31 basechar 0
AnchorPoint: "bottomattside" 289 4 basechar 0
AnchorPoint: "bottom" 261 -31 basechar 0
AnchorPoint: "top" 271 512 basechar 0
LayerCount: 2
Fore
SplineSet
1 468 m 1,0,-1
 63 499 l 1,1,-1
 263 109 l 5,2,-1
 459 501 l 1,3,-1
 538 462 l 1,4,-1
 288 -3 l 5,5,-1
 254 0 l 5,6,-1
 1 468 l 1,0,-1
EndSplineSet
EndChar
StartChar: w
Encoding: 119 119 87
Width: 839
GlyphClass: 2
Flags: W
AnchorPoint: "bottomatt" 443 34 basechar 0
AnchorPoint: "bottomattside" 618 54 basechar 0
AnchorPoint: "bottom" 425 10 basechar 0
AnchorPoint: "top" 420 573 basechar 0
LayerCount: 2
Fore
SplineSet
621 48 m 5,0,-1
 584 50 l 5,1,-1
 417 391 l 5,2,-1
 251 6 l 5,3,-1
 208 0 l 5,4,-1
 1 462 l 5,5,-1
 81 496 l 5,6,-1
 239 118 l 5,7,-1
 402 507 l 5,8,-1
 437 508 l 5,9,-1
 588 181 l 5,10,-1
 700 505 l 5,11,-1
 776 484 l 5,12,-1
 621 48 l 5,0,-1
EndSplineSet
EndChar
StartChar: x
Encoding: 120 120 88
AltUni2: 000445.ffffffff.0
Width: 539
GlyphClass: 2
Flags: W
AnchorPoint: "bottomatt" 269 20 basechar 0
AnchorPoint: "bottomattside" 441 41 basechar 0
AnchorPoint: "bottom" 246 -5 basechar 0
AnchorPoint: "top" 225 517 basechar 0
LayerCount: 2
Fore
SplineSet
423 19 m 1,0,-1
 239 213 l 1,1,-1
 61 1 l 1,2,-1
 0 50 l 1,3,-1
 189 265 l 1,4,-1
 -6 467 l 1,5,-1
 45 517 l 1,6,-1
 234 319 l 1,7,-1
 390 504 l 1,8,-1
 441 459 l 1,9,-1
 279 272 l 1,10,-1
 474 76 l 1,11,-1
 423 19 l 1,0,-1
EndSplineSet
EndChar
StartChar: y
Encoding: 121 121 89
AltUni2: 000443.ffffffff.0
Width: 562
GlyphClass: 2
Flags: W
AnchorPoint: "bottomatt" 174 -215 basechar 0
AnchorPoint: "bottomattside" 128 -217 basechar 0
AnchorPoint: "bottom" 148 -266 basechar 0
AnchorPoint: "top" 276 527 basechar 0
LayerCount: 2
Fore
SplineSet
326 -37 m 1,0,1
 299 -100 299 -100 273 -140 c 128,-1,2
 247 -180 247 -180 219 -201 c 128,-1,3
 191 -222 191 -222 161 -226.5 c 128,-1,4
 131 -231 131 -231 94 -222 c 0,5,6
 83 -220 83 -220 69.5 -213 c 128,-1,7
 56 -206 56 -206 42.5 -193.5 c 128,-1,8
 29 -181 29 -181 17 -164 c 128,-1,9
 5 -147 5 -147 -2 -125 c 1,10,-1
 57 -96 l 1,11,12
 63 -113 63 -113 69.5 -124.5 c 128,-1,13
 76 -136 76 -136 81 -143 c 128,-1,14
 86 -150 86 -150 92 -154.5 c 128,-1,15
 98 -159 98 -159 106 -163 c 0,16,17
 125 -175 125 -175 145 -171 c 128,-1,18
 165 -167 165 -167 182.5 -150.5 c 128,-1,19
 200 -134 200 -134 215.5 -109.5 c 128,-1,20
 231 -85 231 -85 243.5 -57 c 128,-1,21
 256 -29 256 -29 265.5 -0.5 c 128,-1,22
 275 28 275 28 281 50 c 1,23,-1
 0 428 l 1,24,-1
 60 465 l 1,25,-1
 307 119 l 1,26,-1
 421 493 l 1,27,-1
 500 470 l 1,28,-1
 326 -37 l 1,0,1
EndSplineSet
EndChar
StartChar: z
Encoding: 122 122 90
Width: 484
GlyphClass: 2
Flags: W
AnchorPoint: "bottomatt" 253 13 basechar 0
AnchorPoint: "bottomattside" 424 2 basechar 0
AnchorPoint: "bottom" 225 -20 basechar 0
AnchorPoint: "top" 210 532 basechar 0
LayerCount: 2
Fore
SplineSet
410 483 m 5,0,-1
 411 442 l 5,1,-1
 133 62 l 5,2,-1
 427 63 l 5,3,-1
 424 -3 l 5,4,-1
 34 8 l 5,5,-1
 32 49 l 5,6,-1
 319 431 l 5,7,-1
 8 428 l 5,8,-1
 10 492 l 5,9,-1
 410 483 l 5,0,-1
EndSplineSet
EndChar
StartChar: braceleft
Encoding: 123 123 91
Width: 272
GlyphClass: 2
Flags: W
LayerCount: 2
Fore
SplineSet
221 708 m 1,0,-1
 223 642 l 1,1,2
 189 647 189 647 162 643 c 0,3,4
 138 639 138 639 116.5 624.5 c 128,-1,5
 95 610 95 610 90 578 c 0,6,7
 84 545 84 545 89 513 c 128,-1,8
 94 481 94 481 102 454 c 128,-1,9
 110 427 110 427 116.5 405.5 c 128,-1,10
 123 384 123 384 120 371 c 0,11,12
 116 357 116 357 109.5 348.5 c 128,-1,13
 103 340 103 340 96.5 335 c 128,-1,14
 90 330 90 330 84.5 327.5 c 128,-1,15
 79 325 79 325 76 324 c 1,16,17
 77 321 77 321 80 318.5 c 128,-1,18
 83 316 83 316 86 311.5 c 128,-1,19
 89 307 89 307 91.5 297.5 c 128,-1,20
 94 288 94 288 94 269 c 0,21,22
 94 257 94 257 89.5 236.5 c 128,-1,23
 85 216 85 216 81.5 193 c 128,-1,24
 78 170 78 170 78.5 147 c 128,-1,25
 79 124 79 124 89 105 c 128,-1,26
 99 86 99 86 122 74.5 c 128,-1,27
 145 63 145 63 186 65 c 1,28,-1
 177 4 l 1,29,30
 138 1 138 1 105 12 c 0,31,32
 91 16 91 16 78 24.5 c 128,-1,33
 65 33 65 33 54 46 c 128,-1,34
 43 59 43 59 36 77.5 c 128,-1,35
 29 96 29 96 28 122 c 0,36,37
 29 158 29 158 37 186.5 c 128,-1,38
 45 215 45 215 47.5 239.5 c 128,-1,39
 50 264 50 264 41 286.5 c 128,-1,40
 32 309 32 309 -1 333 c 1,41,42
 30 335 30 335 44 352.5 c 128,-1,43
 58 370 58 370 62.5 395.5 c 128,-1,44
 67 421 67 421 62.5 451.5 c 128,-1,45
 58 482 58 482 52.5 511.5 c 128,-1,46
 47 541 47 541 42.5 566 c 128,-1,47
 38 591 38 591 41 604 c 0,48,49
 43 617 43 617 51.5 639.5 c 128,-1,50
 60 662 60 662 80 680.5 c 128,-1,51
 100 699 100 699 134 709 c 128,-1,52
 168 719 168 719 221 708 c 1,0,-1
EndSplineSet
EndChar
StartChar: bar
Encoding: 124 124 92
AltUni2: 0001c0.ffffffff.0
Width: 154
GlyphClass: 2
Flags: W
LayerCount: 2
Fore
SplineSet
93 31 m 1,0,-1
 38 36 l 1,1,-1
 47 685 l 1,2,-1
 93 688 l 1,3,-1
 93 31 l 1,0,-1
EndSplineSet
EndChar
StartChar: braceright
Encoding: 125 125 93
Width: 282
GlyphClass: 2
Flags: W
LayerCount: 2
Fore
SplineSet
70 2 m 1,0,-1
 57 69 l 1,1,2
 91 68 91 68 118 77 c 0,3,4
 141 85 141 85 159.5 102.5 c 128,-1,5
 178 120 178 120 179 154 c 0,6,7
 179 188 179 188 169.5 218.5 c 128,-1,8
 160 249 160 249 147.5 275.5 c 128,-1,9
 135 302 135 302 125.5 322.5 c 128,-1,10
 116 343 116 343 117 357 c 0,11,12
 119 370 119 370 123.5 379 c 128,-1,13
 128 388 128 388 133.5 394 c 128,-1,14
 139 400 139 400 144.5 403.5 c 128,-1,15
 150 407 150 407 153 410 c 0,16,17
 151 413 151 413 147 414.5 c 128,-1,18
 143 416 143 416 140 420 c 128,-1,19
 137 424 137 424 133.5 433 c 128,-1,20
 130 442 130 442 128 461 c 0,21,22
 126 473 126 473 127 494 c 128,-1,23
 128 515 128 515 128 538.5 c 128,-1,24
 128 562 128 562 124 585 c 128,-1,25
 120 608 120 608 106.5 624.5 c 128,-1,26
 93 641 93 641 68.5 648 c 128,-1,27
 44 655 44 655 3 648 c 1,28,-1
 2 711 l 1,29,30
 41 720 41 720 75 714 c 0,31,32
 104 709 104 709 130.5 688 c 128,-1,33
 157 667 157 667 168 618 c 1,34,35
 172 581 172 581 169 551.5 c 128,-1,36
 166 522 166 522 167.5 497 c 128,-1,37
 169 472 169 472 182 451.5 c 128,-1,38
 195 431 195 431 231 413 c 1,39,40
 200 405 200 405 188.5 385.5 c 128,-1,41
 177 366 177 366 177 339 c 128,-1,42
 177 312 177 312 186.5 282 c 128,-1,43
 196 252 196 252 206 223.5 c 128,-1,44
 216 195 216 195 224 170.5 c 128,-1,45
 232 146 232 146 231 133 c 0,46,47
 231 121 231 121 226.5 98 c 128,-1,48
 222 75 222 75 205 53 c 128,-1,49
 188 31 188 31 156.5 15 c 128,-1,50
 125 -1 125 -1 70 2 c 1,0,-1
EndSplineSet
EndChar
StartChar: asciitilde
Encoding: 126 126 94
Width: 327
GlyphClass: 2
Flags: W
LayerCount: 2
Fore
SplineSet
-1 295 m 1,0,1
 19 323 19 323 40 346 c 0,2,3
 57 365 57 365 78 382.5 c 128,-1,4
 99 400 99 400 118 403 c 0,5,6
 136 405 136 405 148.5 391 c 128,-1,7
 161 377 161 377 170.5 359.5 c 128,-1,8
 180 342 180 342 188.5 327.5 c 128,-1,9
 197 313 197 313 208 315 c 0,10,11
 217 315 217 315 223 333.5 c 128,-1,12
 229 352 229 352 233 375 c 0,13,14
 237 402 237 402 241 434 c 1,15,-1
 275 426 l 1,16,17
 267 386 267 386 257 353 c 0,18,19
 249 325 249 325 236.5 302 c 128,-1,20
 224 279 224 279 211 276 c 0,21,22
 191 273 191 273 181.5 284.5 c 128,-1,23
 172 296 172 296 165.5 310 c 128,-1,24
 159 324 159 324 151 336 c 128,-1,25
 143 348 143 348 127 348 c 0,26,27
 110 350 110 350 93 337 c 128,-1,28
 76 324 76 324 61 307 c 0,29,30
 45 289 45 289 31 264 c 1,31,-1
 -1 295 l 1,0,1
EndSplineSet
EndChar
StartChar: exclamdown
Encoding: 161 161 96
Width: 205
GlyphClass: 2
Flags: W
LayerCount: 2
Fore
SplineSet
58.5 647 m 128,-1,1
 41 650 41 650 32.5 667 c 128,-1,2
 24 684 24 684 26 706 c 0,3,4
 31 726 31 726 44 738 c 128,-1,5
 57 750 57 750 74.5 745.5 c 128,-1,6
 92 741 92 741 101.5 725 c 128,-1,7
 111 709 111 709 106 688 c 0,8,9
 104 668 104 668 90 656 c 128,-1,0
 76 644 76 644 58.5 647 c 128,-1,1
85 583 m 1,10,-1
 159 25 l 1,11,-1
 69 13 l 1,12,-1
 41 574 l 1,13,-1
 85 583 l 1,10,-1
EndSplineSet
EndChar
StartChar: cent
Encoding: 162 162 97
Width: 306
GlyphClass: 2
Flags: W
LayerCount: 2
Fore
SplineSet
53 355 m 0,0,1
 53 314 53 314 74.5 300.5 c 128,-1,2
 96 287 96 287 126 295 c 1,3,-1
 114 451 l 1,4,5
 89 438 89 438 71 415 c 128,-1,6
 53 392 53 392 53 355 c 0,0,1
256 302 m 1,7,-1
 230 290 l 1,8,-1
 167 268 l 1,9,-1
 180 177 l 1,10,-1
 137 177 l 1,11,-1
 131 260 l 1,12,13
 107 256 107 256 86 256.5 c 128,-1,14
 65 257 65 257 47.5 264.5 c 128,-1,15
 30 272 30 272 18.5 288.5 c 128,-1,16
 7 305 7 305 4 334 c 0,17,18
 2 364 2 364 10.5 386.5 c 128,-1,19
 19 409 19 409 34.5 426 c 128,-1,20
 50 443 50 443 70.5 455.5 c 128,-1,21
 91 468 91 468 113 477 c 1,22,-1
 104 546 l 1,23,-1
 130 550 l 1,24,-1
 137 486 l 1,25,26
 169 495 169 495 194 499 c 0,27,28
 206 501 206 501 218 501 c 1,29,-1
 220 464 l 1,30,31
 220 465 220 465 219 465 c 2,32,-1
 211 465 l 2,33,34
 202 466 202 466 189.5 466 c 128,-1,35
 177 466 177 466 142 460 c 1,36,-1
 163 307 l 1,37,38
 182 314 182 314 192 319 c 128,-1,39
 202 324 202 324 217 338 c 2,40,-1
 232 350 l 1,41,-1
 256 302 l 1,7,-1
220 464 m 1,42,-1
 220 464 l 1,43,44
 220 464 220 464 220 464 c 1,42,-1
EndSplineSet
EndChar
StartChar: sterling
Encoding: 163 163 98
Width: 389
GlyphClass: 2
Flags: W
LayerCount: 2
Fore
SplineSet
339 81 m 1,0,-1
 32 81 l 1,1,-1
 33 120 l 1,2,-1
 68 122 l 1,3,-1
 68 150 l 1,4,-1
 63 302 l 1,5,-1
 3 295 l 1,6,-1
 0 337 l 1,7,-1
 61 343 l 1,8,9
 55 418 55 418 62.5 465.5 c 128,-1,10
 70 513 70 513 86 543.5 c 128,-1,11
 102 574 102 574 124.5 590.5 c 128,-1,12
 147 607 147 607 172 613 c 0,13,14
 228 627 228 627 304 601 c 1,15,-1
 279 544 l 1,16,17
 231 563 231 563 200 563 c 128,-1,18
 169 563 169 563 151 550.5 c 128,-1,19
 133 538 133 538 125.5 514 c 128,-1,20
 118 490 118 490 115.5 462 c 128,-1,21
 113 434 113 434 117 348 c 1,22,-1
 172 354 l 1,23,-1
 174 311 l 1,24,-1
 120 305 l 1,25,-1
 136 126 l 1,26,-1
 340 138 l 1,27,-1
 339 81 l 1,0,-1
EndSplineSet
EndChar
StartChar: currency
Encoding: 164 164 317
Width: 366
Flags: W
LayerCount: 2
Fore
SplineSet
337 345 m 0,0,1
 336 308 336 308 322 280 c 0,2,3
 313 262 313 262 301 247 c 1,4,-1
 346 205 l 1,5,-1
 321 177 l 1,6,-1
 276 224 l 1,7,8
 257 210 257 210 234 201 c 0,9,10
 206 190 206 190 181 190 c 0,11,12
 151 189 151 189 121 202 c 0,13,14
 104 209 104 209 90 217 c 1,15,-1
 48 172 l 1,16,-1
 20 198 l 1,17,-1
 63 239 l 1,18,19
 44 258 44 258 33 284 c 0,20,21
 21 313 21 313 25 347 c 0,22,23
 28 380 28 380 42 407 c 0,24,25
 49 420 49 420 58 431 c 1,26,-1
 15 475 l 1,27,-1
 40 498 l 1,28,-1
 85 456 l 1,29,30
 106 471 106 471 132 480 c 0,31,32
 162 491 162 491 190 489 c 0,33,34
 213 489 213 489 242 479 c 0,35,36
 260 472 260 472 276 461 c 1,37,-1
 318 503 l 1,38,-1
 341 478 l 1,39,-1
 303 437 l 1,40,41
 317 422 317 422 326 403 c 0,42,43
 339 377 339 377 337 345 c 0,0,1
175 220 m 0,44,45
 191 219 191 219 205.5 223.5 c 128,-1,46
 220 228 220 228 234 237.5 c 128,-1,47
 248 247 248 247 258 258.5 c 128,-1,48
 268 270 268 270 275 284 c 128,-1,49
 282 298 282 298 284.5 312.5 c 128,-1,50
 287 327 287 327 287 341 c 0,51,52
 288 361 288 361 282 381.5 c 128,-1,53
 276 402 276 402 263 418.5 c 128,-1,54
 250 435 250 435 229 445.5 c 128,-1,55
 208 456 208 456 187 457 c 0,56,57
 173 458 173 458 152.5 451.5 c 128,-1,58
 132 445 132 445 114.5 431.5 c 128,-1,59
 97 418 97 418 85 396.5 c 128,-1,60
 73 375 73 375 73 345 c 0,61,62
 71 325 71 325 76.5 303.5 c 128,-1,63
 82 282 82 282 95 263.5 c 128,-1,64
 108 245 108 245 127.5 233 c 128,-1,65
 147 221 147 221 175 220 c 0,44,45
EndSplineSet
EndChar
StartChar: yen
Encoding: 165 165 258
Width: 477
Flags: W
LayerCount: 2
Fore
SplineSet
86 257 m 1,0,-1
 83 294 l 1,1,-1
 374 307 l 1,2,-1
 374 245 l 1,3,-1
 86 257 l 1,0,-1
92 346 m 1,4,-1
 95 411 l 1,5,-1
 380 371 l 1,6,-1
 383 335 l 1,7,-1
 92 346 l 1,4,-1
EndSplineSet
Refer: 57 89 N 0.8 0 0 0.8 -23 72 2
EndChar
StartChar: brokenbar
Encoding: 166 166 318
Width: 154
Flags: W
LayerCount: 2
Fore
SplineSet
93 350 m 1,0,-1
 93 31 l 1,1,-1
 38 36 l 1,2,-1
 43 356 l 1,3,-1
 93 350 l 1,0,-1
43 410 m 1,4,-1
 47 685 l 1,5,-1
 93 688 l 1,6,-1
 93 412 l 1,7,-1
 43 410 l 1,4,-1
EndSplineSet
EndChar
StartChar: section
Encoding: 167 167 319
Width: 441
Flags: W
LayerCount: 2
Fore
SplineSet
353 646 m 1,0,1
 353 646 353 646 260 662 c 0,2,3
 132 686 132 686 104 633 c 4,4,5
 80 588 80 588 90 539 c 4,6,7
 105 458 105 458 229 435 c 0,8,9
 353 413 353 413 386 319 c 0,10,11
 412 245 412 245 396 183 c 0,12,13
 384 135 384 135 359 89 c 1,14,15
 376 68 376 68 373 16 c 0,16,17
 370 -23 370 -23 349 -57 c 0,18,19
 308 -130 308 -130 204 -135 c 0,20,21
 161 -137 161 -137 127 -129 c 0,22,23
 76 -117 76 -117 38 -55 c 1,24,-1
 73 -22 l 1,25,26
 109 -65 109 -65 165 -80 c 0,27,28
 208 -90 208 -90 246 -70 c 0,29,30
 276 -54 276 -54 294 0 c 0,31,32
 308 41 308 41 258 53 c 0,33,34
 205 65 205 65 167 80 c 0,35,36
 101 107 101 107 74 140 c 0,37,38
 48 170 48 170 26 213 c 0,39,40
 -20 302 -20 302 53 460 c 1,41,42
 40 477 40 477 30 498 c 0,43,44
 18 523 18 523 8.5 569.5 c 128,-1,45
 -1 616 -1 616 17.5 660.5 c 128,-1,46
 36 705 36 705 66.5 721 c 128,-1,47
 97 737 97 737 139 743 c 0,48,49
 180 749 180 749 225 748 c 0,50,51
 284 745 284 745 309 741 c 0,52,53
 371 732 371 732 371 729 c 2,54,-1
 353 646 l 1,0,1
300 107 m 1,55,56
 308 124 308 124 319 156 c 0,57,58
 343 215 343 215 331 301 c 0,59,60
 321 376 321 376 166 393 c 0,61,62
 138 396 138 396 113 408 c 1,63,64
 81 335 81 335 79 309 c 0,65,66
 72 248 72 248 109.5 192.5 c 128,-1,67
 147 137 147 137 210.5 123 c 128,-1,68
 274 109 274 109 283 109 c 0,69,70
 291 108 291 108 300 107 c 1,55,56
EndSplineSet
EndChar
StartChar: dieresis
Encoding: 168 168 99
Width: 177
GlyphClass: 2
Flags: W
LayerCount: 2
Fore
SplineSet
129 748 m 0,0,1
 138 756 138 756 149.5 755.5 c 128,-1,2
 161 755 161 755 166 751 c 0,3,4
 174 745 174 745 176.5 735.5 c 128,-1,5
 179 726 179 726 173 717 c 0,6,7
 166 709 166 709 155 707 c 128,-1,8
 144 705 144 705 134 711 c 0,9,10
 125 716 125 716 123 727 c 128,-1,11
 121 738 121 738 129 748 c 0,0,1
61 721 m 0,12,13
 53 711 53 711 41.5 710 c 128,-1,14
 30 709 30 709 18 714 c 0,15,16
 7 720 7 720 4.5 732 c 128,-1,17
 2 744 2 744 8 755 c 0,18,19
 18 767 18 767 31 767.5 c 128,-1,20
 44 768 44 768 54 761 c 0,21,22
 64 753 64 753 65.5 742 c 128,-1,23
 67 731 67 731 61 721 c 0,12,13
EndSplineSet
EndChar
StartChar: copyright
Encoding: 169 169 100
Width: 614
GlyphClass: 2
Flags: W
LayerCount: 2
Fore
SplineSet
283 154 m 0,0,1
 321 152 321 152 366 164 c 128,-1,2
 411 176 411 176 449 205 c 128,-1,3
 487 234 487 234 511.5 280 c 128,-1,4
 536 326 536 326 534 390 c 0,5,6
 532 449 532 449 502.5 489 c 128,-1,7
 473 529 473 529 435.5 552 c 128,-1,8
 398 575 398 575 362.5 584 c 128,-1,9
 327 593 327 593 311 593 c 0,10,11
 197 600 197 600 119.5 532 c 128,-1,12
 42 464 42 464 42 348 c 0,13,14
 42 296 42 296 65 258 c 128,-1,15
 88 220 88 220 124.5 197 c 128,-1,16
 161 174 161 174 202.5 164 c 128,-1,17
 244 154 244 154 283 154 c 0,0,1
294 610 m 0,18,19
 330 610 330 610 375 600.5 c 128,-1,20
 420 591 420 591 462.5 565 c 128,-1,21
 505 539 505 539 535 492.5 c 128,-1,22
 565 446 565 446 570 370 c 1,23,24
 567 302 567 302 540.5 255.5 c 128,-1,25
 514 209 514 209 472.5 180.5 c 128,-1,26
 431 152 431 152 381.5 139 c 128,-1,27
 332 126 332 126 285 126 c 0,28,29
 249 126 249 126 198.5 134 c 128,-1,30
 148 142 148 142 104.5 169 c 128,-1,31
 61 196 61 196 33 243 c 128,-1,32
 5 290 5 290 10 367 c 0,33,34
 14 444 14 444 46.5 491.5 c 128,-1,35
 79 539 79 539 123 565 c 128,-1,36
 167 591 167 591 214 600.5 c 128,-1,37
 261 610 261 610 294 610 c 0,18,19
391 522 m 1,38,-1
 391 482 l 1,39,40
 337 494 337 494 292 490 c 0,41,42
 273 488 273 488 253.5 483 c 128,-1,43
 234 478 234 478 217.5 467 c 128,-1,44
 201 456 201 456 188 438 c 128,-1,45
 175 420 175 420 169 393 c 0,46,47
 166 378 166 378 165.5 360 c 128,-1,48
 165 342 165 342 170 323.5 c 128,-1,49
 175 305 175 305 187.5 288.5 c 128,-1,50
 200 272 200 272 223 260.5 c 128,-1,51
 246 249 246 249 280.5 244 c 128,-1,52
 315 239 315 239 365 243 c 1,53,-1
 368 230 l 2,54,55
 369 225 369 225 369.5 221 c 128,-1,56
 370 217 370 217 369 216 c 0,57,58
 345 213 345 213 316 214 c 128,-1,59
 287 215 287 215 257.5 221.5 c 128,-1,60
 228 228 228 228 202 242.5 c 128,-1,61
 176 257 176 257 158.5 281.5 c 128,-1,62
 141 306 141 306 136.5 342.5 c 128,-1,63
 132 379 132 379 144 430 c 0,64,65
 152 457 152 457 167.5 475 c 128,-1,66
 183 493 183 493 202 504 c 128,-1,67
 221 515 221 515 242.5 520.5 c 128,-1,68
 264 526 264 526 285 529 c 0,69,70
 334 533 334 533 391 522 c 1,38,-1
EndSplineSet
EndChar
StartChar: ordfeminine
Encoding: 170 170 320
Width: 143
Flags: W
LayerCount: 2
Fore
SplineSet
4 636 m 1,0,-1
 139 637 l 1,1,-1
 140 614 l 1,2,-1
 5 613 l 1,3,-1
 4 636 l 1,0,-1
65 658 m 0,4,5
 78 657 78 657 87.5 662 c 128,-1,6
 97 667 97 667 103.5 674 c 128,-1,7
 110 681 110 681 112 689.5 c 128,-1,8
 114 698 114 698 114 707 c 0,9,10
 115 716 115 716 113 724 c 128,-1,11
 111 732 111 732 105.5 739 c 128,-1,12
 100 746 100 746 91.5 750.5 c 128,-1,13
 83 755 83 755 72 755 c 0,14,15
 65 756 65 756 56.5 753.5 c 128,-1,16
 48 751 48 751 41 745 c 128,-1,17
 34 739 34 739 29.5 730.5 c 128,-1,18
 25 722 25 722 24 710 c 0,19,20
 24 705 24 705 24.5 699 c 128,-1,21
 25 693 25 693 27 687.5 c 128,-1,22
 29 682 29 682 32 677 c 128,-1,23
 35 672 35 672 39.5 668 c 128,-1,24
 44 664 44 664 50.5 661 c 128,-1,25
 57 658 57 658 65 658 c 0,4,5
137 764 m 1,26,-1
 136 645 l 1,27,-1
 115 646 l 1,28,-1
 116 665 l 1,29,30
 107 656 107 656 94.5 651 c 128,-1,31
 82 646 82 646 69 646 c 0,32,33
 54 646 54 646 42 650.5 c 128,-1,34
 30 655 30 655 20.5 664 c 128,-1,35
 11 673 11 673 7 685 c 128,-1,36
 3 697 3 697 4 712 c 0,37,38
 5 725 5 725 11 735.5 c 128,-1,39
 17 746 17 746 27 753.5 c 128,-1,40
 37 761 37 761 48.5 764.5 c 128,-1,41
 60 768 60 768 74 768 c 0,42,43
 86 768 86 768 97.5 763.5 c 128,-1,44
 109 759 109 759 116 751 c 1,45,-1
 117 764 l 1,46,-1
 137 764 l 1,26,-1
EndSplineSet
EndChar
StartChar: guillemotleft
Encoding: 171 171 259
Width: 418
Flags: W
LayerCount: 2
Fore
SplineSet
189 526 m 1,0,-1
 218 463 l 1,1,-1
 59 368 l 1,2,-1
 170 231 l 1,3,-1
 152 191 l 1,4,-1
 -1 372 l 1,5,-1
 189 526 l 1,0,-1
322 505 m 1,6,-1
 362 470 l 1,7,-1
 207 353 l 1,8,-1
 330 220 l 1,9,-1
 299 199 l 1,10,-1
 147 356 l 1,11,-1
 322 505 l 1,6,-1
EndSplineSet
EndChar
StartChar: logicalnot
Encoding: 172 172 101
Width: 363
GlyphClass: 2
Flags: W
LayerCount: 2
Fore
SplineSet
0 321 m 1,0,-1
 292 317 l 1,1,-1
 313 223 l 1,2,-1
 268 220 l 1,3,-1
 265 288 l 1,4,-1
 3 275 l 1,5,-1
 0 321 l 1,0,-1
EndSplineSet
EndChar
StartChar: registered
Encoding: 174 174 102
Width: 620
GlyphClass: 2
Flags: W
LayerCount: 2
Fore
SplineSet
283 137 m 0,0,1
 321 135 321 135 367.5 147 c 128,-1,2
 414 159 414 159 452 188.5 c 128,-1,3
 490 218 490 218 514.5 265 c 128,-1,4
 539 312 539 312 537 378 c 0,5,6
 534 438 534 438 504 479 c 128,-1,7
 474 520 474 520 435.5 543 c 128,-1,8
 397 566 397 566 361.5 577.5 c 128,-1,9
 326 589 326 589 311 589 c 0,10,11
 192 593 192 593 114 524 c 128,-1,12
 36 455 36 455 36 337 c 0,13,14
 36 282 36 282 60 243.5 c 128,-1,15
 84 205 84 205 120 182 c 128,-1,16
 156 159 156 159 200 148 c 128,-1,17
 244 137 244 137 283 137 c 0,0,1
295 603 m 128,-1,19
 329 603 329 603 376.5 593.5 c 128,-1,20
 424 584 424 584 467 557 c 128,-1,21
 510 530 510 530 540 482.5 c 128,-1,22
 570 435 570 435 575 358 c 1,23,24
 573 289 573 289 545 241.5 c 128,-1,25
 517 194 517 194 474.5 164.5 c 128,-1,26
 432 135 432 135 382 122 c 128,-1,27
 332 109 332 109 285 109 c 0,28,29
 249 109 249 109 197 118 c 128,-1,30
 145 127 145 127 101 153 c 128,-1,31
 57 179 57 179 28 227.5 c 128,-1,32
 -1 276 -1 276 4 355 c 0,33,34
 9 430 9 430 41.5 480 c 128,-1,35
 74 530 74 530 119 558 c 128,-1,36
 164 586 164 586 212.5 594.5 c 128,-1,18
 261 603 261 603 295 603 c 128,-1,19
219 371 m 1,37,38
 261 366 261 366 295 373 c 0,39,40
 324 378 324 378 349 392.5 c 128,-1,41
 374 407 374 407 374 441 c 0,42,43
 374 470 374 470 349 484.5 c 128,-1,44
 324 499 324 499 295 504 c 0,45,46
 261 510 261 510 219 504 c 1,47,-1
 219 371 l 1,37,38
187 525 m 1,48,49
 190 525 190 525 226.5 527.5 c 128,-1,50
 263 530 263 530 305 524 c 128,-1,51
 347 518 347 518 383 499.5 c 128,-1,52
 419 481 419 481 416 441 c 0,53,54
 414 404 414 404 390 385 c 128,-1,55
 366 366 366 366 337 355 c 0,56,57
 302 344 302 344 259 339 c 1,58,-1
 384 199 l 1,59,-1
 326 199 l 1,60,-1
 222 334 l 1,61,-1
 219 196 l 1,62,-1
 193 199 l 1,63,-1
 187 525 l 1,48,49
EndSplineSet
EndChar
StartChar: plusminus
Encoding: 177 177 323
Width: 303
Flags: W
LayerCount: 2
Fore
SplineSet
23 201 m 1,0,-1
 261 205 l 1,1,-1
 256 155 l 1,2,-1
 27 163 l 1,3,-1
 23 201 l 1,0,-1
260 316 m 1,4,-1
 159 318 l 1,5,-1
 156 224 l 1,6,-1
 124 224 l 1,7,-1
 120 318 l 1,8,-1
 0 318 l 1,9,-1
 6 356 l 1,10,-1
 120 356 l 1,11,-1
 118 473 l 1,12,-1
 161 473 l 1,13,-1
 159 356 l 1,14,-1
 262 357 l 1,15,-1
 260 316 l 1,4,-1
EndSplineSet
EndChar
StartChar: acute
Encoding: 180 180 103
Width: 143
GlyphClass: 2
Flags: W
LayerCount: 2
Fore
SplineSet
18 630 m 1,0,-1
 3 652 l 1,1,-1
 99 767 l 1,2,-1
 140 720 l 1,3,-1
 18 630 l 1,0,-1
EndSplineSet
EndChar
StartChar: paragraph
Encoding: 182 182 326
Width: 573
Flags: W
LayerCount: 2
Fore
SplineSet
551 714 m 1,0,-1
 551 641 l 1,1,-1
 483 645 l 1,2,-1
 471 0 l 1,3,-1
 415 0 l 1,4,-1
 427 648 l 1,5,-1
 370 651 l 1,6,-1
 352 0 l 1,7,-1
 286 0 l 1,8,-1
 285 290 l 1,9,10
 223 294 223 294 192 302 c 0,11,12
 107 326 107 326 74 363 c 128,-1,13
 41 400 41 400 23.5 441 c 128,-1,14
 6 482 6 482 9 537 c 0,15,16
 15 639 15 639 83 680 c 0,17,18
 134 714 134 714 222.5 716 c 128,-1,19
 311 718 311 718 372 717 c 2,20,-1
 551 714 l 1,0,-1
EndSplineSet
EndChar
StartChar: cedilla
Encoding: 184 184 104
Width: 139
GlyphClass: 2
Flags: W
LayerCount: 2
Fore
SplineSet
24 60 m 1,0,-1
 78 60 l 1,1,2
 73 52 73 52 69 45 c 0,3,4
 66 39 66 39 65.5 32 c 128,-1,5
 65 25 65 25 70 19 c 0,6,7
 74 14 74 14 82.5 13 c 128,-1,8
 91 12 91 12 100.5 10.5 c 128,-1,9
 110 9 110 9 118.5 5 c 128,-1,10
 127 1 127 1 133 -10.5 c 128,-1,11
 139 -22 139 -22 134 -34.5 c 128,-1,12
 129 -47 129 -47 113.5 -58.5 c 128,-1,13
 98 -70 98 -70 71 -77.5 c 128,-1,14
 44 -85 44 -85 5 -85 c 0,15,16
 4 -85 4 -85 5 -45 c 1,17,18
 33 -49 33 -49 54 -48 c 0,19,20
 72 -47 72 -47 88 -41.5 c 128,-1,21
 104 -36 104 -36 105 -18 c 0,22,23
 106 -5 106 -5 98 -2.5 c 128,-1,24
 90 0 90 0 78.5 -0.5 c 128,-1,25
 67 -1 67 -1 54.5 -1 c 128,-1,26
 42 -1 42 -1 36 6 c 0,27,28
 30 12 30 12 27.5 21.5 c 128,-1,29
 25 31 25 31 24 60 c 1,0,-1
EndSplineSet
EndChar
StartChar: ordmasculine
Encoding: 186 186 329
Width: 143
Flags: W
LayerCount: 2
Fore
SplineSet
4 636 m 1,0,-1
 139 637 l 1,1,-1
 140 614 l 1,2,-1
 5 613 l 1,3,-1
 4 636 l 1,0,-1
70 752 m 0,4,5
 62 752 62 752 53.5 748.5 c 128,-1,6
 45 745 45 745 39.5 740 c 128,-1,7
 34 735 34 735 31 728.5 c 128,-1,8
 28 722 28 722 27 711 c 0,9,10
 27 700 27 700 30.5 689.5 c 128,-1,11
 34 679 34 679 40.5 672 c 128,-1,12
 47 665 47 665 54.5 662 c 128,-1,13
 62 659 62 659 75 659 c 0,14,15
 85 660 85 660 89.5 662.5 c 128,-1,16
 94 665 94 665 98 668 c 128,-1,17
 102 671 102 671 106 675.5 c 128,-1,18
 110 680 110 680 112.5 686 c 128,-1,19
 115 692 115 692 116 699 c 0,20,21
 117 715 117 715 112.5 725 c 128,-1,22
 108 735 108 735 101.5 740.5 c 128,-1,23
 95 746 95 746 89 749 c 128,-1,24
 83 752 83 752 70 752 c 0,4,5
73 646 m 0,25,26
 67 646 67 646 60 647 c 128,-1,27
 53 648 53 648 46 650.5 c 128,-1,28
 39 653 39 653 32.5 658 c 128,-1,29
 26 663 26 663 19.5 669.5 c 128,-1,30
 13 676 13 676 8.5 685 c 128,-1,31
 4 694 4 694 4 707 c 0,32,33
 4 720 4 720 6.5 728 c 128,-1,34
 9 736 9 736 14.5 743 c 128,-1,35
 20 750 20 750 27 755 c 128,-1,36
 34 760 34 760 41.5 763 c 128,-1,37
 49 766 49 766 56 767 c 128,-1,38
 63 768 63 768 74 768 c 0,39,40
 85 767 85 767 95 763.5 c 128,-1,41
 105 760 105 760 114.5 752.5 c 128,-1,42
 124 745 124 745 130.5 734 c 128,-1,43
 137 723 137 723 137 707 c 0,44,45
 137 694 137 694 133.5 684.5 c 128,-1,46
 130 675 130 675 124.5 668.5 c 128,-1,47
 119 662 119 662 112 657.5 c 128,-1,48
 105 653 105 653 98.5 650.5 c 128,-1,49
 92 648 92 648 84.5 647 c 128,-1,50
 77 646 77 646 73 646 c 0,25,26
EndSplineSet
EndChar
StartChar: guillemotright
Encoding: 187 187 260
Width: 418
Flags: W
LayerCount: 2
Fore
SplineSet
172 526 m 1,0,-1
 362 372 l 1,1,-1
 210 191 l 1,2,-1
 191 231 l 1,3,-1
 302 368 l 1,4,-1
 143 463 l 1,5,-1
 172 526 l 1,0,-1
40 505 m 1,6,-1
 214 356 l 1,7,-1
 62 199 l 1,8,-1
 32 220 l 1,9,-1
 155 353 l 1,10,-1
 -1 470 l 1,11,-1
 40 505 l 1,6,-1
EndSplineSet
EndChar
StartChar: onequarter
Encoding: 188 188 330
Width: 514
Flags: W
LayerCount: 2
Fore
SplineSet
433 730 m 1,0,-1
 487 701 l 1,1,-1
 36 44 l 1,2,-1
 0 77 l 1,3,-1
 433 730 l 1,0,-1
303 151 m 1,4,-1
 388 155 l 1,5,-1
 387 271 l 1,6,-1
 303 151 l 1,4,-1
432 121 m 1,7,-1
 436 30 l 1,8,-1
 393 26 l 1,9,-1
 390 121 l 1,10,-1
 248 120 l 1,11,-1
 402 331 l 1,12,-1
 423 332 l 1,13,-1
 431 156 l 1,14,-1
 487 160 l 1,15,-1
 487 121 l 1,16,-1
 433 122 l 1,17,-1
 432 121 l 1,7,-1
16 417 m 1,18,-1
 26 715 l 1,19,-1
 53 716 l 1,20,-1
 62 417 l 1,21,-1
 16 417 l 1,18,-1
EndSplineSet
EndChar
StartChar: onehalf
Encoding: 189 189 331
Width: 513
Flags: W
LayerCount: 2
Fore
SplineSet
433 730 m 1,0,-1
 487 701 l 1,1,-1
 36 44 l 1,2,-1
 0 77 l 1,3,-1
 433 730 l 1,0,-1
254 304 m 1,4,5
 264 310 264 310 283.5 317 c 128,-1,6
 303 324 303 324 325.5 328 c 128,-1,7
 348 332 348 332 372.5 332 c 128,-1,8
 397 332 397 332 418 325 c 128,-1,9
 439 318 439 318 454.5 304.5 c 128,-1,10
 470 291 470 291 475 266 c 0,11,12
 479 248 479 248 476 229.5 c 128,-1,13
 473 211 473 211 466 193 c 128,-1,14
 459 175 459 175 447.5 158 c 128,-1,15
 436 141 436 141 424 126 c 0,16,17
 395 91 395 91 356 58 c 1,18,-1
 486 62 l 1,19,-1
 487 33 l 1,20,21
 432 32 432 32 389 32 c 0,22,23
 371 32 371 32 353.5 32 c 128,-1,24
 336 32 336 32 322.5 32 c 128,-1,25
 309 32 309 32 300 33 c 2,26,-1
 292 33 l 1,27,28
 309 46 309 46 326 64 c 128,-1,29
 343 82 343 82 358 100.5 c 128,-1,30
 373 119 373 119 401 158 c 0,31,32
 408 168 408 168 415 181 c 128,-1,33
 422 194 422 194 426 208 c 128,-1,34
 430 222 430 222 430 237 c 128,-1,35
 430 252 430 252 424 263.5 c 128,-1,36
 418 275 418 275 405.5 283.5 c 128,-1,37
 393 292 393 292 373 294 c 0,38,39
 350 297 350 297 333.5 294 c 128,-1,40
 317 291 317 291 305.5 285 c 128,-1,41
 294 279 294 279 286.5 272.5 c 128,-1,42
 279 266 279 266 274 264 c 1,43,44
 274 264 274 264 254 304 c 1,4,5
16 417 m 1,45,-1
 26 715 l 1,46,-1
 53 716 l 1,47,-1
 62 417 l 1,48,-1
 16 417 l 1,45,-1
EndSplineSet
EndChar
StartChar: threequarters
Encoding: 190 190 332
Width: 514
Flags: W
LayerCount: 2
Fore
SplineSet
433 730 m 1,0,-1
 487 701 l 1,1,-1
 36 44 l 1,2,-1
 0 77 l 1,3,-1
 433 730 l 1,0,-1
303 151 m 1,4,-1
 388 155 l 1,5,-1
 387 271 l 1,6,-1
 303 151 l 1,4,-1
432 121 m 1,7,-1
 436 30 l 1,8,-1
 393 26 l 1,9,-1
 390 121 l 1,10,-1
 248 120 l 1,11,-1
 402 331 l 1,12,-1
 423 332 l 1,13,-1
 431 156 l 1,14,-1
 487 160 l 1,15,-1
 487 121 l 1,16,-1
 433 122 l 1,17,-1
 432 121 l 1,7,-1
0 703 m 1,18,19
 23 711 23 711 47 714.5 c 128,-1,20
 71 718 71 718 94.5 717.5 c 128,-1,21
 118 717 118 717 140 712.5 c 128,-1,22
 162 708 162 708 178.5 700 c 128,-1,23
 195 692 195 692 204.5 681.5 c 128,-1,24
 214 671 214 671 214 656 c 0,25,26
 215 639 215 639 209.5 626 c 128,-1,27
 204 613 204 613 195 603.5 c 128,-1,28
 186 594 186 594 176 587.5 c 128,-1,29
 166 581 166 581 156.5 576.5 c 128,-1,30
 147 572 147 572 141.5 570 c 128,-1,31
 136 568 136 568 136 568 c 257,32,33
 136 568 136 568 145.5 564.5 c 128,-1,34
 155 561 155 561 166.5 553 c 128,-1,35
 178 545 178 545 188.5 531 c 128,-1,36
 199 517 199 517 201 498 c 0,37,38
 201 481 201 481 193 468 c 128,-1,39
 185 455 185 455 172.5 446.5 c 128,-1,40
 160 438 160 438 143.5 433 c 128,-1,41
 127 428 127 428 110 426 c 0,42,43
 70 420 70 420 18 424 c 1,44,-1
 18 449 l 1,45,46
 55 445 55 445 83 449 c 0,47,48
 95 450 95 450 107 453.5 c 128,-1,49
 119 457 119 457 127.5 462.5 c 128,-1,50
 136 468 136 468 141.5 477 c 128,-1,51
 147 486 147 486 147 500 c 0,52,53
 147 510 147 510 143 518 c 128,-1,54
 139 526 139 526 132.5 532 c 128,-1,55
 126 538 126 538 117.5 541 c 128,-1,56
 109 544 109 544 99 546 c 0,57,58
 79 550 79 550 52 548 c 1,59,60
 51 577 51 577 52 577 c 1,61,62
 52 578 52 578 60.5 578 c 128,-1,63
 69 578 69 578 81 579 c 128,-1,64
 93 580 93 580 107.5 584 c 128,-1,65
 122 588 122 588 133.5 595 c 128,-1,66
 145 602 145 602 153 615 c 128,-1,67
 161 628 161 628 161 646 c 0,68,69
 161 665 161 665 150.5 675 c 128,-1,70
 140 685 140 685 124.5 688.5 c 128,-1,71
 109 692 109 692 90.5 690.5 c 128,-1,72
 72 689 72 689 55.5 684.5 c 128,-1,73
 39 680 39 680 10 664 c 1,74,75
 10 666 10 666 0 703 c 1,18,19
EndSplineSet
EndChar
StartChar: AE
Encoding: 198 198 112
Width: 681
GlyphClass: 2
Flags: W
AnchorPoint: "top" 369 737 basechar 0
LayerCount: 2
Fore
SplineSet
629 717 m 1,0,-1
 629 627 l 1,1,-1
 307 628 l 1,2,-1
 308 386 l 1,3,-1
 552 404 l 1,4,-1
 554 328 l 1,5,-1
 311 322 l 1,6,-1
 318 52 l 1,7,-1
 612 71 l 1,8,-1
 613 2 l 1,9,-1
 247 0 l 1,10,-1
 247 324 l 1,11,-1
 161 325 l 1,12,-1
 50 -1 l 1,13,-1
 4 2 l 1,14,-1
 241 707 l 1,15,-1
 629 717 l 1,0,-1
247 378 m 1,16,-1
 247 573 l 1,17,-1
 176 372 l 1,18,-1
 247 378 l 1,16,-1
EndSplineSet
EndChar
StartChar: Eth
Encoding: 208 208 122
AltUni2: 000189.ffffffff.0 000110.ffffffff.0
Width: 825
GlyphClass: 2
Flags: W
AnchorPoint: "top" 427 697 basechar 0
AnchorPoint: "bottom" 422 -31 basechar 0
AnchorPoint: "bottomattside" 504 22 basechar 0
AnchorPoint: "bottomatt" 430 13 basechar 0
LayerCount: 2
Fore
SplineSet
0 344 m 5,0,-1
 284 356 l 5,1,-1
 280 282 l 5,2,-1
 3 281 l 5,3,-1
 0 344 l 5,0,-1
EndSplineSet
Refer: 36 68 N 1 0 0 1 79 0 2
EndChar
StartChar: multiply
Encoding: 215 215 129
Width: 408
GlyphClass: 2
Flags: W
LayerCount: 2
Fore
SplineSet
313 181 m 1,0,-1
 177 311 l 1,1,-1
 68 186 l 1,2,-1
 7 186 l 1,3,-1
 147 338 l 1,4,-1
 0 465 l 1,5,-1
 58 466 l 1,6,-1
 168 364 l 1,7,-1
 252 456 l 1,8,-1
 303 454 l 1,9,-1
 195 336 l 1,10,-1
 364 182 l 1,11,-1
 313 181 l 1,0,-1
EndSplineSet
EndChar
StartChar: Oslash
Encoding: 216 216 130
Width: 870
GlyphClass: 2
Flags: W
AnchorPoint: "top" 425 748 basechar 0
AnchorPoint: "bottom" 420 -31 basechar 0
AnchorPoint: "bottomattside" 549 10 basechar 0
LayerCount: 2
Fore
SplineSet
117 43 m 1,0,-1
 644 723 l 1,1,-1
 697 673 l 1,2,-1
 150 17 l 1,3,-1
 117 43 l 1,0,-1
EndSplineSet
Refer: 47 79 S 1 0 0 1 0 0 2
EndChar
StartChar: Thorn
Encoding: 222 222 136
Width: 532
GlyphClass: 2
Flags: W
LayerCount: 2
Fore
SplineSet
91 579 m 2,0,1
 91 581 91 581 174 581 c 0,2,3
 213 581 213 581 254 575 c 0,4,5
 293 570 293 570 332 558 c 0,6,7
 370 546 370 546 401 524 c 0,8,9
 432 502 432 502 452 471 c 0,10,11
 474 432 474 432 474 392 c 0,12,13
 474 347 474 347 458 313 c 0,14,15
 439 280 439 280 410 257 c 0,16,17
 380 233 380 233 343 219 c 0,18,19
 304 204 304 204 265 195 c 0,20,21
 224 187 224 187 186 182 c 0,22,23
 137 178 137 178 103 178 c 1,24,-1
 103 228 l 1,25,26
 158 230 158 230 166 230 c 0,27,28
 180 230 180 230 225 239 c 0,29,30
 256 245 256 245 288 255 c 0,31,32
 318 265 318 265 343 282 c 0,33,34
 367 299 367 299 382 323 c 0,35,36
 396 350 396 350 395 380 c 0,37,38
 393 416 393 416 378 440 c 0,39,40
 361 465 361 465 336 480 c 0,41,42
 309 495 309 495 279 504 c 0,43,44
 246 512 246 512 215 515 c 0,45,46
 183 517 183 517 154 517 c 0,47,48
 127 516 127 516 92 515 c 1,49,-1
 91 579 l 2,0,1
111 0 m 1,50,-1
 43 0 l 1,51,-1
 0 718 l 1,52,-1
 89 718 l 1,53,-1
 111 0 l 1,50,-1
EndSplineSet
EndChar
StartChar: germandbls
Encoding: 223 223 137
Width: 507
GlyphClass: 2
Flags: W
LayerCount: 2
Fore
SplineSet
159 100 m 1,0,1
 159 92 159 92 168 74 c 0,2,3
 183 46 183 46 205 30 c 0,4,5
 237 6 237 6 283 7 c 128,-1,6
 329 8 329 8 368.5 31 c 128,-1,7
 408 54 408 54 432 99 c 0,8,9
 460 148 460 148 460 216 c 0,10,11
 460 267 460 267 442 308 c 0,12,13
 428 344 428 344 409.5 365.5 c 128,-1,14
 391 387 391 387 368.5 399.5 c 128,-1,15
 346 412 346 412 326.5 419 c 128,-1,16
 307 426 307 426 281 429 c 1,17,18
 309 436 309 436 329 449.5 c 128,-1,19
 349 463 349 463 367 490.5 c 128,-1,20
 385 518 385 518 384 564 c 0,21,22
 384 583 384 583 376 608 c 0,23,24
 370 626 370 626 352.5 649 c 128,-1,25
 335 672 335 672 305.5 690.5 c 128,-1,26
 276 709 276 709 230 715 c 0,27,28
 190 720 190 720 142 711 c 0,29,30
 91 700 91 700 68 674.5 c 128,-1,31
 45 649 45 649 39 616 c 0,32,33
 32 582 32 582 33 548 c 2,34,-1
 47 -3 l 1,35,-1
 138 4 l 1,36,-1
 92 579 l 2,37,38
 89 613 89 613 111 637 c 0,39,40
 129 655 129 655 169.5 663 c 128,-1,41
 210 671 210 671 242.5 662.5 c 128,-1,42
 275 654 275 654 293 628.5 c 128,-1,43
 311 603 311 603 313 570 c 0,44,45
 314 542 314 542 309.5 527 c 128,-1,46
 305 512 305 512 297.5 500 c 128,-1,47
 290 488 290 488 281 481 c 0,48,49
 270 471 270 471 245 465 c 0,50,51
 230 461 230 461 188 459 c 1,52,-1
 207 390 l 1,53,54
 258 393 258 393 294 378 c 1,55,56
 352 342 352 342 368 319 c 0,57,58
 390 287 390 287 394 270 c 0,59,60
 405 232 405 232 404 206 c 0,61,62
 404 161 404 161 377 118 c 0,63,64
 353 80 353 80 306 71.5 c 128,-1,65
 259 63 259 63 241 90 c 0,66,67
 233 102 233 102 227 127 c 1,68,69
 228 127 228 127 159 100 c 1,0,1
EndSplineSet
EndChar
StartChar: ae
Encoding: 230 230 144
Width: 1059
GlyphClass: 2
Flags: W
AnchorPoint: "top" 543 522 basechar 0
LayerCount: 2
Fore
SplineSet
929 273 m 1,0,1
 926 310 926 310 912 338 c 128,-1,2
 898 366 898 366 877 386 c 128,-1,3
 856 406 856 406 828.5 417.5 c 128,-1,4
 801 429 801 429 771 434 c 0,5,6
 734 439 734 439 698.5 430.5 c 128,-1,7
 663 422 663 422 635 401.5 c 128,-1,8
 607 381 607 381 590 350 c 0,9,10
 580 334 580 334 574 315 c 1,11,-1
 574 285 l 1,12,-1
 929 273 l 1,0,1
1019 226 m 1,13,14
 1025 225 1025 225 1008.5 224.5 c 128,-1,15
 992 224 992 224 962 224 c 128,-1,16
 932 224 932 224 891 224 c 128,-1,17
 850 224 850 224 807 224 c 128,-1,18
 764 224 764 224 721.5 224 c 128,-1,19
 679 224 679 224 645 224 c 128,-1,20
 611 224 611 224 590 224 c 0,21,22
 579 224 579 224 573 224 c 1,23,-1
 573 198 l 1,24,25
 577 184 577 184 586 170 c 0,26,27
 600 145 600 145 619.5 127.5 c 128,-1,28
 639 110 639 110 662 97.5 c 128,-1,29
 685 85 685 85 707 81 c 0,30,31
 720 77 720 77 740 75.5 c 128,-1,32
 760 74 760 74 786 75.5 c 128,-1,33
 812 77 812 77 844.5 83.5 c 128,-1,34
 877 90 877 90 914 105 c 1,35,-1
 931 27 l 1,36,37
 901 13 901 13 864 6 c 128,-1,38
 827 -1 827 -1 790.5 -1.5 c 128,-1,39
 754 -2 754 -2 720.5 2.5 c 128,-1,40
 687 7 687 7 665 18 c 0,41,42
 638 29 638 29 612 45 c 0,43,44
 590 59 590 59 571 78 c 1,45,-1
 570 4 l 1,46,-1
 492 5 l 1,47,-1
 495 78 l 1,48,49
 457 43 457 43 407 25.5 c 128,-1,50
 357 8 357 8 301 7 c 0,51,52
 242 6 242 6 191.5 25 c 128,-1,53
 141 44 141 44 105.5 78.5 c 128,-1,54
 70 113 70 113 52 160 c 128,-1,55
 34 207 34 207 39 262 c 0,56,57
 44 316 44 316 69 357.5 c 128,-1,58
 94 399 94 399 132.5 427 c 128,-1,59
 171 455 171 455 220.5 469 c 128,-1,60
 270 483 270 483 326 483 c 0,61,62
 376 483 376 483 422.5 465 c 128,-1,63
 469 447 469 447 504 415 c 1,64,-1
 506 466 l 1,65,-1
 577 466 l 1,66,-1
 575 425 l 1,67,68
 601 447 601 447 631 462 c 0,69,70
 663 478 663 478 698 486 c 128,-1,71
 733 494 733 494 767 493 c 0,72,73
 828 491 828 491 876.5 471 c 128,-1,74
 925 451 925 451 957 415.5 c 128,-1,75
 989 380 989 380 1005 331.5 c 128,-1,76
 1021 283 1021 283 1019 226 c 1,13,14
286 54 m 0,77,78
 341 52 341 52 381 69 c 128,-1,79
 421 86 421 86 446 113.5 c 128,-1,80
 471 141 471 141 483.5 175.5 c 128,-1,81
 496 210 496 210 497 243 c 0,82,83
 498 278 498 278 487.5 311.5 c 128,-1,84
 477 345 477 345 454.5 371.5 c 128,-1,85
 432 398 432 398 396.5 415 c 128,-1,86
 361 432 361 432 314 433 c 0,87,88
 285 434 285 434 252 424.5 c 128,-1,89
 219 415 219 415 190.5 393.5 c 128,-1,90
 162 372 162 372 142 338.5 c 128,-1,91
 122 305 122 305 120 257 c 0,92,93
 119 235 119 235 121.5 212 c 128,-1,94
 124 189 124 189 132 167 c 128,-1,95
 140 145 140 145 152.5 125 c 128,-1,96
 165 105 165 105 184 90 c 128,-1,97
 203 75 203 75 228 65 c 128,-1,98
 253 55 253 55 286 54 c 0,77,78
EndSplineSet
EndChar
StartChar: eth
Encoding: 240 240 154
Width: 599
GlyphClass: 2
Flags: W
LayerCount: 2
Fore
SplineSet
486 229 m 0,0,1
 488 265 488 265 476.5 298.5 c 128,-1,2
 465 332 465 332 441 358.5 c 128,-1,3
 417 385 417 385 381 402 c 128,-1,4
 345 419 345 419 297 421 c 0,5,6
 262 423 262 423 226 412.5 c 128,-1,7
 190 402 190 402 159.5 379.5 c 128,-1,8
 129 357 129 357 108.5 322 c 128,-1,9
 88 287 88 287 86 237 c 0,10,11
 84 203 84 203 93.5 169 c 128,-1,12
 103 135 103 135 125 107.5 c 128,-1,13
 147 80 147 80 182 61.5 c 128,-1,14
 217 43 217 43 266 42 c 0,15,16
 322 40 322 40 363 56 c 128,-1,17
 404 72 404 72 431 99 c 128,-1,18
 458 126 458 126 471.5 160 c 128,-1,19
 485 194 485 194 486 229 c 0,0,1
394 634 m 1,20,21
 444 586 444 586 478 539.5 c 128,-1,22
 512 493 512 493 532 445.5 c 128,-1,23
 552 398 552 398 559.5 350 c 128,-1,24
 567 302 567 302 565 252 c 0,25,26
 563 190 563 190 539.5 141 c 128,-1,27
 516 92 516 92 477.5 59.5 c 128,-1,28
 439 27 439 27 389.5 10 c 128,-1,29
 340 -7 340 -7 287 -8 c 0,30,31
 226 -9 226 -9 172 9 c 128,-1,32
 118 27 118 27 79 60 c 128,-1,33
 40 93 40 93 19 139 c 128,-1,34
 -2 185 -2 185 2 240 c 0,35,36
 6 296 6 296 31.5 341.5 c 128,-1,37
 57 387 57 387 97 419.5 c 128,-1,38
 137 452 137 452 190 468.5 c 128,-1,39
 243 485 243 485 303 485 c 0,40,41
 342 484 342 484 380.5 474 c 128,-1,42
 419 464 419 464 453 444 c 1,43,44
 443 461 443 461 435 477 c 128,-1,45
 427 493 427 493 416.5 509 c 128,-1,46
 406 525 406 525 389.5 544.5 c 128,-1,47
 373 564 373 564 346 590 c 1,48,-1
 294 540 l 1,49,-1
 254 579 l 1,50,-1
 310 632 l 1,51,52
 297 646 297 646 279.5 660 c 128,-1,53
 262 674 262 674 245 688 c 1,54,-1
 290 731 l 1,55,56
 305 717 305 717 324 701.5 c 128,-1,57
 343 686 343 686 356 672 c 1,58,-1
 398 712 l 1,59,-1
 439 676 l 1,60,-1
 394 634 l 1,20,21
EndSplineSet
EndChar
StartChar: oslash
Encoding: 248 248 162
Width: 622
GlyphClass: 2
Flags: W
AnchorPoint: "bottomatt" 317 -3 basechar 0
AnchorPoint: "top" 276 512 basechar 0
AnchorPoint: "bottom" 292 -36 basechar 0
AnchorPoint: "bottomattside" 390 4 basechar 0
LayerCount: 2
Fore
SplineSet
54 36 m 1,0,-1
 452 495 l 1,1,-1
 511 451 l 1,2,-1
 90 7 l 1,3,-1
 54 36 l 1,0,-1
EndSplineSet
Refer: 79 111 N 1 0 0 1 0 0 2
EndChar
StartChar: thorn
Encoding: 254 254 168
Width: 586
GlyphClass: 2
Flags: W
LayerCount: 2
Fore
SplineSet
90 -219 m 1,0,-1
 35 -219 l 1,1,-1
 0 718 l 1,2,-1
 89 718 l 1,3,-1
 89 426 l 1,4,5
 123 459 123 459 167 474.5 c 128,-1,6
 211 490 211 490 261 493 c 0,7,8
 314 496 314 496 361.5 484 c 128,-1,9
 409 472 409 472 445.5 445.5 c 128,-1,10
 482 419 482 419 507 377 c 0,11,12
 534 331 534 331 539 278 c 0,13,14
 544 222 544 222 527 172.5 c 128,-1,15
 510 123 510 123 478.5 83 c 128,-1,16
 447 43 447 43 396.5 18 c 128,-1,17
 346 -7 346 -7 288 -5 c 0,18,19
 261 -4 261 -4 235 0.5 c 128,-1,20
 209 5 209 5 184 15 c 128,-1,21
 159 25 159 25 131 41 c 0,22,23
 107 53 107 53 90 66 c 1,24,-1
 90 -219 l 1,0,-1
95 252 m 0,25,26
 95 214 95 214 106.5 177.5 c 128,-1,27
 118 141 118 141 142.5 113.5 c 128,-1,28
 167 86 167 86 207 70.5 c 128,-1,29
 247 55 247 55 302 61 c 0,30,31
 335 64 335 64 359.5 75 c 128,-1,32
 384 86 384 86 402.5 101.5 c 128,-1,33
 421 117 421 117 433.5 136.5 c 128,-1,34
 446 156 446 156 454.5 177.5 c 128,-1,35
 463 199 463 199 465.5 221.5 c 128,-1,36
 468 244 468 244 467 265 c 0,37,38
 465 313 465 313 445.5 347.5 c 128,-1,39
 426 382 426 382 397.5 403.5 c 128,-1,40
 369 425 369 425 336 434.5 c 128,-1,41
 303 444 303 444 274 444 c 0,42,43
 228 443 228 443 194 426 c 128,-1,44
 160 409 160 409 137.5 382 c 128,-1,45
 115 355 115 355 104 321 c 128,-1,46
 93 287 93 287 95 252 c 0,25,26
EndSplineSet
EndChar
StartChar: dcroat
Encoding: 273 273 441
Width: 631
Flags: W
AnchorPoint: "top" 307 717 basechar 0
AnchorPoint: "bottom" 297 -31 basechar 0
AnchorPoint: "bottomattside" 525 2 basechar 0
AnchorPoint: "bottomatt" 321 10 basechar 0
LayerCount: 2
Fore
SplineSet
362 616 m 5,0,-1
 646 629 l 5,1,-1
 643 573 l 5,2,-1
 367 572 l 5,3,-1
 362 616 l 5,0,-1
EndSplineSet
Refer: 68 100 N 1 0 0 1 0 0 2
EndChar
StartChar: Hbar
Encoding: 294 294 439
Width: 825
Flags: W
AnchorPoint: "top" 381 717 basechar 0
AnchorPoint: "bottom" 371 -31 basechar 0
AnchorPoint: "bottomattside" 640 16 basechar 0
AnchorPoint: "bottomatt" 401 17 basechar 0
LayerCount: 2
Fore
SplineSet
-1 465 m 5,0,-1
 729 477 l 5,1,-1
 725 420 l 1,2,-1
 2 419 l 1,3,-1
 -1 465 l 5,0,-1
EndSplineSet
Refer: 40 72 N 1 0 0 1 63 0 2
EndChar
StartChar: hbar
Encoding: 295 295 440
Width: 592
Flags: W
AnchorPoint: "top" 87 736 basechar 0
AnchorPoint: "bottom" 303 -31 basechar 0
AnchorPoint: "bottomattside" 482 12 basechar 0
AnchorPoint: "bottomatt" 324 20 basechar 0
LayerCount: 2
Fore
SplineSet
0 602 m 5,0,-1
 284 624 l 5,1,-1
 285 581 l 5,2,-1
 3 555 l 5,3,-1
 0 602 l 5,0,-1
EndSplineSet
Refer: 72 104 N 1 0 0 1 57 0 2
EndChar
StartChar: dotlessi
Encoding: 305 305 255
AltUni2: 0003b9.ffffffff.0
Width: 244
Flags: W
AnchorPoint: "bottomatt" 123 13 basechar 0
AnchorPoint: "bottom" 97 -31 basechar 0
AnchorPoint: "bottomattside" 79 5 basechar 0
AnchorPoint: "top" 108 497 basechar 0
LayerCount: 2
Fore
SplineSet
163 461 m 1,0,-1
 154 0 l 1,1,-1
 44 1 l 1,2,-1
 60 460 l 1,3,-1
 163 461 l 1,0,-1
EndSplineSet
EndChar
StartChar: Lslash
Encoding: 321 321 176
Width: 565
GlyphClass: 2
Flags: W
AnchorPoint: "top" 59 739 basechar 0
AnchorPoint: "bottom" 256 -31 basechar 0
AnchorPoint: "bottomattside" 505 7 basechar 0
AnchorPoint: "bottomatt" 294 10 basechar 0
LayerCount: 2
Fore
SplineSet
-54 301 m 1,0,-1
 -83 343 l 1,1,-1
 336 494 l 1,2,-1
 348 467 l 1,3,-1
 -54 301 l 1,0,-1
EndSplineSet
Refer: 44 76 S 1 0 0 1 0 0 2
EndChar
StartChar: lslash
Encoding: 322 322 177
Width: 171
GlyphClass: 2
Flags: W
AnchorPoint: "top" 77 758 basechar 0
AnchorPoint: "bottom" 82 -26 basechar 0
AnchorPoint: "bottomattside" 72 4 basechar 0
AnchorPoint: "bottomatt" 110 13 basechar 0
LayerCount: 2
Fore
SplineSet
-59 352 m 1,0,-1
 -77 397 l 1,1,-1
 247 507 l 1,2,-1
 254 479 l 1,3,-1
 -59 352 l 1,0,-1
EndSplineSet
Refer: 76 108 S 1 0 0 1 0 0 2
EndChar
StartChar: Eng
Encoding: 330 330 462
Width: 766
Flags: W
AnchorPoint: "bottom" 529 -265 basechar 0
AnchorPoint: "bottomattside" 637 -209 basechar 0
AnchorPoint: "top" 374 712 basechar 0
LayerCount: 2
Fore
SplineSet
650 9 m 1,0,1
 650 9 650 9 81 586 c 1,2,-1
 89 0 l 1,3,-1
 20 0 l 1,4,-1
 20 717 l 1,5,-1
 67 717 l 1,6,-1
 644 118 l 5,7,-1
 638 711 l 5,8,-1
 712 708 l 1,9,-1
 709 10 l 0,10,11
 713 -230 713 -230 553 -238 c 0,12,13
 463 -242 463 -242 408 -197 c 1,14,-1
 440 -146 l 0,15,16
 496 -181 496 -181 555 -182 c 0,17,18
 649 -185 649 -185 650 9 c 1,0,1
EndSplineSet
EndChar
StartChar: eng
Encoding: 331 331 467
Width: 617
Flags: W
AnchorPoint: "bottomattside" 451 -210 basechar 0
AnchorPoint: "bottom" 343 -266 basechar 0
AnchorPoint: "top" 282 527 basechar 0
LayerCount: 2
Fore
SplineSet
254 -147 m 0,0,1
 478 -263 478 -263 492 19 c 2,2,3
 494 20 494 20 496 101 c 16,4,5
 499 190 499 190 496 218 c 0,6,7
 492 255 492 255 488 290 c 128,-1,8
 484 325 484 325 474 355 c 128,-1,10
 464 385 464 385 447.5 407 c 128,-1,11
 431 429 431 429 407 440 c 0,12,13
 376 455 376 455 295 447 c 0,14,15
 261 444 261 444 231 429.5 c 128,-1,16
 201 415 201 415 177.5 388.5 c 128,-1,17
 154 362 154 362 139 324 c 0,18,19
 123 279 123 279 124 237 c 2,20,-1
 128 72 l 1,21,-1
 132 1 l 1,22,-1
 52 0 l 1,23,-1
 39 471 l 1,24,-1
 114 472 l 1,25,-1
 116 420 l 1,26,27
 149 449 149 449 185 466 c 128,-1,28
 221 483 221 483 262 493 c 0,29,30
 327 508 327 508 375 503.5 c 128,-1,31
 423 499 423 499 459.5 473 c 128,-1,32
 496 447 496 447 518.5 405.5 c 128,-1,33
 541 364 541 364 547 306 c 0,34,35
 556 235 556 235 557 177 c 0,36,37
 559 95 559 95 560 18 c 0,38,39
 564 -230 564 -230 367 -239 c 0,40,41
 277 -243 277 -243 221 -198 c 1,42,-1
 254 -147 l 0,0,1
EndSplineSet
EndChar
StartChar: OE
Encoding: 338 338 180
Width: 790
GlyphClass: 2
Flags: W
LayerCount: 2
Fore
SplineSet
318 707 m 1,0,-1
 735 716 l 1,1,-1
 735 627 l 1,2,-1
 369 630 l 1,3,-1
 372 385 l 1,4,-1
 674 402 l 1,5,-1
 675 326 l 1,6,-1
 376 321 l 1,7,-1
 379 53 l 1,8,-1
 718 69 l 1,9,-1
 720 0 l 1,10,-1
 318 0 l 2,11,12
 294 -1 294 -1 262 3.5 c 128,-1,13
 230 8 230 8 195.5 22 c 128,-1,14
 161 36 161 36 126 60.5 c 128,-1,15
 91 85 91 85 63.5 123.5 c 128,-1,16
 36 162 36 162 19 216 c 128,-1,17
 2 270 2 270 2 344 c 0,18,19
 2 429 2 429 18 488 c 128,-1,20
 34 547 34 547 60 587 c 128,-1,21
 86 627 86 627 120 650 c 128,-1,22
 154 673 154 673 189 684.5 c 128,-1,23
 224 696 224 696 258 701 c 128,-1,24
 292 706 292 706 318 708 c 1,25,-1
 318 707 l 1,0,-1
314 49 m 1,26,-1
 314 630 l 1,27,28
 312 630 312 630 308 631 c 0,29,30
 305 631 305 631 300 631.5 c 128,-1,31
 295 632 295 632 290 632 c 0,32,33
 275 632 275 632 251.5 629 c 128,-1,34
 228 626 228 626 202.5 614.5 c 128,-1,35
 177 603 177 603 152 583 c 128,-1,36
 127 563 127 563 106.5 529.5 c 128,-1,37
 86 496 86 496 73 446 c 128,-1,38
 60 396 60 396 60 328 c 0,39,40
 60 282 60 282 71 234.5 c 128,-1,41
 82 187 82 187 110.5 148.5 c 128,-1,42
 139 110 139 110 188 82 c 0,43,44
 237 56 237 56 314 49 c 1,26,-1
EndSplineSet
EndChar
StartChar: oe
Encoding: 339 339 181
Width: 881
GlyphClass: 2
Flags: W
LayerCount: 2
Fore
SplineSet
736 282 m 1,0,1
 734 320 734 320 720 348.5 c 128,-1,2
 706 377 706 377 684 397.5 c 128,-1,3
 662 418 662 418 633.5 430.5 c 128,-1,4
 605 443 605 443 574 447 c 0,5,6
 536 453 536 453 499.5 444 c 128,-1,7
 463 435 463 435 433.5 414 c 128,-1,8
 404 393 404 393 386.5 362 c 128,-1,9
 369 331 369 331 368 294 c 1,10,-1
 736 282 l 1,0,1
830 233 m 1,11,12
 836 232 836 232 819.5 231.5 c 128,-1,13
 803 231 803 231 771.5 231 c 128,-1,14
 740 231 740 231 698 231 c 128,-1,15
 656 231 656 231 611 231 c 128,-1,16
 566 231 566 231 522.5 231 c 128,-1,17
 479 231 479 231 444.5 231 c 128,-1,18
 410 231 410 231 388 231 c 128,-1,19
 366 231 366 231 364 230 c 0,20,21
 369 199 369 199 383 174.5 c 128,-1,22
 397 150 397 150 417.5 131.5 c 128,-1,23
 438 113 438 113 461.5 100 c 128,-1,24
 485 87 485 87 508 83 c 0,25,26
 522 79 522 79 542 77.5 c 128,-1,27
 562 76 562 76 589 77.5 c 128,-1,28
 616 79 616 79 649.5 86 c 128,-1,29
 683 93 683 93 723 109 c 1,30,-1
 738 27 l 1,31,32
 708 13 708 13 670.5 5.5 c 128,-1,33
 633 -2 633 -2 594.5 -2.5 c 128,-1,34
 556 -3 556 -3 521.5 2 c 128,-1,35
 487 7 487 7 465 18 c 0,36,37
 460 20 460 20 455 23 c 0,38,39
 388 -8 388 -8 331 -9 c 0,40,41
 271 -10 271 -10 223 0 c 128,-1,42
 175 10 175 10 131 34 c 128,-1,43
 87 58 87 58 57 101 c 128,-1,44
 27 144 27 144 15 203.5 c 128,-1,45
 3 263 3 263 31 346 c 1,46,47
 50 389 50 389 75 418 c 128,-1,48
 100 447 100 447 131.5 465.5 c 128,-1,49
 163 484 163 484 197.5 493 c 128,-1,50
 232 502 232 502 267 506 c 0,51,52
 364 512 364 512 446 484 c 1,53,54
 472 495 472 495 500 502 c 0,55,56
 536 510 536 510 570 509 c 0,57,58
 633 507 633 507 683 486 c 128,-1,59
 733 465 733 465 766.5 428.5 c 128,-1,60
 800 392 800 392 816 342 c 128,-1,61
 832 292 832 292 830 233 c 1,11,12
384 66 m 1,62,63
 372 76 372 76 361 86 c 0,64,65
 338 109 338 109 321.5 139.5 c 128,-1,66
 305 170 305 170 298 210 c 0,67,68
 290 259 290 259 297 300 c 128,-1,69
 304 341 304 341 323 375 c 0,70,71
 338 403 338 403 358 425 c 1,72,73
 324 429 324 429 278 427 c 0,74,75
 248 424 248 424 219 416 c 128,-1,76
 190 408 190 408 165 392 c 128,-1,77
 140 376 140 376 116.5 349 c 128,-1,78
 93 322 93 322 84 283 c 0,79,80
 77 247 77 247 80 226.5 c 128,-1,81
 83 206 83 206 90.5 179 c 128,-1,82
 98 152 98 152 125.5 122 c 128,-1,83
 153 92 153 92 190.5 71.5 c 128,-1,84
 228 51 228 51 284 49 c 0,85,86
 329 47 329 47 384 66 c 1,62,63
EndSplineSet
EndChar
StartChar: Tbar
Encoding: 358 358 435
Width: 644
Flags: W
AnchorPoint: "top" 297 753 basechar 0
AnchorPoint: "bottom" 326 -34 basechar 0
AnchorPoint: "bottomattside" 307 4 basechar 0
AnchorPoint: "bottomatt" 345 7 basechar 0
LayerCount: 2
Fore
SplineSet
139 389 m 1,0,-1
 455 396 l 1,1,-1
 455 346 l 5,2,-1
 143 338 l 1,3,-1
 139 389 l 1,0,-1
EndSplineSet
Refer: 52 84 N 1 0 0 1 0 0 2
EndChar
StartChar: tbar
Encoding: 359 359 436
Width: 358
Flags: W
AnchorPoint: "top" 133 681 basechar 0
AnchorPoint: "bottom" 147 -28 basechar 0
AnchorPoint: "bottomattside" 136 6 basechar 0
AnchorPoint: "bottomatt" 169 5 basechar 0
LayerCount: 2
Fore
SplineSet
2 308 m 1,0,-1
 295 309 l 1,1,-1
 295 255 l 1,2,-1
 4 252 l 5,3,-1
 2 308 l 1,0,-1
EndSplineSet
Refer: 84 116 N 1 0 0 1 0 0 2
EndChar
StartChar: longs
Encoding: 383 383 434
Width: 316
Flags: W
AnchorPoint: "bottomattside" 41 6 basechar 0
AnchorPoint: "bottom" 49 -31 basechar 0
AnchorPoint: "top" 171 758 basechar 0
LayerCount: 2
Fore
SplineSet
68 471 m 9,0,1
 68 471 68 471 87 6 c 17,2,-1
 6 2 l 1,3,4
 3 144 3 144 1 250 c 0,5,6
 0 307 0 307 3 473 c 1,7,8
 6 521 6 521 12 556 c 0,9,10
 20 606 20 606 36 638 c 128,-1,11
 52 670 52 670 77 687 c 0,12,13
 105 706 105 706 138 713 c 0,14,15
 152 716 152 716 169.5 717.5 c 128,-1,16
 187 719 187 719 206.5 715.5 c 128,-1,17
 226 712 226 712 248 702.5 c 128,-1,18
 270 693 270 693 293 676 c 1,19,-1
 259 616 l 1,20,21
 247 625 247 625 235 632.5 c 128,-1,22
 223 640 223 640 212 644 c 128,-1,23
 201 648 201 648 188 650 c 0,24,25
 166 653 166 653 162 652 c 0,26,27
 134 651 134 651 116.5 637.5 c 128,-1,28
 99 624 99 624 88.5 602.5 c 128,-1,29
 78 581 78 581 74 553.5 c 128,-1,30
 70 526 70 526 69 499 c 0,31,32
 68 484 68 484 68 471 c 9,0,1
EndSplineSet
EndChar
StartChar: uni0180
Encoding: 384 384 470
Width: 642
Flags: W
AnchorPoint: "top" 329 701 basechar 0
AnchorPoint: "bottom" 344 -31 basechar 0
AnchorPoint: "bottomattside" 398 6 basechar 0
AnchorPoint: "bottomatt" 367 10 basechar 0
LayerCount: 2
Fore
SplineSet
0 602 m 1,0,-1
 279 625 l 1,1,-1
 283 580 l 1,2,-1
 3 555 l 1,3,-1
 0 602 l 1,0,-1
EndSplineSet
Refer: 66 98 S 1 0 0 1 52 0 2
EndChar
StartChar: uni0181
Encoding: 385 385 481
Width: 633
Flags: W
AnchorPoint: "top" 275 748 basechar 0
AnchorPoint: "bottom" 347 -10 basechar 0
AnchorPoint: "bottomattside" 388 38 basechar 0
AnchorPoint: "bottomatt" 371 41 basechar 0
LayerCount: 2
Fore
SplineSet
49 544 m 5,0,-1
 4 540 l 5,1,2
 -19 670 -19 670 120 703 c 5,3,-1
 120 649 l 5,4,5
 42 629 42 629 49 544 c 5,0,-1
EndSplineSet
Refer: 34 66 N 1 0 0 1 112 0 2
EndChar
StartChar: uni0183
Encoding: 387 387 469
Width: 589
Flags: W
LayerCount: 2
Fore
SplineSet
0 710 m 1,0,-1
 433 710 l 1,1,-1
 420 653 l 1,2,-1
 25 657 l 1,3,-1
 0 710 l 1,0,-1
EndSplineSet
Refer: 66 98 N 1 0 0 1 0 0 2
EndChar
StartChar: uni0185
Encoding: 389 389 479
Width: 589
Flags: W
LayerCount: 2
Fore
SplineSet
0 710 m 5,0,-1
 42 519 l 5,1,-1
 -77 588 l 5,2,-1
 0 710 l 5,0,-1
EndSplineSet
Refer: 66 98 N 1 0 0 1 0 0 2
EndChar
StartChar: uni0186
Encoding: 390 390 475
Width: 633
Flags: W
AnchorPoint: "bottom" 254 -20 basechar 0
AnchorPoint: "top" 288 743 basechar 0
LayerCount: 2
Fore
SplineSet
12 697 m 1,0,1
 142 723 142 723 254 712 c 0,2,3
 302 707 302 707 350.5 694 c 128,-1,4
 399 681 399 681 442 655.5 c 128,-1,5
 485 630 485 630 520 590 c 128,-1,6
 555 550 555 550 574 490 c 1,7,8
 603 375 603 375 592 293.5 c 128,-1,9
 581 212 581 212 542 156.5 c 128,-1,10
 503 101 503 101 443 69.5 c 128,-1,11
 383 38 383 38 316.5 22.5 c 128,-1,12
 250 7 250 7 183.5 5.5 c 128,-1,13
 117 4 117 4 62 10 c 0,14,15
 61 11 61 11 62.5 20.5 c 128,-1,16
 64 30 64 30 66 41 c 2,17,-1
 73 70 l 1,18,19
 186 60 186 60 264.5 71.5 c 128,-1,20
 343 83 343 83 395 109.5 c 128,-1,21
 447 136 447 136 475.5 173 c 128,-1,22
 504 210 504 210 515.5 251 c 128,-1,23
 527 292 527 292 525.5 333 c 128,-1,24
 524 374 524 374 517 408 c 0,25,26
 504 467 504 467 474.5 507 c 128,-1,27
 445 547 445 547 407.5 572 c 128,-1,28
 370 597 370 597 325.5 609.5 c 128,-1,29
 281 622 281 622 237 626 c 0,30,31
 135 635 135 635 12 607 c 1,32,-1
 12 697 l 1,0,1
EndSplineSet
EndChar
StartChar: uni0187
Encoding: 391 391 483
Width: 633
Flags: W
LayerCount: 2
Fore
SplineSet
595 697 m 5,0,-1
 538 699 l 5,1,2
 538 832 538 832 678 811 c 5,3,-1
 669 765 l 5,4,5
 595 777 595 777 595 697 c 5,0,-1
EndSplineSet
Refer: 35 67 N 1 0 0 1 0 0 2
EndChar
StartChar: uni0188
Encoding: 392 392 484
Width: 561
Flags: W
LayerCount: 2
Fore
SplineSet
463 478 m 5,0,-1
 406 480 l 5,1,2
 411 612 411 612 549 591 c 5,3,-1
 538 544 l 5,4,5
 463 555 463 555 463 478 c 5,0,-1
EndSplineSet
Refer: 67 99 N 1 0 0 1 0 0 2
EndChar
StartChar: uni018A
Encoding: 394 394 482
Width: 850
Flags: W
LayerCount: 2
Fore
SplineSet
59 518 m 5,0,-1
 2 512 l 1,1,2
 -15 670 -15 670 118 676 c 1,3,-1
 118 622 l 1,4,5
 52 606 52 606 59 518 c 5,0,-1
EndSplineSet
Refer: 36 68 N 1 0 0 1 104 0 2
EndChar
StartChar: uni018B
Encoding: 395 395 471
Width: 520
Flags: W
LayerCount: 2
Fore
SplineSet
402 97 m 1,0,1
 380 95 380 95 342.5 94.5 c 128,-1,2
 305 94 305 94 266 98.5 c 128,-1,3
 227 103 227 103 190.5 114.5 c 128,-1,4
 154 126 154 126 126 146.5 c 128,-1,5
 98 167 98 167 84 199 c 128,-1,6
 70 231 70 231 75 278 c 0,7,8
 81 315 81 315 107 336.5 c 128,-1,9
 133 358 133 358 171 369.5 c 128,-1,10
 209 381 209 381 251.5 384 c 128,-1,11
 294 387 294 387 331 386 c 128,-1,12
 368 385 368 385 388 383 c 2,13,-1
 409 380 l 1,14,-1
 402 97 l 1,0,1
50 712 m 1,15,-1
 63 631 l 1,16,-1
 403 641 l 1,17,-1
 408 434 l 1,18,19
 262 443 262 443 197.5 428 c 128,-1,20
 133 413 133 413 93 390 c 0,21,22
 77 381 77 381 60.5 367 c 128,-1,23
 44 353 44 353 30.5 334 c 128,-1,24
 17 315 17 315 9 291 c 128,-1,25
 1 267 1 267 0 237 c 0,26,27
 -1 189 -1 189 18 154 c 128,-1,28
 37 119 37 119 69.5 94.5 c 128,-1,29
 102 70 102 70 144.5 53.5 c 128,-1,30
 187 37 187 37 231 28 c 0,31,32
 335 5 335 5 470 8 c 1,33,-1
 470 701 l 1,34,35
 470 702 470 702 50 712 c 1,15,-1
EndSplineSet
EndChar
StartChar: uni018C
Encoding: 396 396 472
Width: 631
Flags: W
LayerCount: 2
Fore
SplineSet
606 710 m 1,0,-1
 582 657 l 1,1,-1
 177 653 l 5,2,-1
 173 710 l 1,3,-1
 606 710 l 1,0,-1
EndSplineSet
Refer: 68 100 N 1 0 0 1 0 0 2
EndChar
StartChar: uni018E
Encoding: 398 398 474
Width: 447
Flags: W
AnchorPoint: "bottom" 221 -31 basechar 0
AnchorPoint: "top" 185 736 basechar 0
LayerCount: 2
Fore
SplineSet
421 707 m 1,0,-1
 421 0 l 1,1,-1
 15 0 l 1,2,-1
 17 69 l 1,3,-1
 351 53 l 1,4,-1
 354 321 l 1,5,-1
 60 326 l 1,6,-1
 61 402 l 1,7,-1
 358 385 l 1,8,-1
 361 630 l 1,9,-1
 0 627 l 1,10,-1
 0 716 l 1,11,-1
 421 707 l 1,0,-1
EndSplineSet
EndChar
StartChar: uni018F
Encoding: 399 399 478
Width: 825
Flags: W
AnchorPoint: "top" 364 758 basechar 0
LayerCount: 2
Fore
SplineSet
103 339 m 0,0,1
 109 261 109 261 140 215 c 0,2,3
 171 165 171 165 209 131 c 0,4,5
 284 66 284 66 387 51 c 0,6,7
 510 32 510 32 612 104 c 0,8,9
 721 181 721 181 725 336 c 1,10,-1
 103 339 l 0,0,1
724 397 m 0,11,12
 702 533 702 533 568 606 c 0,13,14
 511 637 511 637 459 640 c 0,15,16
 417 643 417 643 340 640 c 0,17,18
 265 636 265 636 189 606 c 5,19,-1
 154 688 l 1,20,21
 238 729 238 729 363 731 c 0,22,23
 484 732 484 732 551 700 c 0,24,25
 652 653 652 653 691 613 c 0,26,27
 775 526 775 526 793 422 c 0,28,29
 815 289 815 289 760 189 c 0,30,31
 705 88 705 88 608 38 c 0,32,33
 505 -14 505 -14 398 -11 c 0,34,35
 217 -7 217 -7 115 104 c 0,36,37
 16 214 16 214 21 390 c 1,38,-1
 724 397 l 0,11,12
EndSplineSet
EndChar
StartChar: uni0190
Encoding: 400 400 477
Width: 520
Flags: W
LayerCount: 2
Fore
SplineSet
-3 237 m 0,0,1
 -2 268 -2 268 6 291.5 c 128,-1,2
 14 315 14 315 27.5 334 c 128,-1,3
 41 353 41 353 57.5 367 c 128,-1,4
 74 381 74 381 90 390 c 0,5,6
 130 413 130 413 179 421 c 1,7,8
 150 425 150 425 122 442 c 0,9,10
 91 459 91 459 76 482 c 0,11,12
 51 520 51 520 48 563 c 1,13,14
 39 605 39 605 67 645 c 128,-1,15
 95 685 95 685 142.5 701 c 128,-1,16
 190 717 190 717 237 718 c 128,-1,17
 284 719 284 719 329.5 708.5 c 128,-1,18
 375 698 375 698 454 662 c 1,19,-1
 426 606 l 1,20,21
 294 664 294 664 246.5 663 c 128,-1,22
 199 662 199 662 162 640 c 128,-1,23
 125 618 125 618 120.5 580 c 128,-1,24
 116 542 116 542 148.5 507 c 128,-1,25
 181 472 181 472 230 461 c 0,26,27
 255 455 255 455 301 453 c 4,28,29
 345 450 345 450 408 451 c 1,30,-1
 408 385 l 1,31,-1
 343 386 l 1,32,33
 211 395 211 395 156.5 360 c 128,-1,34
 102 325 102 325 77 275 c 128,-1,35
 52 225 52 225 69.5 165.5 c 128,-1,36
 87 106 87 106 166.5 59.5 c 128,-1,37
 246 13 246 13 471 71 c 1,38,-1
 467 8 l 1,39,40
 371 -21 371 -21 251 -25 c 1,41,42
 167 -25 167 -25 105 12 c 0,43,44
 63 36 63 36 37 74 c 0,45,46
 8 116 8 116 2 152.5 c 128,-1,47
 -4 189 -4 189 -3 237 c 0,0,1
EndSplineSet
EndChar
StartChar: uni0191
Encoding: 401 401 485
Width: 410
Flags: W
LayerCount: 2
Fore
SplineSet
0 9 m 1,0,-1
 86 -1 l 1,1,2
 95 -230 95 -230 -180 -137 c 5,3,-1
 -153 -79 l 1,4,5
 -2 -152 -2 -152 0 9 c 1,0,-1
9 716 m 1,6,-1
 9 716 l 1,7,-1
 9 716 l 1,8,-1
 9 716 l 1,6,-1
EndSplineSet
Refer: 38 70 N 1 0 0 1 0 0 2
EndChar
StartChar: florin
Encoding: 402 402 486
Width: 365
Flags: W
LayerCount: 2
Fore
SplineSet
55 2 m 1,0,-1
 136 6 l 1,1,2
 147 -227 147 -227 -132 -133 c 5,3,-1
 -102 -72 l 1,4,5
 58 -144 58 -144 55 2 c 1,0,-1
EndSplineSet
Refer: 70 102 N 1 0 0 1 0 0 2
EndChar
StartChar: uni0193
Encoding: 403 403 487
Width: 656
Flags: W
LayerCount: 2
Fore
SplineSet
611 696 m 6,0,-1
 608 643 l 5,1,-1
 554 698 l 5,2,3
 554 831 554 831 694 810 c 5,4,-1
 685 764 l 5,5,6
 615 776 615 776 611 696 c 6,0,-1
EndSplineSet
Refer: 39 71 N 1 0 0 1 0 0 2
EndChar
StartChar: uni0194
Encoding: 404 404 646
Width: 727
Flags: W
AnchorPoint: "top" 328 722 basechar 0
LayerCount: 2
Fore
SplineSet
322 120 m 2,0,1
 405 -79 405 -79 404 -138 c 3,2,3
 404 -226 404 -226 327 -227 c 0,4,5
 243 -228 243 -228 243 -134 c 3,6,7
 243 -50 243 -50 322 120 c 2,8,-1
 599 718 l 1,9,-1
 678 680 l 1,10,-1
 342 -3 l 2,11,12
 293 -103 293 -103 293 -138 c 3,13,14
 293 -187 293 -187 324.5 -187.5 c 128,-1,15
 356 -188 356 -188 356 -137 c 3,16,17
 356 -115 356 -115 307 0 c 2,18,-1
 11 691 l 1,19,-1
 73 717 l 1,20,-1
 322 120 l 2,0,1
EndSplineSet
EndChar
StartChar: uni0195
Encoding: 405 405 596
Width: 806
Flags: W
LayerCount: 2
Fore
SplineSet
672 232 m 2,0,1
 672 232 672 232 680 488 c 1,2,-1
 751 480 l 5,3,-1
 744 226 l 2,4,5
 739 -1 739 -1 562 -1 c 0,6,7
 393 0 393 0 393 212 c 0,8,9
 393 339 393 339 343 397 c 0,10,11
 325 419 325 419 297 430 c 128,-1,12
 269 441 269 441 233 437.5 c 128,-1,13
 197 434 197 434 170 423 c 0,14,15
 88 387 88 387 88 237 c 1,16,-1
 92 72 l 1,17,-1
 96 1 l 1,18,-1
 16 0 l 1,19,-1
 -6 718 l 1,20,-1
 68 719 l 1,21,-1
 80 420 l 1,22,23
 90 432 90 432 104 443 c 0,24,25
 145 475 145 475 197 483 c 0,26,27
 325 505 325 505 385 457 c 0,28,29
 408 440 408 440 439 380 c 0,30,31
 470 321 470 321 470 213 c 0,32,33
 470 58 470 58 568 53 c 0,34,35
 666 49 666 49 672 232 c 2,0,1
EndSplineSet
EndChar
StartChar: uni0196
Encoding: 406 406 625
Width: 317
Flags: W
AnchorPoint: "top" 114 753 basechar 0
LayerCount: 2
Fore
SplineSet
266 6 m 5,0,1
 54 -19 54 -19 59 147 c 6,2,-1
 76 717 l 1,3,-1
 159 716 l 1,4,-1
 132 194 l 6,5,6
 128 107 128 107 159 83 c 4,7,8
 179 68 179 68 269 70 c 5,9,-1
 266 6 l 5,0,1
EndSplineSet
EndChar
StartChar: uni0197
Encoding: 407 407 572
Width: 282
Flags: W
AnchorPoint: "top" 151 753 basechar 0
AnchorPoint: "bottom" 119 -31 basechar 0
AnchorPoint: "bottomattside" 126 5 basechar 0
AnchorPoint: "bottomatt" 150 7 basechar 0
LayerCount: 2
Fore
SplineSet
-1 403 m 1,0,-1
 283 416 l 1,1,-1
 280 360 l 1,2,-1
 3 359 l 1,3,-1
 -1 403 l 1,0,-1
EndSplineSet
Refer: 41 73 N 1 0 0 1 37 0 2
EndChar
StartChar: uni0198
Encoding: 408 408 648
Width: 541
Flags: W
LayerCount: 2
Fore
SplineSet
311 532 m 2,0,1
 311 532 311 532 113 381 c 1,2,-1
 500 104 l 1,3,-1
 450 27 l 1,4,-1
 75 341 l 1,5,-1
 81 4 l 1,6,-1
 18 1 l 1,7,-1
 0 714 l 1,8,-1
 69 716 l 1,9,-1
 69 421 l 1,10,-1
 266 597 l 2,11,12
 402 718 402 718 515 528 c 5,13,-1
 464 498 l 5,14,15
 410 608 410 608 311 532 c 2,0,1
EndSplineSet
EndChar
StartChar: uni0199
Encoding: 409 409 649
Width: 513
Flags: W
LayerCount: 2
Fore
SplineSet
68 557 m 5,0,-1
 68 329 l 1,1,-1
 361 522 l 1,2,-1
 407 461 l 1,3,-1
 117 290 l 1,4,-1
 450 85 l 1,5,-1
 394 15 l 1,6,-1
 78 249 l 1,7,-1
 89 4 l 1,8,-1
 18 1 l 1,9,-1
 4 557 l 1,10,11
 2 733 2 733 132 742 c 0,12,13
 219 748 219 748 285 701 c 1,14,-1
 252 651 l 1,15,16
 177 695 177 695 129 678 c 0,17,18
 67 655 67 655 68 557 c 5,0,-1
EndSplineSet
EndChar
StartChar: uni019A
Encoding: 410 410 573
Width: 171
Flags: W
AnchorPoint: "top" 77 758 basechar 0
AnchorPoint: "bottom" 82 -26 basechar 0
AnchorPoint: "bottomattside" 72 4 basechar 0
AnchorPoint: "bottomatt" 110 13 basechar 0
LayerCount: 2
Fore
SplineSet
-4 396 m 5,0,-1
 174 406 l 5,1,-1
 171 350 l 5,2,-1
 0 352 l 5,3,-1
 -4 396 l 5,0,-1
EndSplineSet
Refer: 76 108 N 1 0 0 1 0 0 2
EndChar
StartChar: uni019B
Encoding: 411 411 574
Width: 562
Flags: W
LayerCount: 2
Fore
SplineSet
109 583 m 1,0,-1
 368 663 l 1,1,-1
 382 608 l 5,2,-1
 128 537 l 1,3,-1
 109 583 l 1,0,-1
EndSplineSet
Refer: 283 955 N 1 0 0 1 0 0 2
EndChar
StartChar: uni019C
Encoding: 412 412 542
Width: 900
Flags: W
LayerCount: 2
Fore
SplineSet
340 279 m 1,0,1
 340 279 340 279 334 697 c 5,2,-1
 416 697 l 5,3,4
 416 664 416 664 414.5 496 c 128,-1,5
 413 328 413 328 414.5 279 c 128,-1,6
 416 230 416 230 423.5 182.5 c 128,-1,7
 431 135 431 135 449 98 c 0,8,9
 489 16 489 16 580 24 c 0,10,11
 714 34 714 34 716 234 c 1,12,-1
 708 715 l 5,13,-1
 792 716 l 5,14,-1
 805 0 l 1,15,-1
 726 -1 l 1,16,-1
 724 51 l 1,17,18
 687 -5 687 -5 612 -22 c 0,19,20
 515 -45 515 -45 459 -17.5 c 128,-1,21
 403 10 403 10 376 82 c 1,22,23
 336 31 336 31 283 4 c 0,24,25
 260 -7 260 -7 234 -10 c 0,26,27
 156 -22 156 -22 108.5 2 c 128,-1,28
 61 26 61 26 35.5 85 c 128,-1,29
 10 144 10 144 4 362 c 128,-1,30
 -2 580 -2 580 4 711 c 5,31,-1
 98 711 l 5,32,33
 98 677 98 677 95.5 509 c 128,-1,34
 93 341 93 341 92.5 292.5 c 128,-1,35
 92 244 92 244 96 197 c 128,-1,36
 100 150 100 150 114 114 c 0,37,38
 145 33 145 33 220 44 c 0,39,40
 334 61 334 61 340 279 c 1,0,1
EndSplineSet
EndChar
StartChar: uni019D
Encoding: 413 413 650
Width: 766
Flags: W
LayerCount: 2
Fore
SplineSet
89 0 m 17,0,1
 93 -240 93 -240 -67 -248 c 0,2,3
 -157 -252 -157 -252 -212 -207 c 1,4,-1
 -179 -157 l 0,5,6
 -123 -192 -123 -192 -65 -193 c 0,7,8
 20 -195 20 -195 20 0 c 10,9,-1
 20 717 l 25,10,-1
 81 586 l 25,11,-1
 89 0 l 17,0,1
EndSplineSet
Refer: 46 78 N 1 0 0 1 0 0 2
EndChar
StartChar: uni019F
Encoding: 415 415 541
Width: 870
Flags: W
LayerCount: 2
Fore
SplineSet
72 382 m 5,0,-1
 772 388 l 5,1,-1
 768 323 l 5,2,-1
 76 331 l 5,3,-1
 72 382 l 5,0,-1
EndSplineSet
Refer: 47 79 N 1 0 0 1 0 0 2
EndChar
StartChar: uni01A2
Encoding: 418 418 629
Width: 870
Flags: W
LayerCount: 2
Fore
SplineSet
535 660 m 1,0,1
 509 670 509 670 454 677 c 0,2,3
 298 684 298 684 204 593 c 0,4,5
 152 543 152 543 126 468.5 c 128,-1,6
 100 394 100 394 102 319.5 c 128,-1,7
 104 245 104 245 133 192.5 c 128,-1,8
 162 140 162 140 200.5 115 c 128,-1,9
 239 90 239 90 294 74 c 0,10,11
 410 40 410 40 573 82 c 1,12,-1
 535 660 l 1,0,1
626 37 m 1,13,14
 527 -9 527 -9 425 -9 c 0,15,16
 312 -9 312 -9 238 17 c 0,17,18
 142 51 142 51 75 132 c 0,19,20
 41 172 41 172 22.5 223.5 c 128,-1,21
 4 275 4 275 8.5 354 c 128,-1,22
 13 433 13 433 37.5 490 c 128,-1,23
 62 547 62 547 99 588 c 0,24,25
 166 662 166 662 253 694 c 0,26,27
 341 726 341 726 435.5 724.5 c 128,-1,28
 530 723 530 723 614 685 c 1,29,-1
 725 711 l 1,30,-1
 800 714 l 1,31,-1
 827 -230 l 1,32,-1
 742 -243 l 1,33,-1
 729 643 l 5,34,-1
 615 635 l 1,35,-1
 626 37 l 1,13,14
EndSplineSet
EndChar
StartChar: uni01A3
Encoding: 419 419 630
Width: 660
Flags: W
LayerCount: 2
Fore
SplineSet
448 451 m 1,0,-1
 535 470 l 1,1,-1
 600 471 l 1,2,-1
 600 -210 l 1,3,-1
 535 -206 l 1,4,-1
 539 411 l 1,5,-1
 442 413 l 1,6,-1
 448 451 l 1,0,-1
382 415 m 1,7,8
 346 433 346 433 309 434 c 0,9,10
 284 436 284 436 248.5 425.5 c 128,-1,11
 213 415 213 415 182.5 392 c 128,-1,12
 152 369 152 369 131 332.5 c 128,-1,13
 110 296 110 296 109 246 c 0,14,15
 107 212 107 212 116.5 175.5 c 128,-1,16
 126 139 126 139 148 108.5 c 128,-1,17
 170 78 170 78 205 57.5 c 128,-1,18
 240 37 240 37 289 35 c 0,19,20
 317 34 317 34 342 42 c 128,-1,21
 367 50 367 50 391 65 c 1,22,-1
 382 415 l 1,7,8
480 54 m 1,23,24
 440 21 440 21 391 3.5 c 128,-1,25
 342 -14 342 -14 299 -14 c 0,26,27
 248 -15 248 -15 193.5 5 c 128,-1,28
 139 25 139 25 99.5 59.5 c 128,-1,29
 60 94 60 94 39.5 143.5 c 128,-1,30
 19 193 19 193 25 249 c 0,31,32
 31 305 31 305 56 349.5 c 128,-1,33
 81 394 81 394 121 424.5 c 128,-1,34
 161 455 161 455 213 472.5 c 128,-1,35
 265 490 265 490 314 489 c 0,36,37
 354 489 354 489 404 471 c 0,38,39
 427 462 427 462 448 451 c 1,40,-1
 480 54 l 1,23,24
EndSplineSet
EndChar
StartChar: uni01A4
Encoding: 420 420 536
Width: 654
Flags: W
LayerCount: 2
Fore
SplineSet
56 554 m 1,0,-1
 4 540 l 1,1,2
 -23 703 -23 703 118 711 c 1,3,-1
 122 642 l 5,4,5
 44 624 44 624 56 554 c 1,0,-1
EndSplineSet
Refer: 48 80 N 1 0 0 1 110 0 2
EndChar
StartChar: uni01A5
Encoding: 421 421 585
Width: 599
Flags: W
LayerCount: 2
Fore
SplineSet
96 477 m 5,0,-1
 29 477 l 5,1,2
 29 614 29 614 179 591 c 5,3,-1
 170 545 l 5,4,5
 96 557 96 557 96 477 c 5,0,-1
EndSplineSet
Refer: 80 112 N 1 0 0 1 0 0 2
EndChar
StartChar: uni01A6
Encoding: 422 422 626
Width: 532
Flags: W
LayerCount: 2
Fore
SplineSet
88 610 m 6,0,1
 88 612 88 612 171 612 c 4,2,3
 210 612 210 612 251 607 c 4,4,5
 290 602 290 602 329 590 c 4,6,7
 367 578 367 578 398 556 c 132,-1,9
 429 534 429 534 449 503 c 4,10,11
 471 464 471 464 471 424 c 4,12,13
 471 379 471 379 455 345 c 4,14,15
 436 312 436 312 407 289 c 4,16,17
 377 265 377 265 340 251 c 4,18,19
 301 236 301 236 262 226 c 4,20,21
 221 218 221 218 183 214 c 4,22,23
 134 210 134 210 100 210 c 5,24,-1
 100 260 l 5,25,26
 155 262 155 262 163 262 c 4,27,28
 177 262 177 262 222 270 c 4,29,30
 253 276 253 276 285 287 c 4,31,32
 315 297 315 297 340 313 c 4,33,34
 364 330 364 330 379 354 c 4,35,36
 393 381 393 381 392 412 c 4,37,38
 390 448 390 448 375 472 c 4,39,40
 358 497 358 497 333 512 c 4,41,42
 306 527 306 527 275 536 c 4,43,44
 242 544 242 544 212 547 c 4,45,46
 180 549 180 549 151 549 c 4,47,48
 124 548 124 548 89 547 c 5,49,-1
 88 610 l 6,0,1
111 0 m 1,50,-1
 43 0 l 1,51,-1
 0 718 l 1,52,-1
 89 718 l 1,53,-1
 111 0 l 1,50,-1
261 250 m 5,54,-1
 487 -18 l 5,55,-1
 411 -76 l 5,56,-1
 211 221 l 5,57,-1
 261 250 l 5,54,-1
EndSplineSet
EndChar
StartChar: uni01A7
Encoding: 423 423 488
Width: 441
Flags: W
LayerCount: 2
Fore
SplineSet
328 142 m 1,0,-1
 367 91 l 2,1,2
 367 90 367 90 354 81.5 c 128,-1,3
 341 73 341 73 318.5 60.5 c 128,-1,4
 296 48 296 48 267 36.5 c 128,-1,5
 238 25 238 25 204.5 19 c 128,-1,6
 171 13 171 13 136.5 16.5 c 128,-1,7
 102 20 102 20 70 39 c 0,8,9
 30 62 30 62 22 89.5 c 128,-1,10
 14 117 14 117 28 149 c 128,-1,11
 42 181 42 181 72 216.5 c 128,-1,12
 102 252 102 252 138 289.5 c 128,-1,13
 174 327 174 327 210.5 366.5 c 128,-1,14
 247 406 247 406 272 445 c 128,-1,15
 297 484 297 484 306.5 523 c 128,-1,16
 316 562 316 562 299 600 c 0,17,18
 285 631 285 631 258 643.5 c 128,-1,19
 231 656 231 656 199 658 c 128,-1,20
 167 660 167 660 133.5 654 c 128,-1,21
 100 648 100 648 73 640 c 128,-1,22
 46 632 46 632 28.5 624.5 c 128,-1,23
 11 617 11 617 11 618 c 2,24,-1
 8 690 l 2,25,26
 8 691 8 691 32 697 c 128,-1,27
 56 703 56 703 94 708.5 c 128,-1,28
 132 714 132 714 177.5 716 c 128,-1,29
 223 718 223 718 264.5 712 c 128,-1,30
 306 706 306 706 339 688 c 128,-1,31
 372 670 372 670 383 636 c 0,32,33
 398 591 398 591 390.5 548.5 c 128,-1,34
 383 506 383 506 361.5 465.5 c 128,-1,35
 340 425 340 425 307.5 387 c 128,-1,36
 275 349 275 349 241.5 314.5 c 128,-1,37
 208 280 208 280 176.5 248 c 128,-1,38
 145 216 145 216 125 187.5 c 128,-1,39
 105 159 105 159 99.5 134.5 c 128,-1,40
 94 110 94 110 113 88 c 0,41,42
 128 71 128 71 148 66 c 128,-1,43
 168 61 168 61 190 65 c 128,-1,44
 212 69 212 69 234 78.5 c 128,-1,45
 256 88 256 88 274.5 100 c 128,-1,46
 293 112 293 112 307.5 123.5 c 128,-1,47
 322 135 322 135 328 142 c 1,0,-1
EndSplineSet
EndChar
StartChar: uni01A8
Encoding: 424 424 489
Width: 445
Flags: W
LayerCount: 2
Fore
SplineSet
345 129 m 1,0,-1
 389 68 l 1,1,2
 335 27 335 27 307.5 12.5 c 128,-1,3
 280 -2 280 -2 240.5 -8 c 128,-1,4
 201 -14 201 -14 158 0 c 1,5,6
 105 27 105 27 100.5 70.5 c 128,-1,7
 96 114 96 114 128.5 150 c 128,-1,8
 161 186 161 186 221 230 c 128,-1,9
 281 274 281 274 312 309.5 c 128,-1,10
 343 345 343 345 328 390 c 1,11,12
 310 428 310 428 266 440 c 128,-1,13
 222 452 222 452 171.5 436 c 128,-1,14
 121 420 121 420 63 359 c 1,15,-1
 17 440 l 2,16,17
 17 441 17 441 63.5 471 c 128,-1,18
 110 501 110 501 183.5 512 c 128,-1,19
 257 523 257 523 309.5 499 c 128,-1,20
 362 475 362 475 387 434 c 1,21,22
 407 390 407 390 402 353 c 128,-1,23
 397 316 397 316 372.5 285.5 c 128,-1,24
 348 255 348 255 295.5 217 c 128,-1,25
 243 179 243 179 197 141.5 c 128,-1,26
 151 104 151 104 168.5 70.5 c 128,-1,27
 186 37 186 37 243.5 57.5 c 128,-1,28
 301 78 301 78 345 129 c 1,0,-1
EndSplineSet
EndChar
StartChar: uni01AA
Encoding: 426 426 689
Width: 527
Flags: W
LayerCount: 2
Fore
SplineSet
224 444 m 257,0,1
 187 424 187 424 134 425 c 0,2,3
 -21 430 -21 430 -23 576 c 0,4,5
 -24 632 -24 632 8 676 c 24,6,7
 43 725 43 725 123.5 717.5 c 0,8,9
 221 709 221 709 257 638 c 0,10,11
 283 586 283 586 290 473 c 1,12,13
 293 307 293 307 290 198 c 128,-1,14
 287 89 287 89 287 61.5 c 152,-1,15
 287 34 287 34 288.5 7.5 c 128,-1,16
 290 -19 290 -19 294 -47.5 c 0,17,18
 303 -112 303 -112 327 -149.5 c 0,19,20
 362 -204 362 -204 429 -182.5 c 0,21,22
 458 -173 458 -173 494 -131 c 1,23,-1
 540 -178 l 1,24,25
 485 -249 485 -249 395 -249 c 128,-1,26
 305 -249 305 -249 258 -171.5 c 128,-1,27
 211 -94 211 -94 215 51 c 0,28,29
 224.379027738 390.989755491 224.379027738 390.989755491 224 444 c 257,0,1
114 650 m 3,30,31
 34 650 34 650 34 569 c 3,32,33
 34 473 34 473 133 470 c 4,34,35
 217 467 217 467 215.5 558.5 c 128,-1,36
 214 650 214 650 114 650 c 3,30,31
EndSplineSet
EndChar
StartChar: uni01AB
Encoding: 427 427 699
Width: 358
Flags: W
LayerCount: 2
Fore
SplineSet
215 46 m 5,0,1
 219 -192 219 -192 91 -196 c 4,2,3
 22 -198 22 -198 -10 -185 c 1,4,-1
 3 -131 l 1,5,6
 51 -142 51 -142 80 -137 c 4,7,8
 155 -124 155 -124 156 45 c 5,9,-1
 215 46 l 5,0,1
EndSplineSet
Refer: 84 116 N 1 0 0 1 0 0 2
EndChar
StartChar: uni01AC
Encoding: 428 428 697
Width: 644
Flags: W
AnchorPoint: "bottomatt" 345 7 basechar 0
AnchorPoint: "bottomattside" 307 4 basechar 0
AnchorPoint: "bottom" 326 -34 basechar 0
AnchorPoint: "top" 297 753 basechar 0
LayerCount: 2
Fore
SplineSet
133 660 m 2,0,1
 42 662 42 662 60 570 c 1,2,-1
 6 558 l 1,3,4
 -22 716 -22 716 120 714 c 2,5,-1
 612 708 l 1,6,-1
 606 647 l 1,7,-1
 319 653 l 1,8,-1
 374 7 l 1,9,-1
 272 0 l 1,10,-1
 256 657 l 1,11,-1
 133 660 l 2,0,1
EndSplineSet
EndChar
StartChar: uni01AE
Encoding: 430 430 698
Width: 644
Flags: W
LayerCount: 2
Fore
SplineSet
272 0 m 2,0,1
 274.769926381 -113.740102023 274.769926381 -113.740102023 329 -175 c 0,2,3
 393 -248 393 -248 474.802734375 -247.5 c 0,4,5
 558 -247 558 -247 612 -178 c 1,6,-1
 566 -131 l 1,7,8
 543 -154 543 -154 503 -169 c 0,9,10
 430.647058824 -193.117647059 430.647058824 -193.117647059 386 -116 c 0,11,12
 353.015163893 -58.02665169 353.015163893 -58.02665169 350 5 c 2,13,-1
 319 653 l 1,14,-1
 606 647 l 1,15,-1
 612 708 l 1,16,-1
 0 715 l 1,17,-1
 3 663 l 1,18,-1
 256 657 l 1,19,-1
 272 0 l 2,0,1
EndSplineSet
EndChar
StartChar: uni01B2
Encoding: 434 434 598
Width: 672
Flags: W
LayerCount: 2
Fore
SplineSet
316 55 m 4,0,1
 214 55 214 55 160.5 158 c 0,2,3
 136 205 136 205 120 268 c 128,-1,4
 104 331 104 331 99 386 c 0,5,6
 86 525 86 525 93 717 c 1,7,-1
 22 716 l 1,8,9
 24 494 24 494 29.5 414 c 128,-1,10
 35 334 35 334 50 259 c 128,-1,11
 65 184 65 184 97 127 c 128,-1,12
 129 70 129 70 178.5 37 c 128,-1,13
 228 4 228 4 307 4 c 0,14,15
 472 4 472 4 561 151 c 0,16,17
 636.015956055 275.368558724 636.015956055 275.368558724 613 568 c 0,18,19
 606 657 606 657 535 689.5 c 128,-1,20
 464 722 464 722 399 675 c 0,21,22
 382 663 382 663 353 634 c 1,23,-1
 407 591 l 1,24,25
 458 642 458 642 488 642 c 0,26,27
 541.008163265 642 541.008163265 642 543 520 c 0,28,29
 547 275 547 275 509 186 c 0,30,31
 453 55 453 55 316 55 c 4,0,1
EndSplineSet
EndChar
StartChar: uni01B3
Encoding: 435 435 695
Width: 686
Flags: W
AnchorPoint: "top" 297 722 basechar 0
AnchorPoint: "bottom" 323 -31 basechar 0
AnchorPoint: "bottomattside" 308 4 basechar 0
AnchorPoint: "bottomatt" 341 17 basechar 0
LayerCount: 2
Fore
SplineSet
521 615 m 6,0,1
 556.815197653 657.36206174 556.815197653 657.36206174 606 561 c 5,2,-1
 656 588 l 5,3,4
 551 754 551 754 470 661 c 6,5,-1
 286 450 l 1,6,-1
 76 705 l 1,7,-1
 28 670 l 1,8,-1
 261 397 l 1,9,-1
 273 0 l 1,10,-1
 362 3 l 1,11,-1
 335 395 l 1,12,-1
 521 615 l 6,0,1
EndSplineSet
EndChar
StartChar: uni01B4
Encoding: 436 436 696
Width: 650
Flags: W
AnchorPoint: "bottomatt" 174 -215 basechar 0
AnchorPoint: "bottomattside" 128 -217 basechar 0
AnchorPoint: "bottom" 148 -266 basechar 0
AnchorPoint: "top" 276 527 basechar 0
LayerCount: 2
Fore
SplineSet
425 493 m 2,0,1
 425 493 425 493 307 119 c 1,2,-1
 60 465 l 1,3,-1
 0 428 l 1,4,-1
 281 50 l 1,5,6
 275 28 275 28 265.5 -0.5 c 128,-1,7
 256 -29 256 -29 243.5 -57 c 128,-1,8
 231 -85 231 -85 215.5 -109.5 c 128,-1,9
 200 -134 200 -134 182.5 -150.5 c 128,-1,10
 165 -167 165 -167 145 -171 c 0,11,12
 129 -174 129 -174 106 -163 c 0,13,14
 98 -159 98 -159 92 -154.5 c 128,-1,15
 86 -150 86 -150 81 -143 c 128,-1,16
 76 -136 76 -136 69.5 -124.5 c 128,-1,17
 63 -113 63 -113 57 -96 c 1,18,19
 57 -96 57 -96 -2 -125 c 1,20,21
 5 -147 5 -147 17 -164 c 128,-1,22
 29 -181 29 -181 42.5 -193.5 c 128,-1,23
 56 -206 56 -206 69.5 -213 c 128,-1,24
 83 -220 83 -220 94 -222 c 0,25,26
 138 -230 138 -230 161 -226.5 c 0,27,28
 191 -222 191 -222 219 -201 c 128,-1,29
 247 -180 247 -180 273 -140 c 128,-1,30
 299 -100 299 -100 326 -37 c 1,31,-1
 496 449 l 2,32,33
 515.949546856 506.032233953 515.949546856 506.032233953 588 460 c 1,34,-1
 620 510 l 1,35,36
 463.14596422 613.903310325 463.14596422 613.903310325 425 493 c 2,0,1
EndSplineSet
EndChar
StartChar: uni01B5
Encoding: 437 437 576
Width: 653
Flags: W
AnchorPoint: "top" 328 773 basechar 0
AnchorPoint: "bottom" 364 -26 basechar 0
AnchorPoint: "bottomattside" 604 14 basechar 0
AnchorPoint: "bottomatt" 372 17 basechar 0
LayerCount: 2
Fore
SplineSet
114 376 m 1,0,-1
 569 388 l 1,1,-1
 566 324 l 5,2,-1
 118 323 l 5,3,-1
 114 376 l 1,0,-1
EndSplineSet
Refer: 58 90 N 1 0 0 1 0 0 2
EndChar
StartChar: uni01B6
Encoding: 438 438 577
Width: 484
Flags: W
AnchorPoint: "top" 210 532 basechar 0
AnchorPoint: "bottom" 225 -20 basechar 0
AnchorPoint: "bottomattside" 424 2 basechar 0
AnchorPoint: "bottomatt" 253 13 basechar 0
LayerCount: 2
Fore
SplineSet
85 272 m 5,0,-1
 369 285 l 5,1,-1
 366 229 l 5,2,-1
 89 228 l 5,3,-1
 85 272 l 5,0,-1
EndSplineSet
Refer: 90 122 N 1 0 0 1 0 0 2
EndChar
StartChar: uni01B7
Encoding: 439 439 590
Width: 592
Flags: W
AnchorPoint: "bottomatt" 304 -190 basechar 0
AnchorPoint: "bottomattside" 476 -118 basechar 0
AnchorPoint: "bottom" 276 -246 basechar 0
AnchorPoint: "top" 271 773 basechar 0
LayerCount: 2
Fore
SplineSet
91 -47 m 1,0,1
 168 -132 168 -132 265 -132 c 0,2,3
 447 -132 447 -132 455 63 c 0,4,5
 464 312 464 312 205 284 c 1,6,-1
 199 344 l 1,7,-1
 442 652 l 1,8,-1
 26 656 l 1,9,-1
 20 719 l 1,10,-1
 531 709 l 1,11,-1
 529 651 l 1,12,-1
 279 353 l 1,13,14
 553 340 553 340 547 71 c 0,15,16
 541 -192 541 -192 259 -193 c 0,17,18
 156 -193 156 -193 47 -98 c 1,19,-1
 91 -47 l 1,0,1
EndSplineSet
EndChar
StartChar: uni01B8
Encoding: 440 440 593
Width: 592
Flags: W
AnchorPoint: "top" 296 773 basechar 0
LayerCount: 2
Fore
SplineSet
476 -47 m 1,0,1
 476 -47 476 -47 520 -98 c 1,2,3
 411 -192 411 -192 308 -193 c 0,4,5
 26 -193 26 -193 21 71 c 0,6,7
 15 340 15 340 289 353 c 1,8,-1
 38 651 l 1,9,-1
 36 709 l 1,10,-1
 547 719 l 1,11,-1
 542 656 l 1,12,-1
 125 652 l 1,13,-1
 369 344 l 1,14,-1
 363 284 l 1,15,16
 104 313 104 313 113 63 c 0,17,18
 120 -133 120 -133 302 -132 c 0,19,20
 399 -132 399 -132 476 -47 c 1,0,1
EndSplineSet
EndChar
StartChar: uni01B9
Encoding: 441 441 594
Width: 484
Flags: W
AnchorPoint: "top" 233 532 basechar 0
LayerCount: 2
Fore
SplineSet
267 185 m 0,0,1
 58 179 58 179 67 0 c 0,2,3
 73 -133 73 -133 234 -132 c 0,4,5
 305 -131 305 -131 370 -57 c 1,6,-1
 426 -96 l 1,7,8
 365 -192 365 -192 240 -193 c 0,9,10
 2 -193 2 -193 8 32 c 0,11,12
 13 216 13 216 191 230 c 1,13,-1
 32 429 l 1,14,-1
 33 483 l 1,15,-1
 432 492 l 1,16,-1
 434 428 l 1,17,-1
 123 431 l 1,18,-1
 267 227 l 1,19,-1
 267 185 l 0,0,1
EndSplineSet
EndChar
StartChar: uni01BA
Encoding: 442 442 647
Width: 484
Flags: W
AnchorPoint: "top" 210 532 basechar 0
LayerCount: 2
Fore
SplineSet
351 -180 m 1,0,1
 233 -209 233 -209 168 -208 c 0,2,3
 74 -206 74 -206 34 -124 c 0,4,5
 8 -73 8 -73 19 -18 c 0,6,7
 34 53 34 53 133 16 c 0,8,9
 188 -4 188 -4 246 1 c 0,10,11
 369 10 369 10 372 67 c 0,12,13
 379 181 379 181 172 186 c 1,14,-1
 172 228 l 1,15,-1
 316 432 l 1,16,-1
 5 429 l 1,17,-1
 7 493 l 1,18,-1
 407 484 l 1,19,-1
 408 430 l 1,20,-1
 249 231 l 1,21,22
 426 217 426 217 430 98 c 0,23,24
 436 -54 436 -54 251 -59 c 0,25,26
 192 -61 192 -61 146 -44 c 0,27,28
 69 -14 69 -14 75 -77 c 0,29,30
 85 -186 85 -186 336 -125 c 1,31,-1
 351 -180 l 1,0,1
EndSplineSet
EndChar
StartChar: uni01BB
Encoding: 443 443 631
Width: 518
Flags: W
LayerCount: 2
Fore
SplineSet
85 272 m 1,0,-1
 455 287 l 1,1,-1
 452 231 l 1,2,-1
 89 228 l 1,3,-1
 85 272 l 1,0,-1
EndSplineSet
Refer: 18 50 N 1 0 0 1 0 0 2
EndChar
StartChar: uni01BC
Encoding: 444 444 656
Width: 553
Flags: W
LayerCount: 2
Fore
SplineSet
24 80 m 1,0,1
 408 0 408 0 409 165 c 0,2,3
 410 364 410 364 2 319 c 1,4,-1
 12 605 l 1,5,-1
 -67 602 l 1,6,-1
 -68 680 l 1,7,-1
 497 701 l 1,8,-1
 497 620 l 1,9,-1
 92 606 l 1,10,-1
 81 386 l 1,11,12
 508 408 508 408 480 164 c 0,13,14
 457 -19 457 -19 239 -19 c 0,15,16
 120 -19 120 -19 10 23 c 1,17,-1
 24 80 l 1,0,1
EndSplineSet
EndChar
StartChar: uni01BD
Encoding: 445 445 653
Width: 447
Flags: W
LayerCount: 2
Fore
SplineSet
24 80 m 1,0,1
 316 -15 316 -15 317 121 c 0,2,3
 319 255 319 255 4 218 c 1,4,-1
 8 399 l 1,5,-1
 -71 396 l 1,6,-1
 -72 474 l 1,7,-1
 400 496 l 1,8,-1
 400 414 l 1,9,-1
 88 400 l 5,10,-1
 83 285 l 1,11,12
 417 303 417 303 389 120 c 0,13,14
 354 -113 354 -113 10 23 c 1,15,-1
 24 80 l 1,0,1
EndSplineSet
EndChar
StartChar: uni01BF
Encoding: 447 447 633
Width: 586
Flags: W
LayerCount: 2
Fore
SplineSet
103 10 m 1,0,1
 318 62 318 62 416 180 c 0,2,3
 459 233 459 233 465 294 c 4,4,5
 468 324 468 324 455 348 c 0,6,7
 438 382 438 382 407 403 c 0,8,9
 347 444 347 444 295 444 c 0,10,11
 238 443 238 443 203 426 c 0,12,13
 166 407 166 407 146 382 c 0,14,15
 104 328 104 328 104 252 c 2,16,-1
 103 10 l 1,17,-1
 103 10 l 1,0,1
103 -72 m 1,18,-1
 102 -213 l 1,19,-1
 34 -214 l 1,20,-1
 29 477 l 1,21,-1
 96 477 l 1,22,-1
 98 426 l 1,23,24
 160 486 160 486 270 493 c 0,25,26
 383 499 383 499 455 445 c 0,27,28
 528 391 528 391 538 317 c 0,29,30
 552 208 552 208 462 123 c 0,31,32
 325 -10 325 -10 103 -72 c 1,18,-1
EndSplineSet
EndChar
StartChar: uni01C2
Encoding: 450 450 535
Width: 265
Flags: W
LayerCount: 2
Fore
SplineSet
13 352 m 5,0,-1
 245 350 l 5,1,-1
 245 312 l 5,2,-1
 11 319 l 5,3,-1
 13 352 l 5,0,-1
11 455 m 5,4,-1
 248 462 l 5,5,-1
 245 425 l 5,6,-1
 15 417 l 5,7,-1
 11 455 l 5,4,-1
EndSplineSet
Refer: 92 124 N 1 0 0 1 66 0 2
EndChar
StartChar: uni01E4
Encoding: 484 484 570
Width: 656
Flags: W
AnchorPoint: "top" 399 758 basechar 0
AnchorPoint: "bottom" 384 -31 basechar 0
AnchorPoint: "bottomattside" 605 28 basechar 0
AnchorPoint: "bottomatt" 423 10 basechar 0
LayerCount: 2
Fore
SplineSet
372 158 m 5,0,-1
 659 180 l 1,1,-1
 656 125 l 1,2,-1
 376 114 l 5,3,-1
 372 158 l 5,0,-1
EndSplineSet
Refer: 39 71 N 1 0 0 1 0 0 2
EndChar
StartChar: uni01E5
Encoding: 485 485 571
Width: 612
Flags: W
AnchorPoint: "top" 261 527 basechar 0
AnchorPoint: "bottom" 333 -276 basechar 0
AnchorPoint: "bottomattside" 400 -232 basechar 0
AnchorPoint: "bottomatt" 369 -228 basechar 0
LayerCount: 2
Fore
SplineSet
112 -40 m 5,0,-1
 606 -40 l 1,1,-1
 603 -95 l 1,2,-1
 116 -84 l 5,3,-1
 112 -40 l 5,0,-1
EndSplineSet
Refer: 71 103 N 1 0 0 1 0 0 2
EndChar
StartChar: uni01F6
Encoding: 502 502 597
Width: 952
Flags: W
LayerCount: 2
Fore
SplineSet
890 233 m 2,0,1
 884 -14 884 -14 708 -14 c 4,2,3
 539 -13 539 -13 539 218 c 1,4,-1
 87 216 l 1,5,-1
 90 0 l 1,6,-1
 0 0 l 1,7,-1
 0 717 l 1,8,-1
 78 713 l 1,9,-1
 85 282 l 1,10,-1
 539 291 l 1,11,-1
 535 711 l 1,12,-1
 595 711 l 1,13,-1
 609 219 l 2,14,15
 614 44 614 44 714 40 c 4,16,17
 811 36 811 36 817 239 c 2,18,-1
 825 488 l 1,19,-1
 896 486 l 1,20,-1
 890 233 l 2,0,1
EndSplineSet
EndChar
StartChar: uni01F7
Encoding: 503 503 634
Width: 627
Flags: W
LayerCount: 2
Fore
SplineSet
103 4 m 1,0,1
 349 77 349 77 457 245 c 0,2,3
 546 387 546 387 455 549 c 0,4,5
 436 584 436 584 407 605 c 0,6,7
 353 645 353 645 295 645 c 0,8,9
 195 645 195 645 150 587 c 0,10,11
 105 530 105 530 104 453 c 2,12,-1
 103 4 l 1,0,1
103 -94 m 1,13,-1
 102 -213 l 1,14,-1
 34 -214 l 1,15,-1
 29 700 l 1,16,-1
 96 700 l 1,17,-1
 98 649 l 1,18,19
 160 709 160 709 270.5 715.5 c 128,-1,20
 381 722 381 722 460 658 c 0,21,22
 535 598 535 598 566 500 c 0,23,24
 625 304 625 304 489 146 c 0,25,26
 363 0 363 0 103 -94 c 1,13,-1
EndSplineSet
EndChar
StartChar: uni021C
Encoding: 540 540 654
Width: 436
Flags: W
LayerCount: 2
Fore
SplineSet
49 584 m 1,0,1
 109 644 109 644 167 645 c 0,2,3
 225 646 225 646 261 617 c 0,4,5
 296 587 296 587 299 518 c 0,6,7
 302 438 302 438 214 372 c 0,8,9
 164 334 164 334 91 314 c 2,10,-1
 29 297 l 1,11,-1
 47 238 l 1,12,-1
 108 254 l 2,13,14
 210 282 210 282 262 262 c 0,15,16
 307 245 307 245 322 195 c 0,17,18
 337 141 337 141 303 78 c 0,19,20
 261 -3 261 -3 198 -47 c 0,21,22
 96 -118 96 -118 14 -145 c 5,23,-1
 41 -205 l 5,24,25
 136 -172 136 -172 237 -105 c 0,26,27
 311 -56 311 -56 346 9 c 0,28,29
 384 82 384 82 391 142 c 0,30,31
 409 299 409 299 243 333 c 1,32,33
 275 348 275 348 333 418 c 0,34,35
 400 496 400 496 343 618 c 0,36,37
 321 665 321 665 272 686 c 0,38,39
 128 743 128 743 10 629 c 1,40,-1
 49 584 l 1,0,1
EndSplineSet
EndChar
StartChar: uni021D
Encoding: 541 541 655
Width: 427
Flags: W
LayerCount: 2
Fore
SplineSet
40 375 m 1,0,1
 101 419 101 419 159 419 c 0,2,3
 216 420 216 420 252 399 c 0,4,5
 288 378 288 378 290 328 c 0,6,7
 294 257 294 257 205 209 c 0,8,9
 154 182 154 182 82 168 c 2,10,-1
 20 155 l 1,11,-1
 38 92 l 1,12,-1
 99 104 l 2,13,14
 196 123 196 123 253 110 c 0,15,16
 295 100 295 100 313 62 c 0,17,18
 326 31 326 31 295 -8 c 0,19,20
 255 -56 255 -56 189 -90 c 0,21,22
 116 -126 116 -126 19 -150 c 1,23,-1
 46 -214 l 1,24,25
 147 -188 147 -188 228 -144 c 0,26,27
 311 -99 311 -99 341 -57 c 0,28,29
 377 -8 377 -8 383 39 c 0,30,31
 397 142 397 142 258 168 c 1,32,33
 289 182 289 182 336 241 c 0,34,35
 388 304 388 304 334 412 c 0,36,37
 315 450 315 450 264 466 c 0,38,39
 120 512 120 512 2 420 c 1,40,-1
 40 375 l 1,0,1
EndSplineSet
EndChar
StartChar: uni0220
Encoding: 544 544 643
Width: 766
Flags: W
AnchorPoint: "top" 366 765 basechar 0
LayerCount: 2
Fore
SplineSet
132 0 m 1,0,-1
 49 -1 l 1,1,-1
 51 709 l 1,2,-1
 135 719 l 1,3,-1
 135 632 l 1,4,5
 154 695 154 695 341 731 c 0,6,7
 534 768 534 768 647 606 c 0,8,9
 676 565 676 565 685 507 c 0,10,11
 702 397 702 397 702 -237 c 1,12,-1
 634 -233 l 1,13,14
 637 305 637 305 634 334 c 2,15,16
 634 419 634 419 618 483 c 0,17,18
 598 567 598 567 556 607 c 0,19,20
 476 685 476 685 398 682 c 0,21,22
 266 677 266 677 212 624 c 0,23,24
 142 554 142 554 139 379 c 2,25,-1
 132 0 l 1,0,-1
EndSplineSet
EndChar
StartChar: uni0221
Encoding: 545 545 730
Width: 631
Flags: W
LayerCount: 2
Fore
SplineSet
490 -2 m 6,0,-1
 493 72 l 5,1,-1
 606 710 l 5,2,-1
 582 -82 l 6,3,4
 580 -148 580 -148 643 -148 c 7,5,6
 702 -148 702 -148 702 -95 c 7,7,8
 702 -35 702 -35 642 -35 c 7,9,10
 585 -35 585 -35 582 -82 c 4,11,12
 578 -152 578 -152 573 -222 c 5,13,-1
 501 -218 l 5,14,-1
 515 -85 l 4,15,16
 565 31 565 31 645 26 c 12,17,18
 758 20 758 20 758 -98 c 7,19,20
 758 -196 758 -196 658 -196 c 7,21,22
 482 -196 482 -196 490 -2 c 6,0,-1
EndSplineSet
Refer: 68 100 N 1 0 0 1 0 0 2
EndChar
StartChar: uni0222
Encoding: 546 546 652
Width: 843
Flags: W
LayerCount: 2
Fore
SplineSet
578 404 m 1,0,1
 708 364 708 364 765 298 c 0,2,3
 802 255 802 255 798 186 c 0,4,5
 795 126 795 126 743 75 c 0,6,7
 675 7 675 7 539 -13 c 128,-1,8
 403 -33 403 -33 260 0 c 0,9,10
 122 32 122 32 60 126 c 0,11,12
 31 169 31 169 39 218 c 0,13,14
 61 348 61 348 257 404 c 1,15,16
 69 431 69 431 80 523 c 0,17,18
 93 641 93 641 400 636 c 9,19,-1
 399 588 l 1,20,21
 165 588 165 588 157 521 c 0,22,23
 148 449 148 449 445 443 c 0,24,25
 709 437 709 437 709 548 c 0,26,27
 707 670 707 670 439 671 c 1,28,-1
 441 726 l 1,29,30
 773 709 773 709 774 558 c 0,31,32
 776 405 776 405 578 404 c 1,0,1
192 99 m 0,33,34
 225 73 225 73 279 55 c 0,35,36
 333 38 333 38 391 37 c 0,37,38
 502 35 502 35 564 50 c 0,39,40
 628 67 628 67 673 117 c 0,41,42
 698 144 698 144 704 199 c 0,43,44
 712 275 712 275 641 321 c 0,45,46
 606 344 606 344 551 359 c 0,47,48
 495 374 495 374 448 376 c 0,49,50
 335 378 335 378 244 339 c 0,51,52
 136 294 136 294 132 215 c 0,53,54
 128 148 128 148 192 99 c 0,33,34
EndSplineSet
EndChar
StartChar: uni0223
Encoding: 547 547 651
Width: 622
Flags: W
LayerCount: 2
Fore
SplineSet
74 715 m 1,0,-1
 135 691 l 1,1,2
 99 637 99 637 106 588 c 0,3,4
 116 514 116 514 193 468 c 0,5,6
 224 449 224 449 264 444 c 0,7,8
 304 439 304 439 327 441 c 0,9,10
 441 451 441 451 497 523 c 0,11,12
 518 551 518 551 517 591 c 0,13,14
 515 646 515 646 483 694 c 1,15,16
 483 694 483 694 523 721 c 1,17,18
 561 659 561 659 564 622 c 0,19,20
 567 569 567 569 558 537 c 0,21,22
 546 498 546 498 522 468 c 0,23,24
 493 431 493 431 429 404 c 1,25,26
 513 370 513 370 552 302 c 0,27,28
 575 263 575 263 571.5 212.5 c 128,-1,29
 568 162 568 162 544 119.5 c 128,-1,30
 520 77 520 77 480 47.5 c 128,-1,31
 440 18 440 18 391 3 c 128,-1,32
 342 -12 342 -12 295 -12.5 c 128,-1,33
 248 -13 248 -13 194 4 c 0,34,35
 81 40 81 40 40 126 c 0,36,37
 20 169 20 169 25 218 c 0,38,39
 40 348 40 348 181 404 c 1,40,41
 118 430 118 430 86 469 c 0,42,43
 52 511 52 511 45 579 c 0,44,45
 38 648 38 648 74 715 c 1,0,-1
201 63 m 0,46,47
 238 46 238 46 277 45 c 0,48,49
 317 44 317 44 344 50 c 0,50,51
 370 57 370 57 395 69 c 0,52,53
 420 81 420 81 440 98 c 0,54,55
 459 114 459 114 470 133 c 0,56,57
 489 162 489 162 492 200 c 0,58,59
 494 237 494 237 483 266 c 0,60,61
 472 293 472 293 448 315 c 0,62,63
 424 337 424 337 386 352 c 0,64,65
 348 367 348 367 316 367 c 0,66,67
 283 368 283 368 247 360 c 0,68,69
 209 351 209 351 177 333 c 0,70,71
 104 290 104 290 100 215 c 0,72,73
 97 152 97 152 141 104 c 0,74,75
 164 79 164 79 201 63 c 0,46,47
EndSplineSet
EndChar
StartChar: uni0224
Encoding: 548 548 726
Width: 653
Flags: W
AnchorPoint: "top" 328 773 basechar 0
LayerCount: 2
Fore
SplineSet
488 8 m 6,0,1
 488 8 488 8 108 0 c 1,2,-1
 102 46 l 1,3,-1
 512 658 l 1,4,-1
 51 654 l 1,5,-1
 46 717 l 1,6,-1
 609 711 l 1,7,-1
 610 675 l 1,8,-1
 210 61 l 1,9,-1
 485 70 l 6,10,11
 573 73 573 73 608.5 22 c 132,-1,12
 644 -29 644 -29 596 -119 c 5,13,-1
 539 -85 l 5,14,15
 571 -27 571 -27 556.89453125 -8.349609375 c 4,16,17
 544 9 544 9 488 8 c 6,0,1
EndSplineSet
EndChar
StartChar: uni0225
Encoding: 549 549 727
Width: 484
Flags: W
AnchorPoint: "top" 210 532 basechar 0
LayerCount: 2
Fore
SplineSet
310 5 m 2,0,1
 310 5 310 5 34 8 c 1,2,-1
 32 49 l 1,3,-1
 319 431 l 1,4,-1
 8 428 l 1,5,-1
 10 492 l 1,6,-1
 410 483 l 1,7,-1
 411 442 l 1,8,-1
 133 62 l 1,9,-1
 312 62 l 2,10,11
 384 62 384 62 420.5 13 c 128,-1,12
 457 -36 457 -36 408 -128 c 1,13,-1
 351 -94 l 1,14,15
 383 -36 383 -36 368.89453125 -17.349609375 c 0,16,17
 352 5 352 5 310 5 c 2,0,1
EndSplineSet
EndChar
StartChar: uni0234
Encoding: 564 564 731
Width: 325
Flags: W
LayerCount: 2
Fore
SplineSet
37 0 m 2,0,-1
 29 728 l 1,1,-1
 131 729 l 1,2,-1
 132 -82 l 2,3,4
 132 -148 132 -148 193 -148 c 3,5,6
 252 -148 252 -148 252 -95 c 3,7,8
 252 -35 252 -35 192 -35 c 3,9,10
 135 -35 135 -35 132 -82 c 0,11,12
 128 -152 128 -152 123 -222 c 1,13,-1
 51 -218 l 1,14,-1
 58 -83 l 4,15,16
 108 31 108 31 195 26 c 0,17,18
 308 20 308 20 308 -98 c 3,19,20
 308 -196 308 -196 208 -196 c 3,21,22
 39 -196 39 -196 37 0 c 2,0,-1
EndSplineSet
EndChar
StartChar: uni0235
Encoding: 565 565 732
Width: 750
Flags: W
LayerCount: 2
Fore
SplineSet
539 36 m 5,0,-1
 536 -62 l 6,1,2
 533.979591837 -128 533.979591837 -128 597 -128 c 7,3,4
 656 -128 656 -128 656 -75 c 7,5,6
 656 -15 656 -15 596 -15 c 7,7,8
 539 -15 539 -15 536 -62 c 4,9,10
 532 -132 532 -132 527 -202 c 5,11,-1
 455 -198 l 5,12,-1
 469 -65 l 4,13,14
 519 51 519 51 599 46 c 12,15,16
 712 40 712 40 712 -78 c 7,17,18
 712 -176 712 -176 612 -176 c 7,19,20
 446 -176 446 -176 444 18 c 5,21,-1
 539 36 l 5,0,-1
EndSplineSet
Refer: 78 110 N 1 0 0 1 0 0 2
EndChar
StartChar: uni0236
Encoding: 566 566 733
Width: 358
Flags: W
LayerCount: 2
Fore
SplineSet
254 -144 m 0,0,1
 313 -145 313 -145 313 -91 c 3,2,3
 313 -31 313 -31 253 -31 c 3,4,5
 202 -31 202 -31 196 -91 c 4,6,7
 190 -154 190 -154 184 -218 c 1,8,-1
 112 -214 l 1,9,-1
 126 -81 l 0,10,11
 176 35 176 35 256 30 c 8,12,13
 369 24 369 24 369 -94 c 3,14,15
 369 -192 369 -192 269 -192 c 3,16,17
 101.946341463 -192 101.946341463 -192 101 2 c 2,18,-1
 99 412 l 1,19,-1
 173 417 l 1,20,-1
 182 5 l 2,21,22
 182.852546917 -34.0277033065 182.852546917 -34.0277033065 196 -91 c 4,23,24
 208 -143 208 -143 254 -144 c 0,0,1
EndSplineSet
Refer: 84 116 N 1 0 0 1 0 0 2
EndChar
StartChar: uni0237
Encoding: 567 567 377
Width: 370
Flags: W
AnchorPoint: "bottomatt" 146 -232 basechar 0
AnchorPoint: "bottom" 118 -282 basechar 0
AnchorPoint: "bottomattside" 93 -229 basechar 0
AnchorPoint: "top" 269 528 basechar 0
LayerCount: 2
Fore
SplineSet
224 62 m 6,0,-1
 229 492 l 1,1,-1
 315 492 l 1,2,3
 311 350 311 350 308 241.5 c 128,-1,4
 305 133 305 133 301.5 53 c 132,-1,5
 298 -27 298 -27 284.5 -81 c 132,-1,6
 271 -135 271 -135 249.5 -170.5 c 132,-1,7
 228 -206 228 -206 197 -223.5 c 132,-1,8
 166 -241 166 -241 117 -243 c 4,9,10
 74 -243 74 -243 37.5 -227 c 132,-1,11
 1 -211 1 -211 -29 -172 c 5,12,-1
 17 -125 l 5,13,14
 29 -139 29 -139 39.5 -149 c 132,-1,15
 50 -159 50 -159 60.5 -166 c 132,-1,16
 71 -173 71 -173 82 -176.5 c 132,-1,17
 93 -180 93 -180 108 -182 c 4,18,19
 134 -185 134 -185 152.5 -174.5 c 132,-1,20
 171 -164 171 -164 184 -143.5 c 132,-1,21
 197 -123 197 -123 205 -96.5 c 132,-1,22
 213 -70 213 -70 217 -41.5 c 132,-1,23
 221 -13 221 -13 222.5 13.5 c 132,-1,24
 224 40 224 40 224 62 c 6,0,-1
EndSplineSet
EndChar
StartChar: uni0239
Encoding: 569 569 579
Width: 1036
Flags: W
LayerCount: 2
Fore
SplineSet
541 -236 m 5,0,-1
 463 -237 l 1,1,-1
 464 85 l 1,2,3
 427 49 427 49 378 30.5 c 128,-1,4
 329 12 329 12 272 10 c 0,5,6
 213 7 213 7 162.5 25 c 128,-1,7
 112 43 112 43 75.5 76.5 c 128,-1,8
 39 110 39 110 20 157 c 128,-1,9
 1 204 1 204 5 259 c 0,10,11
 9 313 9 313 33 355 c 128,-1,12
 57 397 57 397 95 426 c 128,-1,13
 133 455 133 455 182 470 c 128,-1,14
 231 485 231 485 287 486 c 0,15,16
 337 487 337 487 384 471 c 0,17,18
 431 454 431 454 466 422 c 1,19,-1
 466 477 l 1,20,-1
 534 477 l 1,21,-1
 536 426 l 1,22,23
 570 459 570 459 613.5 474.5 c 128,-1,24
 657 490 657 490 708 493 c 0,25,26
 761 496 761 496 808 484 c 128,-1,27
 855 472 855 472 892 445.5 c 128,-1,28
 929 419 929 419 953.5 377 c 128,-1,29
 978 335 978 335 985 278 c 0,30,31
 990 222 990 222 973 172.5 c 128,-1,32
 956 123 956 123 925 83 c 128,-1,33
 894 43 894 43 843.5 18 c 128,-1,34
 793 -7 793 -7 734 -5 c 0,35,36
 707 -4 707 -4 681 0.5 c 128,-1,37
 655 5 655 5 630 15 c 128,-1,38
 605 25 605 25 582 38 c 128,-1,39
 559 51 559 51 539 66 c 5,40,-1
 541 -236 l 5,0,-1
542 252 m 0,41,42
 542 214 542 214 553 177.5 c 128,-1,43
 564 141 564 141 588.5 113.5 c 128,-1,44
 613 86 613 86 653 70.5 c 128,-1,45
 693 55 693 55 749 61 c 0,46,47
 782 64 782 64 806 75 c 128,-1,48
 830 86 830 86 848.5 101.5 c 128,-1,49
 867 117 867 117 880 136.5 c 128,-1,50
 893 156 893 156 901 177.5 c 128,-1,51
 909 199 909 199 911.5 221.5 c 128,-1,52
 914 244 914 244 913 265 c 0,53,54
 911 313 911 313 891.5 347.5 c 128,-1,55
 872 382 872 382 843.5 403.5 c 128,-1,56
 815 425 815 425 782.5 434.5 c 128,-1,57
 750 444 750 444 721 444 c 0,58,59
 675 443 675 443 640.5 426 c 128,-1,60
 606 409 606 409 583.5 382 c 128,-1,61
 561 355 561 355 550.5 321 c 128,-1,62
 540 287 540 287 542 252 c 0,41,42
256 56 m 0,63,64
 293 56 293 56 322.5 64 c 128,-1,65
 352 72 352 72 375 86 c 128,-1,66
 398 100 398 100 414.5 119 c 128,-1,67
 431 138 431 138 441.5 159.5 c 128,-1,68
 452 181 452 181 457 204 c 128,-1,69
 462 227 462 227 463 249 c 0,70,71
 464 284 464 284 452.5 317.5 c 128,-1,72
 441 351 441 351 417.5 377 c 128,-1,73
 394 403 394 403 359 419.5 c 128,-1,74
 324 436 324 436 278 436 c 0,75,76
 259 436 259 436 237 431.5 c 128,-1,77
 215 427 215 427 194 417.5 c 128,-1,78
 173 408 173 408 153.5 393.5 c 128,-1,79
 134 379 134 379 119 359 c 128,-1,80
 104 339 104 339 95.5 313.5 c 128,-1,81
 87 288 87 288 86 256 c 0,82,83
 85 223 85 223 93 188.5 c 128,-1,84
 101 154 101 154 121 124.5 c 128,-1,85
 141 95 141 95 174 76 c 128,-1,86
 207 57 207 57 256 56 c 0,63,64
EndSplineSet
EndChar
StartChar: uni023A
Encoding: 570 570 580
Width: 645
Flags: W
AnchorPoint: "top" 259 733 basechar 0
AnchorPoint: "bottom" 297 -10 basechar 0
AnchorPoint: "bottomattside" 561 19 basechar 0
AnchorPoint: "bottomatt" 314 -10 basechar 0
LayerCount: 2
Fore
SplineSet
58 -41 m 5,0,-1
 439 749 l 1,1,-1
 498 722 l 1,2,-1
 99 -59 l 5,3,-1
 58 -41 l 5,0,-1
EndSplineSet
Refer: 33 65 N 1 0 0 1 0 0 2
EndChar
StartChar: uni023B
Encoding: 571 571 581
Width: 633
Flags: W
AnchorPoint: "top" 319 743 basechar 0
AnchorPoint: "bottom" 353 -20 basechar 0
AnchorPoint: "bottomattside" 545 12 basechar 0
AnchorPoint: "bottomatt" 370 32 basechar 0
LayerCount: 2
Fore
SplineSet
61 39 m 5,0,-1
 498 788 l 5,1,-1
 556 743 l 5,2,-1
 99 18 l 5,3,-1
 61 39 l 5,0,-1
EndSplineSet
Refer: 35 67 N 1 0 0 1 0 0 2
EndChar
StartChar: uni023C
Encoding: 572 572 582
Width: 482
Flags: W
AnchorPoint: "top" 244 548 basechar 0
AnchorPoint: "bottom" 276 -31 basechar 0
AnchorPoint: "bottomattside" 412 11 basechar 0
AnchorPoint: "bottomatt" 262 24 basechar 0
LayerCount: 2
Fore
SplineSet
52 8 m 5,0,-1
 394 547 l 5,1,-1
 458 509 l 5,2,-1
 85 -17 l 5,3,-1
 52 8 l 5,0,-1
EndSplineSet
Refer: 67 99 N 1 0 0 1 0 0 2
EndChar
StartChar: uni023D
Encoding: 573 573 583
Width: 565
Flags: W
AnchorPoint: "top" 59 739 basechar 0
AnchorPoint: "bottom" 256 -31 basechar 0
AnchorPoint: "bottomattside" 505 7 basechar 0
AnchorPoint: "bottomatt" 294 10 basechar 0
LayerCount: 2
Fore
SplineSet
-49 396 m 1,0,-1
 174 406 l 1,1,-1
 171 350 l 1,2,-1
 -45 352 l 1,3,-1
 -49 396 l 1,0,-1
EndSplineSet
Refer: 44 76 N 1 0 0 1 0 0 2
EndChar
StartChar: uni023E
Encoding: 574 574 584
Width: 644
Flags: W
AnchorPoint: "top" 297 753 basechar 0
AnchorPoint: "bottom" 326 -34 basechar 0
AnchorPoint: "bottomattside" 307 4 basechar 0
AnchorPoint: "bottomatt" 345 7 basechar 0
LayerCount: 2
Fore
SplineSet
29 -8 m 1,0,-1
 544 775 l 5,1,-1
 597 725 l 5,2,-1
 61 -34 l 1,3,-1
 29 -8 l 1,0,-1
EndSplineSet
Refer: 52 84 N 1 0 0 1 0 0 2
EndChar
StartChar: uni023F
Encoding: 575 575 729
Width: 445
Flags: W
AnchorPoint: "top" 210 538 basechar 0
LayerCount: 2
Fore
SplineSet
106 93 m 5,0,1
 193.505588079 39.2315061203 193.505588079 39.2315061203 243 -36 c 4,2,3
 295 -115 295 -115 356 -59 c 5,4,-1
 392 -114 l 5,5,6
 286 -175 286 -175 222 -86 c 4,7,8
 160 0 160 0 32 68 c 5,9,-1
 106 93 l 5,0,1
EndSplineSet
Refer: 83 115 N 1 0 0 1 0 0 2
EndChar
StartChar: uni0240
Encoding: 576 576 728
Width: 484
Flags: W
AnchorPoint: "top" 210 532 basechar 0
LayerCount: 2
Fore
SplineSet
436 -58 m 1,0,1
 436 -58 436 -58 480 -112 c 1,2,3
 387 -166 387 -166 313 -113 c 0,4,5
 212 -41 212 -41 162 -10 c 0,6,7
 133 8 133 8 74 8 c 2,8,-1
 34 8 l 1,9,-1
 32 49 l 1,10,-1
 319 431 l 1,11,-1
 8 428 l 1,12,-1
 10 492 l 1,13,-1
 410 483 l 1,14,-1
 411 442 l 1,15,-1
 133 62 l 1,16,17
 183 62 183 62 223.5 32.38671875 c 0,18,19
 248 14 248 14 269 -4.8271484375 c 0,20,21
 312 -41 312 -41 328 -52 c 4,22,23
 386 -93 386 -93 436 -58 c 1,0,1
EndSplineSet
EndChar
StartChar: uni0241
Encoding: 577 577 680
Width: 549
Flags: W
LayerCount: 2
Fore
SplineSet
288.099609375 347.5 m 1,0,1
 288.099609375 347.5 288.099609375 347.5 295.443359375 4 c 1,2,-1
 230.443359375 0 l 1,3,-1
 234.099609375 390.5 l 1,4,5
 323 405 323 405 366.099609375 430.5 c 0,6,7
 461 486 461 486 417 579 c 0,8,9
 394 627 394 627 320 641.408203125 c 0,10,11
 208.735403438 664.451500286 208.735403438 664.451500286 44 593 c 1,12,-1
 1.7001953125 672 l 1,13,14
 65 701 65 701 137.5 709 c 0,15,16
 276.565310514 724.345137712 276.565310514 724.345137712 361.700195312 697 c 0,17,18
 408 682 408 682 446 652.5 c 128,-1,19
 484 623 484 623 497.299804688 577 c 0,20,21
 528.602189321 462.547331694 528.602189321 462.547331694 419.799804688 399.5 c 0,22,23
 367.556874195 368.120118734 367.556874195 368.120118734 288.099609375 347.5 c 1,0,1
288.356445312 347.853515625 m 1025,24,-1
EndSplineSet
EndChar
StartChar: uni0242
Encoding: 578 578 686
Width: 527
Flags: W
LayerCount: 2
Fore
SplineSet
26 389.592773438 m 1,0,-1
 0.7001953125 470.799804688 l 1,1,2
 110.383099989 510.240449841 110.383099989 510.240449841 240.700195312 504.799804688 c 0,3,4
 350.566003714 501.018968446 350.566003714 501.018968446 424.299804688 455.200195312 c 0,5,6
 462 432 462 432 475.299804688 394.799804688 c 0,7,8
 498 328 498 328 450 286 c 0,9,10
 392.840357903 236.634854553 392.840357903 236.634854553 266.099609375 211.200195312 c 1,11,-1
 271 3.2001953125 l 1,12,-1
 206 0 l 1,13,-1
 212.099609375 266.072265625 l 1,14,15
 301 275 301 275 344.099609375 291.671875 c 0,16,17
 439 327 439 327 395 386.711914062 c 0,18,19
 361.810474278 430.41831438 361.810474278 430.41831438 239.651540975 430.388451807 c 128,-1,20
 117.492607672 430.358589234 117.492607672 430.358589234 26 389.592773438 c 1,0,-1
266.356445312 211.482421875 m 1025,21,-1
EndSplineSet
EndChar
StartChar: uni0243
Encoding: 579 579 599
Width: 601
Flags: W
AnchorPoint: "top" 243 748 basechar 0
AnchorPoint: "bottom" 314 -10 basechar 0
AnchorPoint: "bottomattside" 355 38 basechar 0
AnchorPoint: "bottomatt" 338 41 basechar 0
LayerCount: 2
Fore
SplineSet
0 273 m 5,0,-1
 284 286 l 5,1,-1
 280 221 l 1,2,-1
 3 210 l 5,3,-1
 0 273 l 5,0,-1
EndSplineSet
Refer: 34 66 N 1 0 0 1 79 0 2
EndChar
StartChar: uni0244
Encoding: 580 580 600
Width: 746
Flags: W
AnchorPoint: "top" 333 712 basechar 0
AnchorPoint: "bottom" 348 -36 basechar 0
AnchorPoint: "bottomattside" 481 25 basechar 0
AnchorPoint: "bottomatt" 382 13 basechar 0
LayerCount: 2
Fore
SplineSet
-4 373 m 5,0,-1
 723 385 l 5,1,-1
 720 330 l 5,2,-1
 0 329 l 5,3,-1
 -4 373 l 5,0,-1
EndSplineSet
Refer: 53 85 N 1 0 0 1 0 0 2
EndChar
StartChar: uni0246
Encoding: 582 582 601
Width: 447
Flags: W
AnchorPoint: "top" 236 736 basechar 0
AnchorPoint: "bottom" 200 -31 basechar 0
AnchorPoint: "bottomattside" 409 4 basechar 0
AnchorPoint: "bottomatt" 236 7 basechar 0
LayerCount: 2
Fore
SplineSet
61 -42 m 1,0,-1
 326 772 l 1,1,-1
 395 757 l 5,2,-1
 103 -54 l 1,3,-1
 61 -42 l 1,0,-1
EndSplineSet
Refer: 37 69 N 1 0 0 1 0 0 2
EndChar
StartChar: uni0247
Encoding: 583 583 602
Width: 612
Flags: W
AnchorPoint: "top" 287 507 basechar 0
AnchorPoint: "bottom" 312 -36 basechar 0
AnchorPoint: "bottomattside" 477 23 basechar 0
AnchorPoint: "bottomatt" 325 3 basechar 0
LayerCount: 2
Fore
SplineSet
95 8 m 5,0,-1
 437 547 l 5,1,-1
 501 509 l 5,2,-1
 128 -17 l 5,3,-1
 95 8 l 5,0,-1
EndSplineSet
Refer: 69 101 N 1 0 0 1 0 0 2
EndChar
StartChar: uni0248
Encoding: 584 584 603
Width: 522
Flags: W
AnchorPoint: "bottom" 215 -31 basechar 0
AnchorPoint: "bottomattside" 354 44 basechar 0
AnchorPoint: "top" 392 736 basechar 0
AnchorPoint: "bottomatt" 256 10 basechar 0
LayerCount: 2
Fore
SplineSet
291 377 m 1,0,-1
 500 386 l 1,1,-1
 497 331 l 1,2,-1
 295 333 l 1,3,-1
 291 377 l 1,0,-1
EndSplineSet
Refer: 42 74 N 1 0 0 1 0 0 2
EndChar
StartChar: uni0249
Encoding: 585 585 604
Width: 370
Flags: W
AnchorPoint: "bottomattside" 93 -229 basechar 0
AnchorPoint: "bottom" 118 -282 basechar 0
AnchorPoint: "bottomatt" 146 -232 basechar 0
LayerCount: 2
Fore
SplineSet
165 271 m 1,0,-1
 374 281 l 1,1,-1
 371 225 l 1,2,-1
 169 227 l 1,3,-1
 165 271 l 1,0,-1
EndSplineSet
Refer: 74 106 N 1 0 0 1 0 0 2
Substitution2: "dotless-1" uni025F
EndChar
StartChar: uni024A
Encoding: 586 586 724
Width: 831
Flags: W
LayerCount: 2
Fore
SplineSet
774 4 m 6,0,1
 774.429054054 -71.8353040541 774.429054054 -71.8353040541 785 -115 c 0,2,3
 809 -213 809 -213 914 -179.5 c 0,4,5
 943 -170 943 -170 979 -128 c 1,6,-1
 1025 -175 l 1,7,8
 970 -246 970 -246 878.365234375 -246.5 c 0,9,10
 757 -247 757 -247 718 -178 c 0,11,12
 682 -115 682 -115 682 4 c 10,13,-1
 682 714 l 25,14,-1
 770 711 l 29,15,-1
 774 4 l 6,0,1
EndSplineSet
Refer: 723 11373 N 1 0 0 1 0 0 2
EndChar
StartChar: uni024B
Encoding: 587 587 725
Width: 593
Flags: W
LayerCount: 2
Fore
SplineSet
541 1 m 6,0,1
 542 -54 542 -54 552 -104 c 4,2,3
 577.566759043 -215.574582864 577.566759043 -215.574582864 681 -182.5 c 4,4,5
 710 -173 710 -173 746 -131 c 5,6,-1
 792 -178 l 5,7,8
 737 -249 737 -249 645.365234375 -249.5 c 4,9,10
 546 -250 546 -250 499.5625 -177 c 4,11,12
 462 -115 462 -115 463 0 c 6,13,-1
 464 85 l 1,14,15
 393 16 393 16 272 10 c 0,16,17
 154 4 154 4 75.5 76.5 c 128,-1,18
 -3 149 -3 149 5 259 c 0,19,20
 13 363 13 363 95 426 c 0,21,22
 171 484 171 484 287 486 c 0,23,24
 393 488 393 488 467 422 c 1,25,-1
 467 472 l 1,26,-1
 534 471 l 1,27,-1
 541 1 l 6,0,1
174 76 m 128,-1,29
 207 57 207 57 250 56.5 c 128,-1,30
 293 56 293 56 322.5 64 c 128,-1,31
 352 72 352 72 375 86 c 128,-1,32
 398 100 398 100 414.5 119 c 128,-1,33
 431 138 431 138 441.5 159.5 c 0,34,35
 460.720763723 198.856801909 460.720763723 198.856801909 462.360381862 241.428400955 c 128,-1,36
 464 284 464 284 452.5 317.5 c 128,-1,37
 441 351 441 351 417.5 377 c 0,38,39
 364.173076923 436 364.173076923 436 278 436 c 0,40,41
 210.655172414 436 210.655172414 436 153.5 393.5 c 0,42,43
 88.7932731747 345.384741591 88.7932731747 345.384741591 86 256 c 0,44,45
 83.6831036983 179.542422045 83.6831036983 179.542422045 121 124.5 c 0,46,28
 141 95 141 95 174 76 c 128,-1,29
EndSplineSet
EndChar
StartChar: uni024C
Encoding: 588 588 588
Width: 612
Flags: W
AnchorPoint: "top" 333 753 basechar 0
AnchorPoint: "bottom" 251 -20 basechar 0
AnchorPoint: "bottomattside" 399 20 basechar 0
AnchorPoint: "bottomatt" 402 38 basechar 0
LayerCount: 2
Fore
SplineSet
2 377 m 5,0,-1
 94 375 l 1,1,-1
 210 312 l 1,2,-1
 0 315 l 1,3,-1
 2 377 l 5,0,-1
EndSplineSet
Refer: 50 82 N 1 0 0 1 51 0 2
EndChar
StartChar: uni024D
Encoding: 589 589 589
Width: 410
Flags: W
AnchorPoint: "top" 220 512 basechar 0
AnchorPoint: "bottom" 72 -31 basechar 0
AnchorPoint: "bottomattside" 63 4 basechar 0
AnchorPoint: "bottomatt" 95 10 basechar 0
LayerCount: 2
Fore
SplineSet
-5 283 m 5,0,-1
 204 292 l 5,1,-1
 201 237 l 5,2,-1
 -1 239 l 5,3,-1
 -5 283 l 5,0,-1
EndSplineSet
Refer: 82 114 N 1 0 0 1 0 0 2
EndChar
StartChar: uni024E
Encoding: 590 590 586
Width: 634
Flags: W
AnchorPoint: "top" 297 722 basechar 0
AnchorPoint: "bottom" 323 -31 basechar 0
AnchorPoint: "bottomattside" 308 4 basechar 0
AnchorPoint: "bottomatt" 341 17 basechar 0
LayerCount: 2
Fore
SplineSet
26 563 m 5,0,-1
 564 567 l 5,1,-1
 561 512 l 5,2,-1
 30 519 l 5,3,-1
 26 563 l 5,0,-1
EndSplineSet
Refer: 57 89 N 1 0 0 1 0 0 2
EndChar
StartChar: uni024F
Encoding: 591 591 587
Width: 562
Flags: W
AnchorPoint: "top" 276 527 basechar 0
AnchorPoint: "bottom" 148 -266 basechar 0
AnchorPoint: "bottomattside" 128 -217 basechar 0
AnchorPoint: "bottomatt" 174 -215 basechar 0
LayerCount: 2
Fore
SplineSet
43 243 m 5,0,-1
 501 285 l 1,1,-1
 498 229 l 1,2,-1
 47 199 l 5,3,-1
 43 243 l 5,0,-1
EndSplineSet
Refer: 89 121 N 1 0 0 1 0 0 2
EndChar
StartChar: uni0253
Encoding: 595 595 620
Width: 589
Flags: W
LayerCount: 2
Fore
SplineSet
83 241 m 0,0,1
 84 208 84 208 96.5 172.5 c 128,-1,2
 109 137 109 137 135 109 c 128,-1,3
 161 81 161 81 201 63.5 c 128,-1,4
 241 46 241 46 298 48 c 0,5,6
 348 50 348 50 381.5 70 c 128,-1,7
 415 90 415 90 435 120.5 c 128,-1,8
 455 151 455 151 462.5 186.5 c 128,-1,9
 470 222 470 222 469 256 c 0,10,11
 466 304 466 304 446 339 c 128,-1,12
 426 374 426 374 396.5 395.5 c 128,-1,13
 367 417 367 417 332.5 426.5 c 128,-1,14
 298 436 298 436 268 436 c 0,15,16
 220 435 220 435 184 417.5 c 128,-1,17
 148 400 148 400 125 372.5 c 128,-1,18
 102 345 102 345 91.5 311 c 128,-1,19
 81 277 81 277 83 241 c 0,0,1
0 551 m 6,20,21
 -2 727 -2 727 128 736 c 4,22,23
 215 742 215 742 281 695 c 5,24,-1
 242 634 l 5,25,26
 173 674 173 674 125 655 c 4,27,28
 73 635 73 635 74 551 c 6,29,-1
 75 418 l 1,30,31
 111 451 111 451 158.5 469 c 128,-1,32
 206 487 206 487 257 487 c 0,33,34
 314 487 314 487 364 474 c 128,-1,35
 414 461 414 461 452 433.5 c 128,-1,36
 490 406 490 406 515 364 c 0,37,38
 540 320 540 320 545 267 c 0,39,40
 550 211 550 211 532.5 161.5 c 128,-1,41
 515 112 515 112 479.5 76 c 128,-1,42
 444 40 444 40 393.5 19.5 c 128,-1,43
 343 -1 343 -1 282 0 c 0,44,45
 226 1 226 1 175 19 c 128,-1,46
 124 37 124 37 85 72 c 1,47,-1
 87 -2 l 1,48,-1
 6 -3 l 1,49,-1
 0 551 l 6,20,21
EndSplineSet
EndChar
StartChar: uni0254
Encoding: 596 596 618
Width: 482
Flags: W
LayerCount: 2
Fore
SplineSet
11 478 m 1,0,1
 99 513 99 513 207 506 c 0,2,3
 242 502 242 502 276.5 493 c 128,-1,4
 311 484 311 484 342.5 465.5 c 128,-1,5
 374 447 374 447 399 418 c 128,-1,6
 424 389 424 389 443 346 c 1,7,8
 471 263 471 263 459.5 203.5 c 128,-1,9
 448 144 448 144 417.5 101 c 128,-1,10
 387 58 387 58 343 34 c 128,-1,11
 299 10 299 10 251.5 0 c 128,-1,12
 204 -10 204 -10 153 -7 c 128,-1,13
 102 -4 102 -4 63 11 c 0,14,15
 63 13 63 13 66 76 c 1,16,17
 145 50 145 50 195.5 50.5 c 128,-1,18
 246 51 246 51 284 71.5 c 128,-1,19
 322 92 322 92 349 122 c 128,-1,20
 376 152 376 152 383.5 179 c 128,-1,21
 391 206 391 206 394 226.5 c 128,-1,22
 397 247 397 247 390 283 c 0,23,24
 381 322 381 322 357.5 349 c 128,-1,25
 334 376 334 376 309 392 c 128,-1,26
 284 408 284 408 255 416 c 128,-1,27
 226 424 226 424 197 427 c 0,28,29
 102 432 102 432 12 394 c 1,30,-1
 11 478 l 1,0,1
EndSplineSet
EndChar
StartChar: uni0258
Encoding: 600 600 617
Width: 612
Flags: W
LayerCount: 2
Fore
SplineSet
124 275 m 1,0,-1
 499 288 l 1,1,2
 498 325 498 325 480 356 c 128,-1,3
 462 387 462 387 433 408 c 128,-1,4
 404 429 404 429 367 438 c 128,-1,5
 330 447 330 447 292 441 c 0,6,7
 261 437 261 437 233 424.5 c 128,-1,8
 205 412 205 412 180.5 391.5 c 128,-1,9
 156 371 156 371 144 342 c 128,-1,10
 132 313 132 313 124 275 c 1,0,-1
36 226 m 1,11,12
 34 286 34 286 50.5 336 c 128,-1,13
 67 386 67 386 100 422.5 c 128,-1,14
 133 459 133 459 183 480 c 128,-1,15
 233 501 233 501 296 503 c 0,16,17
 331 503 331 503 367.5 495 c 128,-1,18
 404 487 404 487 437 470.5 c 128,-1,19
 470 454 470 454 498 428 c 128,-1,20
 526 402 526 402 544.5 368.5 c 128,-1,21
 563 335 563 335 570 294 c 128,-1,22
 577 253 577 253 569 204 c 0,23,24
 562 164 562 164 545 133 c 128,-1,25
 528 102 528 102 505.5 79 c 128,-1,26
 483 56 483 56 456 40.5 c 128,-1,27
 429 25 429 25 402 12 c 0,28,29
 379 1 379 1 345 -4 c 128,-1,30
 311 -9 311 -9 272.5 -8.5 c 128,-1,31
 234 -8 234 -8 196 -1 c 128,-1,32
 158 6 158 6 128 20 c 1,33,-1
 144 102 l 1,34,35
 184 87 184 87 217 80 c 128,-1,36
 250 73 250 73 277 71.5 c 128,-1,37
 304 70 304 70 324 71.5 c 128,-1,38
 344 73 344 73 359 76 c 0,39,40
 382 81 382 81 405.5 93.5 c 128,-1,41
 429 106 429 106 449 124.5 c 128,-1,42
 469 143 469 143 483.5 168.5 c 128,-1,43
 498 194 498 194 503 224 c 0,44,45
 501 225 501 225 479 225 c 128,-1,46
 457 225 457 225 422 225 c 128,-1,47
 387 225 387 225 343.5 225 c 128,-1,48
 300 225 300 225 255 225 c 128,-1,49
 210 225 210 225 168 225 c 128,-1,50
 126 225 126 225 95 225 c 128,-1,51
 64 225 64 225 47 225 c 128,-1,52
 30 225 30 225 36 226 c 1,11,12
EndSplineSet
EndChar
StartChar: uni025E
Encoding: 606 606 657
Width: 478
Flags: W
LayerCount: 2
Fore
SplineSet
443 129 m 24,0,1
 465 26 465 26 273 -12 c 0,2,3
 178 -31 178 -31 92 12 c 0,4,5
 -6 61 -6 61 1 243 c 0,6,7
 7.59133404995 409.980462599 7.59133404995 409.980462599 100 452 c 0,8,9
 167 484 167 484 243 479 c 0,10,11
 344.404397706 472.054493308 344.404397706 472.054493308 375.5 458.5 c 0,12,13
 434 433 434 433 438 390 c 0,14,15
 446 295 446 295 345 250 c 0,16,17
 321 240 321 240 321 239 c 1,18,19
 321 240 321 240 333.5 236.5 c 128,-1,20
 346 233 346 233 368 219 c 0,21,22
 433 177 433 177 443 129 c 24,0,1
246 40 m 0,23,24
 339 53 339 53 361 91 c 0,25,26
 370 107 370 107 369 126 c 0,27,28
 367 170 367 170 293 193 c 0,29,30
 247 207 247 207 188 200 c 1,31,32
 184 244 184 244 186 246 c 257,33,34
 188 247 188 247 201 248 c 0,35,36
 273 254 273 254 313.5 282 c 0,37,38
 358 313 358 313 355 369 c 0,39,40
 353 398 353 398 335 416 c 0,41,42
 308 443 308 443 239 436 c 0,43,44
 215 434 215 434 183 424 c 128,-1,45
 151 414 151 414 119 386 c 0,46,47
 50.8512818344 326.369871605 50.8512818344 326.369871605 57 236 c 0,48,49
 57 129 57 129 98 79 c 0,50,51
 141 26 141 26 246 40 c 0,23,24
EndSplineSet
EndChar
StartChar: uni025F
Encoding: 607 607 619
Width: 370
Flags: W
AnchorPoint: "top" 269 528 basechar 0
AnchorPoint: "bottomattside" 93 -229 basechar 0
AnchorPoint: "bottom" 118 -282 basechar 0
AnchorPoint: "bottomatt" 146 -232 basechar 0
LayerCount: 2
Fore
SplineSet
165 271 m 5,0,-1
 374 281 l 5,1,-1
 371 225 l 5,2,-1
 169 227 l 5,3,-1
 165 271 l 5,0,-1
EndSplineSet
Refer: 377 567 N 1 0 0 1 0 0 2
EndChar
StartChar: uni0262
Encoding: 610 610 642
Width: 482
Flags: W
AnchorPoint: "top" 244 548 basechar 0
AnchorPoint: "bottom" 276 -31 basechar 0
AnchorPoint: "bottomattside" 412 11 basechar 0
LayerCount: 2
Fore
SplineSet
412 11 m 1,0,-1
 365 44 l 1,1,-1
 358 145 l 1,2,-1
 246 140 l 1,3,-1
 244 202 l 1,4,-1
 411 200 l 1,5,-1
 412 11 l 1,0,-1
EndSplineSet
Refer: 67 99 N 1 0 0 1 0 0 2
EndChar
StartChar: uni0263
Encoding: 611 611 644
Width: 575
Flags: W
AnchorPoint: "top" 271 512 basechar 0
LayerCount: 2
Fore
SplineSet
263 109 m 2,0,1
 263 109 263 109 63 499 c 1,2,-1
 1 468 l 1,3,-1
 254 0 l 2,4,5
 309 -102 309 -102 306 -135 c 0,6,7
 302 -182 302 -182 262 -181 c 24,8,9
 239 -180 239 -180 236 -138 c 0,10,11
 233 -106 233 -106 288 -3 c 2,12,-1
 538 462 l 1,13,-1
 459 501 l 1,14,-1
 263 109 l 2,15,16
 184 -49 184 -49 180 -110 c 0,17,18
 172 -230 172 -230 264 -238 c 0,19,20
 365 -247 365 -247 360 -122 c 4,21,22
 358 -77 358 -77 263 109 c 2,0,1
EndSplineSet
EndChar
StartChar: uni0264
Encoding: 612 612 645
Width: 575
Flags: W
AnchorPoint: "bottom" 266 -34 basechar 0
AnchorPoint: "top" 271 512 basechar 0
LayerCount: 2
Fore
SplineSet
268 215 m 1,0,1
 268 215 268 215 63 499 c 1,2,-1
 7 440 l 1,3,-1
 275 121 l 2,4,5
 304 86 304 86 306 72 c 0,6,7
 310 44 310 44 269 45 c 24,8,9
 235 46 235 46 235 70 c 0,10,11
 235 85.2272727273 235 85.2272727273 256 111 c 2,12,-1
 520 435 l 1,13,-1
 459 501 l 1,14,-1
 268 215 l 1,15,16
 184 115 184 115 180 77 c 0,17,18
 171 -1 171 -1 264 -6 c 4,19,20
 364 -11 364 -11 354 66 c 0,21,22
 345 129 345 129 268 215 c 1,0,1
EndSplineSet
EndChar
StartChar: uni0268
Encoding: 616 616 616
Width: 234
Flags: W
AnchorPoint: "bottom" 97 -31 basechar 0
AnchorPoint: "bottomattside" 79 5 basechar 0
AnchorPoint: "bottomatt" 123 13 basechar 0
LayerCount: 2
Fore
SplineSet
0 273 m 1,0,-1
 205 283 l 5,1,-1
 202 227 l 5,2,-1
 4 229 l 1,3,-1
 0 273 l 1,0,-1
EndSplineSet
Refer: 73 105 N 1 0 0 1 0 0 2
EndChar
StartChar: uni0269
Encoding: 617 617 640
Width: 270
Flags: W
AnchorPoint: "top" 108 497 basechar 0
LayerCount: 2
Fore
SplineSet
158 194 m 2,0,1
 156 99 156 99 178 81 c 0,2,3
 193 70 193 70 232 72 c 1,4,-1
 244 5 l 1,5,6
 44 -34 44 -34 49 147 c 2,7,-1
 60 460 l 1,8,-1
 163 461 l 1,9,-1
 158 194 l 2,0,1
EndSplineSet
EndChar
StartChar: uni026A
Encoding: 618 618 641
Width: 267
Flags: W
AnchorPoint: "top" 130 497 basechar 0
LayerCount: 2
Fore
SplineSet
267 -4 m 1,0,-1
 1 2 l 1,1,-1
 -4 50 l 1,2,-1
 69 51 l 1,3,-1
 80 409 l 1,4,-1
 9 410 l 1,5,-1
 12 459 l 1,6,-1
 264 463 l 1,7,-1
 263 407 l 1,8,-1
 184 408 l 1,9,-1
 177 51 l 1,10,-1
 260 52 l 1,11,-1
 267 -4 l 1,0,-1
EndSplineSet
EndChar
StartChar: uni0274
Encoding: 628 628 621
Width: 568
Flags: W
LayerCount: 2
Fore
SplineSet
19 476 m 1,0,-1
 30 -1 l 1,1,-1
 93 -1 l 1,2,-1
 74 402 l 5,3,-1
 442 10 l 1,4,-1
 512 9 l 1,5,-1
 512 487 l 1,6,-1
 440 483 l 1,7,-1
 442 90 l 1,8,-1
 73 475 l 1,9,-1
 19 476 l 1,0,-1
EndSplineSet
EndChar
StartChar: uni0275
Encoding: 629 629 622
Width: 622
Flags: W
LayerCount: 2
Fore
SplineSet
59 276 m 5,0,-1
 524 283 l 5,1,-1
 520 217 l 5,2,-1
 63 225 l 5,3,-1
 59 276 l 5,0,-1
EndSplineSet
Refer: 79 111 N 1 0 0 1 0 0 2
EndChar
StartChar: uni027C
Encoding: 636 636 637
Width: 410
Flags: W
LayerCount: 2
Fore
SplineSet
30 -245 m 1,0,-1
 26 470 l 5,1,-1
 97 207 l 1,2,-1
 116 -238 l 1,3,-1
 30 -245 l 1,0,-1
EndSplineSet
Refer: 82 114 N 1 0 0 1 0 0 2
EndChar
StartChar: uni0280
Encoding: 640 640 627
Width: 484
Flags: W
LayerCount: 2
Fore
SplineSet
76 271 m 1,0,1
 274 268 274 268 330 300 c 0,2,3
 368 323 368 323 367 350 c 0,4,5
 367 381 367 381 330 400 c 0,6,7
 315 408 315 408 296 413 c 0,8,9
 278 418 278 418 228 421 c 0,10,11
 192 423 192 423 145 422 c 0,12,13
 110 421 110 421 70 418 c 1,14,-1
 76 271 l 1,0,1
420 306 m 0,15,16
 380 258 380 258 301 238 c 0,17,18
 233 221 233 221 131 218 c 1,19,-1
 297 42 l 1,20,-1
 242 -11 l 1,21,-1
 76 217 l 1,22,-1
 75 0 l 1,23,-1
 11 0 l 1,24,-1
 7 470 l 1,25,26
 31 471 31 471 69 472 c 0,27,28
 120 474 120 474 189 473 c 0,29,30
 218 473 218 473 275 467 c 0,31,32
 318 463 318 463 353 451 c 0,33,34
 388 439 388 439 410.5 418 c 128,-1,35
 433 397 433 397 437 364 c 0,36,37
 441 330 441 330 420 306 c 0,15,16
EndSplineSet
EndChar
StartChar: uni0281
Encoding: 641 641 628
Width: 484
Flags: W
LayerCount: 2
Fore
SplineSet
76 191 m 1,0,-1
 70 44 l 1,1,2
 110 41 110 41 145 40 c 0,3,4
 192 39 192 39 228 41 c 0,5,6
 278 44 278 44 296 49 c 0,7,8
 315 53 315 53 330 62 c 0,9,10
 368 81 368 81 367 112 c 0,11,12
 367 139 367 139 330 162 c 0,13,14
 274 194 274 194 76 191 c 1,0,-1
420 156 m 0,15,16
 441 132 441 132 437 98 c 0,17,18
 433 65 433 65 410.5 44 c 128,-1,19
 388 23 388 23 353 11 c 0,20,21
 319 -1 319 -1 275 -5 c 0,22,23
 218 -10 218 -10 189 -11 c 0,24,25
 120 -12 120 -12 69 -10 c 0,26,27
 31 -9 31 -9 7 -8 c 1,28,-1
 11 462 l 1,29,-1
 75 462 l 1,30,-1
 76 245 l 1,31,-1
 242 473 l 1,32,-1
 297 420 l 1,33,-1
 131 244 l 1,34,35
 234 241 234 241 301 224 c 0,36,37
 380 204 380 204 420 156 c 0,15,16
EndSplineSet
EndChar
StartChar: uni0283
Encoding: 643 643 688
Width: 586
Flags: W
AnchorPoint: "top" 387 758 basechar 0
AnchorPoint: "bottomattside" 100 -234 basechar 0
AnchorPoint: "bottom" 125 -287 basechar 0
AnchorPoint: "bottomatt" 153 -237 basechar 0
LayerCount: 2
Fore
SplineSet
-31 -178 m 1,0,1
 -31 -178 -31 -178 15 -131 c 1,2,3
 51.3212890625 -173.375 51.3212890625 -173.375 80 -182.5 c 0,4,5
 147.4609375 -203.96484375 147.4609375 -203.96484375 182 -149.5 c 0,6,7
 195 -129 195 -129 203 -102.5 c 128,-1,8
 211 -76 211 -76 215 -47.5 c 128,-1,9
 219 -19 219 -19 220.5 7.5 c 128,-1,10
 222 34 222 34 222 61.5 c 152,-1,11
 222 89 222 89 219 198 c 128,-1,12
 216 307 216 307 219 473 c 1,13,14
 226 586 226 586 252 638 c 0,15,16
 288 709 288 709 385.5 717.5 c 0,17,18
 446 723 446 723 509 676 c 1,19,-1
 475 616 l 1,20,21
 436 645 436 645 409.145507812 649.016601562 c 0,22,23
 357 657 357 657 336.146484375 640.313476562 c 0,24,25
 298.040039062 610.916015625 298.040039062 610.916015625 289.541015625 547.979492188 c 0,26,27
 285.08203125 514.958007812 285.08203125 514.958007812 285 505 c 256,28,29
 287 271 287 271 294 51 c 0,30,31
 297.692382812 -93.6240234375 297.692382812 -93.6240234375 247.5 -176.5 c 0,32,33
 203.591796875 -249 203.591796875 -249 115 -249 c 0,34,35
 23.615234375 -249 23.615234375 -249 -31 -178 c 1,0,1
EndSplineSet
EndChar
StartChar: uni0284
Encoding: 644 644 690
Width: 586
Flags: W
AnchorPoint: "bottomatt" 153 -237 basechar 0
AnchorPoint: "bottom" 125 -287 basechar 0
AnchorPoint: "bottomattside" 100 -234 basechar 0
AnchorPoint: "top" 387 758 basechar 0
LayerCount: 2
Fore
SplineSet
165 271 m 1,0,-1
 374 281 l 1,1,-1
 371 225 l 1,2,-1
 169 227 l 1,3,-1
 165 271 l 1,0,-1
EndSplineSet
Refer: 688 643 N 1 0 0 1 0 0 2
EndChar
StartChar: uni0285
Encoding: 645 645 691
Width: 586
Flags: W
LayerCount: 2
Fore
SplineSet
509 -178 m 5,0,1
 509 -178 509 -178 463 -131 c 5,2,3
 427 -173 427 -173 398 -182.5 c 4,4,5
 307.881129653 -211.418741977 307.881129653 -211.418741977 275 -102.5 c 4,6,7
 261.124818578 -56.5384615385 261.124818578 -56.5384615385 258.562409289 -11.2692307692 c 132,-1,8
 256 34 256 34 256 95 c 152,-1,9
 256 156 256 156 258 184 c 128,-1,10
 260 212 260 212 259 224 c 24,11,12
 255 331 255 331 226 389 c 0,13,14
 190 460 190 460 92.5 468.5 c 0,15,16
 32 474 32 474 -31 427 c 1,17,-1
 3 367 l 1,18,19
 42 396 42 396 68.8544921875 400.016601562 c 0,20,21
 121 408 121 408 141.853515625 391.313476562 c 0,22,23
 180 362 180 362 188.458984375 298.979492188 c 0,24,25
 193 266 193 266 193 256 c 256,26,27
 186 119 186 119 184 51 c 0,28,29
 180 -94 180 -94 227 -171.5 c 132,-1,30
 274 -249 274 -249 364 -249 c 132,-1,31
 454 -249 454 -249 509 -178 c 5,0,1
EndSplineSet
EndChar
StartChar: uni0288
Encoding: 648 648 693
Width: 400
Flags: W
LayerCount: 2
Fore
SplineSet
99 412 m 1,0,-1
 173 417 l 1,1,-1
 182 5 l 6,2,3
 183 -64 183 -64 195.4375 -102.5 c 4,4,5
 228 -212 228 -212 318.4375 -182.5 c 4,6,7
 347 -173 347 -173 383.4375 -131 c 5,8,-1
 429.4375 -178 l 5,9,10
 374 -249 374 -249 282.802734375 -249.5 c 4,11,12
 181 -250 181 -250 137 -177 c 4,13,14
 101.576950105 -116.274771609 101.576950105 -116.274771609 101 2 c 6,15,-1
 99 412 l 1,0,-1
EndSplineSet
Refer: 84 116 N 1 0 0 1 0 0 2
EndChar
StartChar: uni0289
Encoding: 649 649 613
Width: 568
Flags: W
LayerCount: 2
Fore
SplineSet
-4 272 m 1,0,-1
 546 285 l 5,1,-1
 543 229 l 5,2,-1
 0 228 l 1,3,-1
 -4 272 l 1,0,-1
EndSplineSet
Refer: 85 117 N 1 0 0 1 0 0 2
EndChar
StartChar: uni028B
Encoding: 651 651 595
Width: 568
Flags: W
AnchorPoint: "bottom" 256 -31 basechar 0
AnchorPoint: "top" 266 543 basechar 0
LayerCount: 2
Fore
SplineSet
422 155 m 0,0,1
 446 211 446 211 443 329 c 0,2,3
 440 451 440 451 389 451 c 0,4,5
 358 451 358 451 307 399 c 1,6,-1
 254 442 l 1,7,8
 283 471 283 471 300 483 c 0,9,10
 366 530 366 530 433 500 c 4,11,12
 507 465 507 465 514 377 c 0,13,14
 528 204 528 204 474 119 c 0,15,16
 396 -2 396 -2 248 -3 c 0,17,18
 92 -4 92 -4 50 108 c 0,19,20
 19 189 19 189 18 330 c 0,21,22
 18 401 18 401 19 487 c 1,23,-1
 104 484 l 1,24,25
 103 460 103 460 100.5 428.5 c 128,-1,26
 98 397 98 397 95.5 361.5 c 128,-1,27
 93 326 93 326 93 266 c 128,-1,28
 93 206 93 206 111 147 c 0,29,30
 143 41 143 41 251 43 c 0,31,32
 376 45 376 45 422 155 c 0,0,1
EndSplineSet
EndChar
StartChar: uni0292
Encoding: 658 658 591
Width: 484
Flags: W
AnchorPoint: "bottom" 230 -236 basechar 0
AnchorPoint: "bottomattside" 369 -138 basechar 0
AnchorPoint: "top" 210 532 basechar 0
LayerCount: 2
Fore
SplineSet
175 185 m 0,0,-1
 175 227 l 1,1,-1
 319 431 l 1,2,-1
 8 428 l 1,3,-1
 10 492 l 1,4,-1
 410 483 l 1,5,-1
 411 429 l 1,6,-1
 252 230 l 1,7,8
 429 216 429 216 434 32 c 0,9,10
 440 -192 440 -192 203 -193 c 0,11,12
 78 -193 78 -193 16 -96 c 1,13,-1
 73 -57 l 1,14,15
 139 -131 139 -131 209 -132 c 0,16,17
 370 -133 370 -133 376 0 c 0,18,19
 384 179 384 179 175 185 c 0,0,-1
EndSplineSet
EndChar
StartChar: uni0294
Encoding: 660 660 681
Width: 455
Flags: W
LayerCount: 2
Fore
SplineSet
245 366 m 1,0,1
 245 366 245 366 253.443359375 4 c 1,2,-1
 188.443359375 0 l 1,3,-1
 188.443359375 397.591796875 l 1,4,5
 250.254933934 415.509359145 250.254933934 415.509359145 285 439.5 c 0,6,7
 360.015748031 491.296587927 360.015748031 491.296587927 328 566 c 0,8,9
 307.315743184 616.770448549 307.315743184 616.770448549 255.5 630 c 0,10,11
 232 636 232 636 206.5 635 c 128,-1,12
 181 634 181 634 142 627.5 c 128,-1,13
 103 621 103 621 33 587 c 1,14,15
 33 587 33 587 1 672 c 1,16,17
 54.1326259947 700.981432361 54.1326259947 700.981432361 133.5 711.5 c 0,18,19
 175 717 175 717 218.5 714.5 c 128,-1,20
 262 712 262 712 301 697 c 128,-1,21
 340 682 340 682 371.5 652.5 c 128,-1,22
 403 623 403 623 414 577 c 0,23,24
 430.732984293 510.068062827 430.732984293 510.068062827 392 459.5 c 0,25,26
 374 436 374 436 348.5 418 c 128,-1,27
 323 400 323 400 286 383.5 c 128,-1,28
 249 367 249 367 245 366 c 1,0,1
EndSplineSet
EndChar
StartChar: uni0295
Encoding: 661 661 682
Width: 455
Flags: W
LayerCount: 2
Fore
SplineSet
175.225585938 366 m 1,0,1
 171.225585938 367 171.225585938 367 134.225585938 383.5 c 128,-1,2
 97.2255859375 400 97.2255859375 400 71.7255859375 418 c 128,-1,3
 46.2255859375 436 46.2255859375 436 28.2255859375 459.5 c 0,4,5
 -10.5073983557 510.068062827 -10.5073983557 510.068062827 6.2255859375 577 c 0,6,7
 17.2255859375 623 17.2255859375 623 48.7255859375 652.5 c 128,-1,8
 80.2255859375 682 80.2255859375 682 119.225585938 697 c 128,-1,9
 158.225585938 712 158.225585938 712 201.725585938 714.5 c 128,-1,10
 245.225585938 717 245.225585938 717 286.725585938 711.5 c 0,11,12
 366.092959943 700.981432361 366.092959943 700.981432361 419.225585938 672 c 1,13,-1
 387.225585938 587 l 1,14,15
 317.225585938 621 317.225585938 621 278.225585938 627.5 c 128,-1,16
 239.225585938 634 239.225585938 634 213.725585938 635 c 128,-1,17
 188.225585938 636 188.225585938 636 164.725585938 630 c 0,18,19
 112.909842754 616.770448549 112.909842754 616.770448549 92.2255859375 566 c 0,20,21
 60.209837906 491.296587927 60.209837906 491.296587927 135.225585938 439.5 c 0,22,23
 169.970652003 415.509359145 169.970652003 415.509359145 231.782226562 397.591796875 c 1,24,-1
 231.782226562 0 l 1,25,-1
 166.782226562 4 l 1,26,-1
 175.225585938 366 l 1,0,1
EndSplineSet
EndChar
